%TF.GenerationSoftware,KiCad,Pcbnew,(5.99.0-10766-geeb405c196)*%
%TF.CreationDate,2021-06-19T10:41:35+04:00*%
%TF.ProjectId,Adafruit-PowerBoost-1000C,41646166-7275-4697-942d-506f77657242,rev?*%
%TF.SameCoordinates,Original*%
%TF.FileFunction,AssemblyDrawing,Top*%
%FSLAX46Y46*%
G04 Gerber Fmt 4.6, Leading zero omitted, Abs format (unit mm)*
G04 Created by KiCad (PCBNEW (5.99.0-10766-geeb405c196)) date 2021-06-19 10:41:35*
%MOMM*%
%LPD*%
G01*
G04 APERTURE LIST*
%ADD10C,0.080000*%
%ADD11C,0.150000*%
%ADD12C,0.120000*%
%ADD13C,0.050000*%
%ADD14C,0.100000*%
G04 APERTURE END LIST*
D10*
%TO.C,C4*%
X119178571Y-83833333D02*
X119202380Y-83857142D01*
X119226190Y-83928571D01*
X119226190Y-83976190D01*
X119202380Y-84047619D01*
X119154761Y-84095238D01*
X119107142Y-84119047D01*
X119011904Y-84142857D01*
X118940476Y-84142857D01*
X118845238Y-84119047D01*
X118797619Y-84095238D01*
X118750000Y-84047619D01*
X118726190Y-83976190D01*
X118726190Y-83928571D01*
X118750000Y-83857142D01*
X118773809Y-83833333D01*
X118892857Y-83404761D02*
X119226190Y-83404761D01*
X118702380Y-83523809D02*
X119059523Y-83642857D01*
X119059523Y-83333333D01*
D11*
%TO.C,L1*%
X123383333Y-81102380D02*
X122907142Y-81102380D01*
X122907142Y-80102380D01*
X124240476Y-81102380D02*
X123669047Y-81102380D01*
X123954761Y-81102380D02*
X123954761Y-80102380D01*
X123859523Y-80245238D01*
X123764285Y-80340476D01*
X123669047Y-80388095D01*
D10*
%TO.C,D2*%
X106430952Y-99126190D02*
X106430952Y-98626190D01*
X106550000Y-98626190D01*
X106621428Y-98650000D01*
X106669047Y-98697619D01*
X106692857Y-98745238D01*
X106716666Y-98840476D01*
X106716666Y-98911904D01*
X106692857Y-99007142D01*
X106669047Y-99054761D01*
X106621428Y-99102380D01*
X106550000Y-99126190D01*
X106430952Y-99126190D01*
X106907142Y-98673809D02*
X106930952Y-98650000D01*
X106978571Y-98626190D01*
X107097619Y-98626190D01*
X107145238Y-98650000D01*
X107169047Y-98673809D01*
X107192857Y-98721428D01*
X107192857Y-98769047D01*
X107169047Y-98840476D01*
X106883333Y-99126190D01*
X107192857Y-99126190D01*
%TO.C,R2*%
X106626190Y-95483333D02*
X106388095Y-95650000D01*
X106626190Y-95769047D02*
X106126190Y-95769047D01*
X106126190Y-95578571D01*
X106150000Y-95530952D01*
X106173809Y-95507142D01*
X106221428Y-95483333D01*
X106292857Y-95483333D01*
X106340476Y-95507142D01*
X106364285Y-95530952D01*
X106388095Y-95578571D01*
X106388095Y-95769047D01*
X106173809Y-95292857D02*
X106150000Y-95269047D01*
X106126190Y-95221428D01*
X106126190Y-95102380D01*
X106150000Y-95054761D01*
X106173809Y-95030952D01*
X106221428Y-95007142D01*
X106269047Y-95007142D01*
X106340476Y-95030952D01*
X106626190Y-95316666D01*
X106626190Y-95007142D01*
%TO.C,R1*%
X108626190Y-95483333D02*
X108388095Y-95650000D01*
X108626190Y-95769047D02*
X108126190Y-95769047D01*
X108126190Y-95578571D01*
X108150000Y-95530952D01*
X108173809Y-95507142D01*
X108221428Y-95483333D01*
X108292857Y-95483333D01*
X108340476Y-95507142D01*
X108364285Y-95530952D01*
X108388095Y-95578571D01*
X108388095Y-95769047D01*
X108626190Y-95007142D02*
X108626190Y-95292857D01*
X108626190Y-95150000D02*
X108126190Y-95150000D01*
X108197619Y-95197619D01*
X108245238Y-95245238D01*
X108269047Y-95292857D01*
D11*
%TO.C,BT1*%
X109914285Y-81028571D02*
X110057142Y-81076190D01*
X110104761Y-81123809D01*
X110152380Y-81219047D01*
X110152380Y-81361904D01*
X110104761Y-81457142D01*
X110057142Y-81504761D01*
X109961904Y-81552380D01*
X109580952Y-81552380D01*
X109580952Y-80552380D01*
X109914285Y-80552380D01*
X110009523Y-80600000D01*
X110057142Y-80647619D01*
X110104761Y-80742857D01*
X110104761Y-80838095D01*
X110057142Y-80933333D01*
X110009523Y-80980952D01*
X109914285Y-81028571D01*
X109580952Y-81028571D01*
X110438095Y-80552380D02*
X111009523Y-80552380D01*
X110723809Y-81552380D02*
X110723809Y-80552380D01*
X111866666Y-81552380D02*
X111295238Y-81552380D01*
X111580952Y-81552380D02*
X111580952Y-80552380D01*
X111485714Y-80695238D01*
X111390476Y-80790476D01*
X111295238Y-80838095D01*
D10*
%TO.C,R15*%
X129076190Y-84424553D02*
X128838095Y-84591220D01*
X129076190Y-84710267D02*
X128576190Y-84710267D01*
X128576190Y-84519791D01*
X128600000Y-84472172D01*
X128623809Y-84448363D01*
X128671428Y-84424553D01*
X128742857Y-84424553D01*
X128790476Y-84448363D01*
X128814285Y-84472172D01*
X128838095Y-84519791D01*
X128838095Y-84710267D01*
X129076190Y-83948363D02*
X129076190Y-84234077D01*
X129076190Y-84091220D02*
X128576190Y-84091220D01*
X128647619Y-84138839D01*
X128695238Y-84186458D01*
X128719047Y-84234077D01*
X128576190Y-83495982D02*
X128576190Y-83734077D01*
X128814285Y-83757886D01*
X128790476Y-83734077D01*
X128766666Y-83686458D01*
X128766666Y-83567410D01*
X128790476Y-83519791D01*
X128814285Y-83495982D01*
X128861904Y-83472172D01*
X128980952Y-83472172D01*
X129028571Y-83495982D01*
X129052380Y-83519791D01*
X129076190Y-83567410D01*
X129076190Y-83686458D01*
X129052380Y-83734077D01*
X129028571Y-83757886D01*
%TO.C,R12*%
X126676190Y-94821428D02*
X126438095Y-94988095D01*
X126676190Y-95107142D02*
X126176190Y-95107142D01*
X126176190Y-94916666D01*
X126200000Y-94869047D01*
X126223809Y-94845238D01*
X126271428Y-94821428D01*
X126342857Y-94821428D01*
X126390476Y-94845238D01*
X126414285Y-94869047D01*
X126438095Y-94916666D01*
X126438095Y-95107142D01*
X126676190Y-94345238D02*
X126676190Y-94630952D01*
X126676190Y-94488095D02*
X126176190Y-94488095D01*
X126247619Y-94535714D01*
X126295238Y-94583333D01*
X126319047Y-94630952D01*
X126223809Y-94154761D02*
X126200000Y-94130952D01*
X126176190Y-94083333D01*
X126176190Y-93964285D01*
X126200000Y-93916666D01*
X126223809Y-93892857D01*
X126271428Y-93869047D01*
X126319047Y-93869047D01*
X126390476Y-93892857D01*
X126676190Y-94178571D01*
X126676190Y-93869047D01*
%TO.C,R8*%
X119226190Y-87583333D02*
X118988095Y-87750000D01*
X119226190Y-87869047D02*
X118726190Y-87869047D01*
X118726190Y-87678571D01*
X118750000Y-87630952D01*
X118773809Y-87607142D01*
X118821428Y-87583333D01*
X118892857Y-87583333D01*
X118940476Y-87607142D01*
X118964285Y-87630952D01*
X118988095Y-87678571D01*
X118988095Y-87869047D01*
X118940476Y-87297619D02*
X118916666Y-87345238D01*
X118892857Y-87369047D01*
X118845238Y-87392857D01*
X118821428Y-87392857D01*
X118773809Y-87369047D01*
X118750000Y-87345238D01*
X118726190Y-87297619D01*
X118726190Y-87202380D01*
X118750000Y-87154761D01*
X118773809Y-87130952D01*
X118821428Y-87107142D01*
X118845238Y-87107142D01*
X118892857Y-87130952D01*
X118916666Y-87154761D01*
X118940476Y-87202380D01*
X118940476Y-87297619D01*
X118964285Y-87345238D01*
X118988095Y-87369047D01*
X119035714Y-87392857D01*
X119130952Y-87392857D01*
X119178571Y-87369047D01*
X119202380Y-87345238D01*
X119226190Y-87297619D01*
X119226190Y-87202380D01*
X119202380Y-87154761D01*
X119178571Y-87130952D01*
X119130952Y-87107142D01*
X119035714Y-87107142D01*
X118988095Y-87130952D01*
X118964285Y-87154761D01*
X118940476Y-87202380D01*
%TO.C,R18*%
X129076190Y-87890178D02*
X128838095Y-88056845D01*
X129076190Y-88175892D02*
X128576190Y-88175892D01*
X128576190Y-87985416D01*
X128600000Y-87937797D01*
X128623809Y-87913988D01*
X128671428Y-87890178D01*
X128742857Y-87890178D01*
X128790476Y-87913988D01*
X128814285Y-87937797D01*
X128838095Y-87985416D01*
X128838095Y-88175892D01*
X129076190Y-87413988D02*
X129076190Y-87699702D01*
X129076190Y-87556845D02*
X128576190Y-87556845D01*
X128647619Y-87604464D01*
X128695238Y-87652083D01*
X128719047Y-87699702D01*
X128790476Y-87128273D02*
X128766666Y-87175892D01*
X128742857Y-87199702D01*
X128695238Y-87223511D01*
X128671428Y-87223511D01*
X128623809Y-87199702D01*
X128600000Y-87175892D01*
X128576190Y-87128273D01*
X128576190Y-87033035D01*
X128600000Y-86985416D01*
X128623809Y-86961607D01*
X128671428Y-86937797D01*
X128695238Y-86937797D01*
X128742857Y-86961607D01*
X128766666Y-86985416D01*
X128790476Y-87033035D01*
X128790476Y-87128273D01*
X128814285Y-87175892D01*
X128838095Y-87199702D01*
X128885714Y-87223511D01*
X128980952Y-87223511D01*
X129028571Y-87199702D01*
X129052380Y-87175892D01*
X129076190Y-87128273D01*
X129076190Y-87033035D01*
X129052380Y-86985416D01*
X129028571Y-86961607D01*
X128980952Y-86937797D01*
X128885714Y-86937797D01*
X128838095Y-86961607D01*
X128814285Y-86985416D01*
X128790476Y-87033035D01*
%TO.C,C3*%
X116928571Y-87583333D02*
X116952380Y-87607142D01*
X116976190Y-87678571D01*
X116976190Y-87726190D01*
X116952380Y-87797619D01*
X116904761Y-87845238D01*
X116857142Y-87869047D01*
X116761904Y-87892857D01*
X116690476Y-87892857D01*
X116595238Y-87869047D01*
X116547619Y-87845238D01*
X116500000Y-87797619D01*
X116476190Y-87726190D01*
X116476190Y-87678571D01*
X116500000Y-87607142D01*
X116523809Y-87583333D01*
X116476190Y-87416666D02*
X116476190Y-87107142D01*
X116666666Y-87273809D01*
X116666666Y-87202380D01*
X116690476Y-87154761D01*
X116714285Y-87130952D01*
X116761904Y-87107142D01*
X116880952Y-87107142D01*
X116928571Y-87130952D01*
X116952380Y-87154761D01*
X116976190Y-87202380D01*
X116976190Y-87345238D01*
X116952380Y-87392857D01*
X116928571Y-87416666D01*
%TO.C,R16*%
X129076190Y-80958928D02*
X128838095Y-81125595D01*
X129076190Y-81244642D02*
X128576190Y-81244642D01*
X128576190Y-81054166D01*
X128600000Y-81006547D01*
X128623809Y-80982738D01*
X128671428Y-80958928D01*
X128742857Y-80958928D01*
X128790476Y-80982738D01*
X128814285Y-81006547D01*
X128838095Y-81054166D01*
X128838095Y-81244642D01*
X129076190Y-80482738D02*
X129076190Y-80768452D01*
X129076190Y-80625595D02*
X128576190Y-80625595D01*
X128647619Y-80673214D01*
X128695238Y-80720833D01*
X128719047Y-80768452D01*
X128576190Y-80054166D02*
X128576190Y-80149404D01*
X128600000Y-80197023D01*
X128623809Y-80220833D01*
X128695238Y-80268452D01*
X128790476Y-80292261D01*
X128980952Y-80292261D01*
X129028571Y-80268452D01*
X129052380Y-80244642D01*
X129076190Y-80197023D01*
X129076190Y-80101785D01*
X129052380Y-80054166D01*
X129028571Y-80030357D01*
X128980952Y-80006547D01*
X128861904Y-80006547D01*
X128814285Y-80030357D01*
X128790476Y-80054166D01*
X128766666Y-80101785D01*
X128766666Y-80197023D01*
X128790476Y-80244642D01*
X128814285Y-80268452D01*
X128861904Y-80292261D01*
%TO.C,R3*%
X115376190Y-83833333D02*
X115138095Y-84000000D01*
X115376190Y-84119047D02*
X114876190Y-84119047D01*
X114876190Y-83928571D01*
X114900000Y-83880952D01*
X114923809Y-83857142D01*
X114971428Y-83833333D01*
X115042857Y-83833333D01*
X115090476Y-83857142D01*
X115114285Y-83880952D01*
X115138095Y-83928571D01*
X115138095Y-84119047D01*
X114876190Y-83666666D02*
X114876190Y-83357142D01*
X115066666Y-83523809D01*
X115066666Y-83452380D01*
X115090476Y-83404761D01*
X115114285Y-83380952D01*
X115161904Y-83357142D01*
X115280952Y-83357142D01*
X115328571Y-83380952D01*
X115352380Y-83404761D01*
X115376190Y-83452380D01*
X115376190Y-83595238D01*
X115352380Y-83642857D01*
X115328571Y-83666666D01*
%TO.C,R10*%
X121376190Y-92771428D02*
X121138095Y-92938095D01*
X121376190Y-93057142D02*
X120876190Y-93057142D01*
X120876190Y-92866666D01*
X120900000Y-92819047D01*
X120923809Y-92795238D01*
X120971428Y-92771428D01*
X121042857Y-92771428D01*
X121090476Y-92795238D01*
X121114285Y-92819047D01*
X121138095Y-92866666D01*
X121138095Y-93057142D01*
X121376190Y-92295238D02*
X121376190Y-92580952D01*
X121376190Y-92438095D02*
X120876190Y-92438095D01*
X120947619Y-92485714D01*
X120995238Y-92533333D01*
X121019047Y-92580952D01*
X120876190Y-91985714D02*
X120876190Y-91938095D01*
X120900000Y-91890476D01*
X120923809Y-91866666D01*
X120971428Y-91842857D01*
X121066666Y-91819047D01*
X121185714Y-91819047D01*
X121280952Y-91842857D01*
X121328571Y-91866666D01*
X121352380Y-91890476D01*
X121376190Y-91938095D01*
X121376190Y-91985714D01*
X121352380Y-92033333D01*
X121328571Y-92057142D01*
X121280952Y-92080952D01*
X121185714Y-92104761D01*
X121066666Y-92104761D01*
X120971428Y-92080952D01*
X120923809Y-92057142D01*
X120900000Y-92033333D01*
X120876190Y-91985714D01*
%TO.C,R4*%
X117276190Y-83833333D02*
X117038095Y-84000000D01*
X117276190Y-84119047D02*
X116776190Y-84119047D01*
X116776190Y-83928571D01*
X116800000Y-83880952D01*
X116823809Y-83857142D01*
X116871428Y-83833333D01*
X116942857Y-83833333D01*
X116990476Y-83857142D01*
X117014285Y-83880952D01*
X117038095Y-83928571D01*
X117038095Y-84119047D01*
X116942857Y-83404761D02*
X117276190Y-83404761D01*
X116752380Y-83523809D02*
X117109523Y-83642857D01*
X117109523Y-83333333D01*
%TO.C,R17*%
X129076190Y-91355803D02*
X128838095Y-91522470D01*
X129076190Y-91641517D02*
X128576190Y-91641517D01*
X128576190Y-91451041D01*
X128600000Y-91403422D01*
X128623809Y-91379613D01*
X128671428Y-91355803D01*
X128742857Y-91355803D01*
X128790476Y-91379613D01*
X128814285Y-91403422D01*
X128838095Y-91451041D01*
X128838095Y-91641517D01*
X129076190Y-90879613D02*
X129076190Y-91165327D01*
X129076190Y-91022470D02*
X128576190Y-91022470D01*
X128647619Y-91070089D01*
X128695238Y-91117708D01*
X128719047Y-91165327D01*
X128576190Y-90712946D02*
X128576190Y-90379613D01*
X129076190Y-90593898D01*
%TO.C,R13*%
X115526190Y-79621428D02*
X115288095Y-79788095D01*
X115526190Y-79907142D02*
X115026190Y-79907142D01*
X115026190Y-79716666D01*
X115050000Y-79669047D01*
X115073809Y-79645238D01*
X115121428Y-79621428D01*
X115192857Y-79621428D01*
X115240476Y-79645238D01*
X115264285Y-79669047D01*
X115288095Y-79716666D01*
X115288095Y-79907142D01*
X115526190Y-79145238D02*
X115526190Y-79430952D01*
X115526190Y-79288095D02*
X115026190Y-79288095D01*
X115097619Y-79335714D01*
X115145238Y-79383333D01*
X115169047Y-79430952D01*
X115026190Y-78978571D02*
X115026190Y-78669047D01*
X115216666Y-78835714D01*
X115216666Y-78764285D01*
X115240476Y-78716666D01*
X115264285Y-78692857D01*
X115311904Y-78669047D01*
X115430952Y-78669047D01*
X115478571Y-78692857D01*
X115502380Y-78716666D01*
X115526190Y-78764285D01*
X115526190Y-78907142D01*
X115502380Y-78954761D01*
X115478571Y-78978571D01*
D12*
%TO.C,C6*%
X124235714Y-93203333D02*
X124273809Y-93241428D01*
X124311904Y-93355714D01*
X124311904Y-93431904D01*
X124273809Y-93546190D01*
X124197619Y-93622380D01*
X124121428Y-93660476D01*
X123969047Y-93698571D01*
X123854761Y-93698571D01*
X123702380Y-93660476D01*
X123626190Y-93622380D01*
X123550000Y-93546190D01*
X123511904Y-93431904D01*
X123511904Y-93355714D01*
X123550000Y-93241428D01*
X123588095Y-93203333D01*
X123511904Y-92517619D02*
X123511904Y-92670000D01*
X123550000Y-92746190D01*
X123588095Y-92784285D01*
X123702380Y-92860476D01*
X123854761Y-92898571D01*
X124159523Y-92898571D01*
X124235714Y-92860476D01*
X124273809Y-92822380D01*
X124311904Y-92746190D01*
X124311904Y-92593809D01*
X124273809Y-92517619D01*
X124235714Y-92479523D01*
X124159523Y-92441428D01*
X123969047Y-92441428D01*
X123892857Y-92479523D01*
X123854761Y-92517619D01*
X123816666Y-92593809D01*
X123816666Y-92746190D01*
X123854761Y-92822380D01*
X123892857Y-92860476D01*
X123969047Y-92898571D01*
D11*
%TO.C,J2*%
X121431666Y-98152380D02*
X121431666Y-98866666D01*
X121384047Y-99009523D01*
X121288809Y-99104761D01*
X121145952Y-99152380D01*
X121050714Y-99152380D01*
X121860238Y-98247619D02*
X121907857Y-98200000D01*
X122003095Y-98152380D01*
X122241190Y-98152380D01*
X122336428Y-98200000D01*
X122384047Y-98247619D01*
X122431666Y-98342857D01*
X122431666Y-98438095D01*
X122384047Y-98580952D01*
X121812619Y-99152380D01*
X122431666Y-99152380D01*
%TO.C,U2*%
X122288095Y-87152380D02*
X122288095Y-87961904D01*
X122335714Y-88057142D01*
X122383333Y-88104761D01*
X122478571Y-88152380D01*
X122669047Y-88152380D01*
X122764285Y-88104761D01*
X122811904Y-88057142D01*
X122859523Y-87961904D01*
X122859523Y-87152380D01*
X123288095Y-87247619D02*
X123335714Y-87200000D01*
X123430952Y-87152380D01*
X123669047Y-87152380D01*
X123764285Y-87200000D01*
X123811904Y-87247619D01*
X123859523Y-87342857D01*
X123859523Y-87438095D01*
X123811904Y-87580952D01*
X123240476Y-88152380D01*
X123859523Y-88152380D01*
D10*
%TO.C,R9*%
X117766666Y-90526190D02*
X117600000Y-90288095D01*
X117480952Y-90526190D02*
X117480952Y-90026190D01*
X117671428Y-90026190D01*
X117719047Y-90050000D01*
X117742857Y-90073809D01*
X117766666Y-90121428D01*
X117766666Y-90192857D01*
X117742857Y-90240476D01*
X117719047Y-90264285D01*
X117671428Y-90288095D01*
X117480952Y-90288095D01*
X118004761Y-90526190D02*
X118100000Y-90526190D01*
X118147619Y-90502380D01*
X118171428Y-90478571D01*
X118219047Y-90407142D01*
X118242857Y-90311904D01*
X118242857Y-90121428D01*
X118219047Y-90073809D01*
X118195238Y-90050000D01*
X118147619Y-90026190D01*
X118052380Y-90026190D01*
X118004761Y-90050000D01*
X117980952Y-90073809D01*
X117957142Y-90121428D01*
X117957142Y-90240476D01*
X117980952Y-90288095D01*
X118004761Y-90311904D01*
X118052380Y-90335714D01*
X118147619Y-90335714D01*
X118195238Y-90311904D01*
X118219047Y-90288095D01*
X118242857Y-90240476D01*
D11*
%TO.C,J4*%
X135824880Y-88883333D02*
X136539166Y-88883333D01*
X136682023Y-88930952D01*
X136777261Y-89026190D01*
X136824880Y-89169047D01*
X136824880Y-89264285D01*
X136158214Y-87978571D02*
X136824880Y-87978571D01*
X135777261Y-88216666D02*
X136491547Y-88454761D01*
X136491547Y-87835714D01*
D10*
%TO.C,C1*%
X108278571Y-87333333D02*
X108302380Y-87357142D01*
X108326190Y-87428571D01*
X108326190Y-87476190D01*
X108302380Y-87547619D01*
X108254761Y-87595238D01*
X108207142Y-87619047D01*
X108111904Y-87642857D01*
X108040476Y-87642857D01*
X107945238Y-87619047D01*
X107897619Y-87595238D01*
X107850000Y-87547619D01*
X107826190Y-87476190D01*
X107826190Y-87428571D01*
X107850000Y-87357142D01*
X107873809Y-87333333D01*
X108326190Y-86857142D02*
X108326190Y-87142857D01*
X108326190Y-87000000D02*
X107826190Y-87000000D01*
X107897619Y-87047619D01*
X107945238Y-87095238D01*
X107969047Y-87142857D01*
%TO.C,C2*%
X115378571Y-93703333D02*
X115402380Y-93727142D01*
X115426190Y-93798571D01*
X115426190Y-93846190D01*
X115402380Y-93917619D01*
X115354761Y-93965238D01*
X115307142Y-93989047D01*
X115211904Y-94012857D01*
X115140476Y-94012857D01*
X115045238Y-93989047D01*
X114997619Y-93965238D01*
X114950000Y-93917619D01*
X114926190Y-93846190D01*
X114926190Y-93798571D01*
X114950000Y-93727142D01*
X114973809Y-93703333D01*
X114973809Y-93512857D02*
X114950000Y-93489047D01*
X114926190Y-93441428D01*
X114926190Y-93322380D01*
X114950000Y-93274761D01*
X114973809Y-93250952D01*
X115021428Y-93227142D01*
X115069047Y-93227142D01*
X115140476Y-93250952D01*
X115426190Y-93536666D01*
X115426190Y-93227142D01*
%TO.C,R6*%
X111426190Y-93683333D02*
X111188095Y-93850000D01*
X111426190Y-93969047D02*
X110926190Y-93969047D01*
X110926190Y-93778571D01*
X110950000Y-93730952D01*
X110973809Y-93707142D01*
X111021428Y-93683333D01*
X111092857Y-93683333D01*
X111140476Y-93707142D01*
X111164285Y-93730952D01*
X111188095Y-93778571D01*
X111188095Y-93969047D01*
X110926190Y-93254761D02*
X110926190Y-93350000D01*
X110950000Y-93397619D01*
X110973809Y-93421428D01*
X111045238Y-93469047D01*
X111140476Y-93492857D01*
X111330952Y-93492857D01*
X111378571Y-93469047D01*
X111402380Y-93445238D01*
X111426190Y-93397619D01*
X111426190Y-93302380D01*
X111402380Y-93254761D01*
X111378571Y-93230952D01*
X111330952Y-93207142D01*
X111211904Y-93207142D01*
X111164285Y-93230952D01*
X111140476Y-93254761D01*
X111116666Y-93302380D01*
X111116666Y-93397619D01*
X111140476Y-93445238D01*
X111164285Y-93469047D01*
X111211904Y-93492857D01*
%TO.C,C5*%
X126928571Y-87633333D02*
X126952380Y-87657142D01*
X126976190Y-87728571D01*
X126976190Y-87776190D01*
X126952380Y-87847619D01*
X126904761Y-87895238D01*
X126857142Y-87919047D01*
X126761904Y-87942857D01*
X126690476Y-87942857D01*
X126595238Y-87919047D01*
X126547619Y-87895238D01*
X126500000Y-87847619D01*
X126476190Y-87776190D01*
X126476190Y-87728571D01*
X126500000Y-87657142D01*
X126523809Y-87633333D01*
X126476190Y-87180952D02*
X126476190Y-87419047D01*
X126714285Y-87442857D01*
X126690476Y-87419047D01*
X126666666Y-87371428D01*
X126666666Y-87252380D01*
X126690476Y-87204761D01*
X126714285Y-87180952D01*
X126761904Y-87157142D01*
X126880952Y-87157142D01*
X126928571Y-87180952D01*
X126952380Y-87204761D01*
X126976190Y-87252380D01*
X126976190Y-87371428D01*
X126952380Y-87419047D01*
X126928571Y-87442857D01*
%TO.C,D3*%
X106476190Y-79669047D02*
X105976190Y-79669047D01*
X105976190Y-79550000D01*
X106000000Y-79478571D01*
X106047619Y-79430952D01*
X106095238Y-79407142D01*
X106190476Y-79383333D01*
X106261904Y-79383333D01*
X106357142Y-79407142D01*
X106404761Y-79430952D01*
X106452380Y-79478571D01*
X106476190Y-79550000D01*
X106476190Y-79669047D01*
X105976190Y-79216666D02*
X105976190Y-78907142D01*
X106166666Y-79073809D01*
X106166666Y-79002380D01*
X106190476Y-78954761D01*
X106214285Y-78930952D01*
X106261904Y-78907142D01*
X106380952Y-78907142D01*
X106428571Y-78930952D01*
X106452380Y-78954761D01*
X106476190Y-79002380D01*
X106476190Y-79145238D01*
X106452380Y-79192857D01*
X106428571Y-79216666D01*
%TO.C,R7*%
X108276190Y-90833333D02*
X108038095Y-91000000D01*
X108276190Y-91119047D02*
X107776190Y-91119047D01*
X107776190Y-90928571D01*
X107800000Y-90880952D01*
X107823809Y-90857142D01*
X107871428Y-90833333D01*
X107942857Y-90833333D01*
X107990476Y-90857142D01*
X108014285Y-90880952D01*
X108038095Y-90928571D01*
X108038095Y-91119047D01*
X107776190Y-90666666D02*
X107776190Y-90333333D01*
X108276190Y-90547619D01*
D11*
%TO.C,H2*%
X102088095Y-97902380D02*
X102088095Y-96902380D01*
X102088095Y-97378571D02*
X102659523Y-97378571D01*
X102659523Y-97902380D02*
X102659523Y-96902380D01*
X103088095Y-96997619D02*
X103135714Y-96950000D01*
X103230952Y-96902380D01*
X103469047Y-96902380D01*
X103564285Y-96950000D01*
X103611904Y-96997619D01*
X103659523Y-97092857D01*
X103659523Y-97188095D01*
X103611904Y-97330952D01*
X103040476Y-97902380D01*
X103659523Y-97902380D01*
D10*
%TO.C,R5*%
X113326190Y-93683333D02*
X113088095Y-93850000D01*
X113326190Y-93969047D02*
X112826190Y-93969047D01*
X112826190Y-93778571D01*
X112850000Y-93730952D01*
X112873809Y-93707142D01*
X112921428Y-93683333D01*
X112992857Y-93683333D01*
X113040476Y-93707142D01*
X113064285Y-93730952D01*
X113088095Y-93778571D01*
X113088095Y-93969047D01*
X112826190Y-93230952D02*
X112826190Y-93469047D01*
X113064285Y-93492857D01*
X113040476Y-93469047D01*
X113016666Y-93421428D01*
X113016666Y-93302380D01*
X113040476Y-93254761D01*
X113064285Y-93230952D01*
X113111904Y-93207142D01*
X113230952Y-93207142D01*
X113278571Y-93230952D01*
X113302380Y-93254761D01*
X113326190Y-93302380D01*
X113326190Y-93421428D01*
X113302380Y-93469047D01*
X113278571Y-93492857D01*
%TO.C,D1*%
X109730952Y-99126190D02*
X109730952Y-98626190D01*
X109850000Y-98626190D01*
X109921428Y-98650000D01*
X109969047Y-98697619D01*
X109992857Y-98745238D01*
X110016666Y-98840476D01*
X110016666Y-98911904D01*
X109992857Y-99007142D01*
X109969047Y-99054761D01*
X109921428Y-99102380D01*
X109850000Y-99126190D01*
X109730952Y-99126190D01*
X110492857Y-99126190D02*
X110207142Y-99126190D01*
X110350000Y-99126190D02*
X110350000Y-98626190D01*
X110302380Y-98697619D01*
X110254761Y-98745238D01*
X110207142Y-98769047D01*
D13*
%TO.C,Q1*%
X118375238Y-79580476D02*
X118360000Y-79610952D01*
X118329523Y-79641428D01*
X118283809Y-79687142D01*
X118268571Y-79717619D01*
X118268571Y-79748095D01*
X118344761Y-79732857D02*
X118329523Y-79763333D01*
X118299047Y-79793809D01*
X118238095Y-79809047D01*
X118131428Y-79809047D01*
X118070476Y-79793809D01*
X118040000Y-79763333D01*
X118024761Y-79732857D01*
X118024761Y-79671904D01*
X118040000Y-79641428D01*
X118070476Y-79610952D01*
X118131428Y-79595714D01*
X118238095Y-79595714D01*
X118299047Y-79610952D01*
X118329523Y-79641428D01*
X118344761Y-79671904D01*
X118344761Y-79732857D01*
X118344761Y-79290952D02*
X118344761Y-79473809D01*
X118344761Y-79382380D02*
X118024761Y-79382380D01*
X118070476Y-79412857D01*
X118100952Y-79443333D01*
X118116190Y-79473809D01*
D10*
%TO.C,D4*%
X133280952Y-98426190D02*
X133280952Y-97926190D01*
X133400000Y-97926190D01*
X133471428Y-97950000D01*
X133519047Y-97997619D01*
X133542857Y-98045238D01*
X133566666Y-98140476D01*
X133566666Y-98211904D01*
X133542857Y-98307142D01*
X133519047Y-98354761D01*
X133471428Y-98402380D01*
X133400000Y-98426190D01*
X133280952Y-98426190D01*
X133995238Y-98092857D02*
X133995238Y-98426190D01*
X133876190Y-97902380D02*
X133757142Y-98259523D01*
X134066666Y-98259523D01*
D11*
%TO.C,U1*%
X112302380Y-89761904D02*
X113111904Y-89761904D01*
X113207142Y-89714285D01*
X113254761Y-89666666D01*
X113302380Y-89571428D01*
X113302380Y-89380952D01*
X113254761Y-89285714D01*
X113207142Y-89238095D01*
X113111904Y-89190476D01*
X112302380Y-89190476D01*
X113302380Y-88190476D02*
X113302380Y-88761904D01*
X113302380Y-88476190D02*
X112302380Y-88476190D01*
X112445238Y-88571428D01*
X112540476Y-88666666D01*
X112588095Y-88761904D01*
D10*
%TO.C,R11*%
X126946190Y-91321428D02*
X126708095Y-91488095D01*
X126946190Y-91607142D02*
X126446190Y-91607142D01*
X126446190Y-91416666D01*
X126470000Y-91369047D01*
X126493809Y-91345238D01*
X126541428Y-91321428D01*
X126612857Y-91321428D01*
X126660476Y-91345238D01*
X126684285Y-91369047D01*
X126708095Y-91416666D01*
X126708095Y-91607142D01*
X126946190Y-90845238D02*
X126946190Y-91130952D01*
X126946190Y-90988095D02*
X126446190Y-90988095D01*
X126517619Y-91035714D01*
X126565238Y-91083333D01*
X126589047Y-91130952D01*
X126946190Y-90369047D02*
X126946190Y-90654761D01*
X126946190Y-90511904D02*
X126446190Y-90511904D01*
X126517619Y-90559523D01*
X126565238Y-90607142D01*
X126589047Y-90654761D01*
D11*
%TO.C,J1*%
X102152380Y-88883333D02*
X102866666Y-88883333D01*
X103009523Y-88930952D01*
X103104761Y-89026190D01*
X103152380Y-89169047D01*
X103152380Y-89264285D01*
X103152380Y-87883333D02*
X103152380Y-88454761D01*
X103152380Y-88169047D02*
X102152380Y-88169047D01*
X102295238Y-88264285D01*
X102390476Y-88359523D01*
X102438095Y-88454761D01*
%TO.C,H1*%
X102088095Y-80102380D02*
X102088095Y-79102380D01*
X102088095Y-79578571D02*
X102659523Y-79578571D01*
X102659523Y-80102380D02*
X102659523Y-79102380D01*
X103659523Y-80102380D02*
X103088095Y-80102380D01*
X103373809Y-80102380D02*
X103373809Y-79102380D01*
X103278571Y-79245238D01*
X103183333Y-79340476D01*
X103088095Y-79388095D01*
D10*
%TO.C,R14*%
X129076190Y-94821428D02*
X128838095Y-94988095D01*
X129076190Y-95107142D02*
X128576190Y-95107142D01*
X128576190Y-94916666D01*
X128600000Y-94869047D01*
X128623809Y-94845238D01*
X128671428Y-94821428D01*
X128742857Y-94821428D01*
X128790476Y-94845238D01*
X128814285Y-94869047D01*
X128838095Y-94916666D01*
X128838095Y-95107142D01*
X129076190Y-94345238D02*
X129076190Y-94630952D01*
X129076190Y-94488095D02*
X128576190Y-94488095D01*
X128647619Y-94535714D01*
X128695238Y-94583333D01*
X128719047Y-94630952D01*
X128742857Y-93916666D02*
X129076190Y-93916666D01*
X128552380Y-94035714D02*
X128909523Y-94154761D01*
X128909523Y-93845238D01*
D14*
%TO.C,C4*%
X118375000Y-84750000D02*
X118375000Y-82750000D01*
X118375000Y-82750000D02*
X119625000Y-82750000D01*
X119625000Y-82750000D02*
X119625000Y-84750000D01*
X119625000Y-84750000D02*
X118375000Y-84750000D01*
%TO.C,L1*%
X126050000Y-83150000D02*
X121050000Y-83150000D01*
X126050000Y-78150000D02*
X126050000Y-83150000D01*
X121050000Y-83150000D02*
X121050000Y-78150000D01*
X121050000Y-78150000D02*
X126050000Y-78150000D01*
X126050000Y-80650000D02*
G75*
G03*
X126050000Y-80650000I-2500000J0D01*
G01*
%TO.C,D2*%
X107800000Y-98300000D02*
X106100000Y-98300000D01*
X105800000Y-98600000D02*
X105800000Y-99500000D01*
X106100000Y-98300000D02*
X105800000Y-98600000D01*
X107800000Y-99500000D02*
X107800000Y-98300000D01*
X105800000Y-99500000D02*
X107800000Y-99500000D01*
%TO.C,R2*%
X105775000Y-94400000D02*
X107025000Y-94400000D01*
X107025000Y-94400000D02*
X107025000Y-96400000D01*
X107025000Y-96400000D02*
X105775000Y-96400000D01*
X105775000Y-96400000D02*
X105775000Y-94400000D01*
%TO.C,R1*%
X107775000Y-94400000D02*
X109025000Y-94400000D01*
X109025000Y-94400000D02*
X109025000Y-96400000D01*
X109025000Y-96400000D02*
X107775000Y-96400000D01*
X107775000Y-96400000D02*
X107775000Y-94400000D01*
%TO.C,BT1*%
X111200000Y-82225000D02*
X111700000Y-82725000D01*
X107750000Y-84950000D02*
X108450000Y-84950000D01*
X108450000Y-83350000D02*
X112950000Y-83350000D01*
X113650000Y-77350000D02*
X107750000Y-77350000D01*
X111700000Y-82725000D02*
X112200000Y-82225000D01*
X112200000Y-82225000D02*
X111200000Y-82225000D01*
X107750000Y-77350000D02*
X107750000Y-84950000D01*
X112950000Y-83350000D02*
X112950000Y-84950000D01*
X108450000Y-84950000D02*
X108450000Y-83350000D01*
X113650000Y-84950000D02*
X113650000Y-77350000D01*
X112950000Y-84950000D02*
X113650000Y-84950000D01*
%TO.C,R15*%
X128225000Y-83103125D02*
X129475000Y-83103125D01*
X129475000Y-83103125D02*
X129475000Y-85103125D01*
X128225000Y-85103125D02*
X128225000Y-83103125D01*
X129475000Y-85103125D02*
X128225000Y-85103125D01*
%TO.C,R12*%
X127075000Y-93500000D02*
X127075000Y-95500000D01*
X127075000Y-95500000D02*
X125825000Y-95500000D01*
X125825000Y-95500000D02*
X125825000Y-93500000D01*
X125825000Y-93500000D02*
X127075000Y-93500000D01*
%TO.C,R8*%
X119625000Y-88500000D02*
X118375000Y-88500000D01*
X118375000Y-86500000D02*
X119625000Y-86500000D01*
X118375000Y-88500000D02*
X118375000Y-86500000D01*
X119625000Y-86500000D02*
X119625000Y-88500000D01*
%TO.C,R18*%
X128225000Y-86568750D02*
X129475000Y-86568750D01*
X128225000Y-88568750D02*
X128225000Y-86568750D01*
X129475000Y-86568750D02*
X129475000Y-88568750D01*
X129475000Y-88568750D02*
X128225000Y-88568750D01*
%TO.C,C3*%
X116125000Y-86500000D02*
X117375000Y-86500000D01*
X117375000Y-88500000D02*
X116125000Y-88500000D01*
X116125000Y-88500000D02*
X116125000Y-86500000D01*
X117375000Y-86500000D02*
X117375000Y-88500000D01*
%TO.C,R16*%
X128225000Y-79637500D02*
X129475000Y-79637500D01*
X129475000Y-79637500D02*
X129475000Y-81637500D01*
X129475000Y-81637500D02*
X128225000Y-81637500D01*
X128225000Y-81637500D02*
X128225000Y-79637500D01*
%TO.C,R3*%
X115775000Y-84750000D02*
X114525000Y-84750000D01*
X115775000Y-82750000D02*
X115775000Y-84750000D01*
X114525000Y-82750000D02*
X115775000Y-82750000D01*
X114525000Y-84750000D02*
X114525000Y-82750000D01*
%TO.C,R10*%
X120525000Y-93450000D02*
X120525000Y-91450000D01*
X120525000Y-91450000D02*
X121775000Y-91450000D01*
X121775000Y-91450000D02*
X121775000Y-93450000D01*
X121775000Y-93450000D02*
X120525000Y-93450000D01*
%TO.C,R4*%
X117675000Y-82750000D02*
X117675000Y-84750000D01*
X116425000Y-84750000D02*
X116425000Y-82750000D01*
X116425000Y-82750000D02*
X117675000Y-82750000D01*
X117675000Y-84750000D02*
X116425000Y-84750000D01*
%TO.C,R17*%
X129475000Y-90034375D02*
X129475000Y-92034375D01*
X128225000Y-90034375D02*
X129475000Y-90034375D01*
X128225000Y-92034375D02*
X128225000Y-90034375D01*
X129475000Y-92034375D02*
X128225000Y-92034375D01*
%TO.C,R13*%
X115925000Y-80300000D02*
X114675000Y-80300000D01*
X115925000Y-78300000D02*
X115925000Y-80300000D01*
X114675000Y-80300000D02*
X114675000Y-78300000D01*
X114675000Y-78300000D02*
X115925000Y-78300000D01*
%TO.C,C6*%
X122700000Y-94670000D02*
X122700000Y-91470000D01*
X122700000Y-91470000D02*
X125200000Y-91470000D01*
X125200000Y-91470000D02*
X125200000Y-94670000D01*
X125200000Y-94670000D02*
X122700000Y-94670000D01*
%TO.C,J2*%
X111605000Y-99335000D02*
X111605000Y-97430000D01*
X131925000Y-99970000D02*
X112240000Y-99970000D01*
X112240000Y-99970000D02*
X111605000Y-99335000D01*
X131925000Y-97430000D02*
X131925000Y-99970000D01*
X111605000Y-97430000D02*
X131925000Y-97430000D01*
%TO.C,U2*%
X125050000Y-88700000D02*
X124050000Y-89700000D01*
X124050000Y-89700000D02*
X121050000Y-89700000D01*
X125050000Y-85700000D02*
X125050000Y-88700000D01*
X121050000Y-85700000D02*
X125050000Y-85700000D01*
X121050000Y-89700000D02*
X121050000Y-85700000D01*
%TO.C,R9*%
X116850000Y-90925000D02*
X116850000Y-89675000D01*
X118850000Y-90925000D02*
X116850000Y-90925000D01*
X116850000Y-89675000D02*
X118850000Y-89675000D01*
X118850000Y-89675000D02*
X118850000Y-90925000D01*
%TO.C,J4*%
X131242500Y-95800000D02*
X144362500Y-95800000D01*
X130362500Y-94920000D02*
X131242500Y-95800000D01*
X130362500Y-94920000D02*
X130362500Y-81300000D01*
X144362500Y-95800000D02*
X144362500Y-81300000D01*
X130362500Y-81300000D02*
X144362500Y-81300000D01*
%TO.C,C1*%
X108725000Y-86250000D02*
X108725000Y-88250000D01*
X107475000Y-88250000D02*
X107475000Y-86250000D01*
X107475000Y-86250000D02*
X108725000Y-86250000D01*
X108725000Y-88250000D02*
X107475000Y-88250000D01*
%TO.C,C2*%
X114575000Y-94620000D02*
X114575000Y-92620000D01*
X115825000Y-94620000D02*
X114575000Y-94620000D01*
X114575000Y-92620000D02*
X115825000Y-92620000D01*
X115825000Y-92620000D02*
X115825000Y-94620000D01*
%TO.C,R6*%
X110575000Y-92600000D02*
X111825000Y-92600000D01*
X111825000Y-92600000D02*
X111825000Y-94600000D01*
X110575000Y-94600000D02*
X110575000Y-92600000D01*
X111825000Y-94600000D02*
X110575000Y-94600000D01*
%TO.C,C5*%
X126125000Y-86550000D02*
X127375000Y-86550000D01*
X127375000Y-86550000D02*
X127375000Y-88550000D01*
X126125000Y-88550000D02*
X126125000Y-86550000D01*
X127375000Y-88550000D02*
X126125000Y-88550000D01*
%TO.C,D3*%
X106850000Y-80300000D02*
X106850000Y-78300000D01*
X105650000Y-78300000D02*
X105650000Y-80000000D01*
X105650000Y-80000000D02*
X105950000Y-80300000D01*
X106850000Y-78300000D02*
X105650000Y-78300000D01*
X105950000Y-80300000D02*
X106850000Y-80300000D01*
%TO.C,R7*%
X107425000Y-91750000D02*
X107425000Y-89750000D01*
X108675000Y-89750000D02*
X108675000Y-91750000D01*
X108675000Y-91750000D02*
X107425000Y-91750000D01*
X107425000Y-89750000D02*
X108675000Y-89750000D01*
%TO.C,R5*%
X112475000Y-92600000D02*
X113725000Y-92600000D01*
X113725000Y-94600000D02*
X112475000Y-94600000D01*
X113725000Y-92600000D02*
X113725000Y-94600000D01*
X112475000Y-94600000D02*
X112475000Y-92600000D01*
%TO.C,D1*%
X111100000Y-99200000D02*
X111100000Y-98300000D01*
X109100000Y-98300000D02*
X109100000Y-99500000D01*
X110800000Y-99500000D02*
X111100000Y-99200000D01*
X111100000Y-98300000D02*
X109100000Y-98300000D01*
X109100000Y-99500000D02*
X110800000Y-99500000D01*
%TO.C,Q1*%
X119650000Y-78900000D02*
X119650000Y-80200000D01*
X119650000Y-80200000D02*
X117075000Y-80200000D01*
X117075000Y-80200000D02*
X116750000Y-79875000D01*
X116750000Y-79875000D02*
X116750000Y-78900000D01*
X116750000Y-78900000D02*
X119650000Y-78900000D01*
%TO.C,D4*%
X134650000Y-98500000D02*
X134650000Y-97600000D01*
X134350000Y-98800000D02*
X134650000Y-98500000D01*
X132650000Y-98800000D02*
X134350000Y-98800000D01*
X132650000Y-97600000D02*
X132650000Y-98800000D01*
X134650000Y-97600000D02*
X132650000Y-97600000D01*
%TO.C,U1*%
X110850000Y-91000000D02*
X110850000Y-87000000D01*
X113850000Y-87000000D02*
X114850000Y-88000000D01*
X110850000Y-87000000D02*
X113850000Y-87000000D01*
X114850000Y-91000000D02*
X110850000Y-91000000D01*
X114850000Y-88000000D02*
X114850000Y-91000000D01*
%TO.C,R11*%
X127345000Y-90000000D02*
X127345000Y-92000000D01*
X127345000Y-92000000D02*
X126095000Y-92000000D01*
X126095000Y-90000000D02*
X127345000Y-90000000D01*
X126095000Y-92000000D02*
X126095000Y-90000000D01*
D11*
%TO.C,J1*%
X106300000Y-87250000D02*
X106475000Y-87025000D01*
X99400000Y-84850000D02*
X99400000Y-92250000D01*
X106475000Y-87475000D02*
X106300000Y-87250000D01*
X106700000Y-87025000D02*
X106700000Y-87475000D01*
X99400000Y-92250000D02*
X100600000Y-92250000D01*
X106475000Y-87025000D02*
X106700000Y-87025000D01*
X100600000Y-92550000D02*
X106000000Y-92550000D01*
X106000000Y-92550000D02*
X106000000Y-84550000D01*
X100600000Y-92250000D02*
X100600000Y-92550000D01*
X106000000Y-84550000D02*
X100600000Y-84550000D01*
X106700000Y-87475000D02*
X106475000Y-87475000D01*
X100600000Y-84850000D02*
X99400000Y-84850000D01*
X100600000Y-84550000D02*
X100600000Y-84850000D01*
X100000000Y-85850000D02*
X100000000Y-91250000D01*
D14*
%TO.C,R14*%
X128225000Y-93500000D02*
X129475000Y-93500000D01*
X129475000Y-93500000D02*
X129475000Y-95500000D01*
X128225000Y-95500000D02*
X128225000Y-93500000D01*
X129475000Y-95500000D02*
X128225000Y-95500000D01*
%TD*%
M02*
