%TF.GenerationSoftware,KiCad,Pcbnew,(5.99.0-10766-geeb405c196)*%
%TF.CreationDate,2021-06-19T10:41:35+04:00*%
%TF.ProjectId,Adafruit-PowerBoost-1000C,41646166-7275-4697-942d-506f77657242,rev?*%
%TF.SameCoordinates,Original*%
%TF.FileFunction,Copper,L1,Top*%
%TF.FilePolarity,Positive*%
%FSLAX46Y46*%
G04 Gerber Fmt 4.6, Leading zero omitted, Abs format (unit mm)*
G04 Created by KiCad (PCBNEW (5.99.0-10766-geeb405c196)) date 2021-06-19 10:41:35*
%MOMM*%
%LPD*%
G01*
G04 APERTURE LIST*
G04 Aperture macros list*
%AMRoundRect*
0 Rectangle with rounded corners*
0 $1 Rounding radius*
0 $2 $3 $4 $5 $6 $7 $8 $9 X,Y pos of 4 corners*
0 Add a 4 corners polygon primitive as box body*
4,1,4,$2,$3,$4,$5,$6,$7,$8,$9,$2,$3,0*
0 Add four circle primitives for the rounded corners*
1,1,$1+$1,$2,$3*
1,1,$1+$1,$4,$5*
1,1,$1+$1,$6,$7*
1,1,$1+$1,$8,$9*
0 Add four rect primitives between the rounded corners*
20,1,$1+$1,$2,$3,$4,$5,0*
20,1,$1+$1,$4,$5,$6,$7,0*
20,1,$1+$1,$6,$7,$8,$9,0*
20,1,$1+$1,$8,$9,$2,$3,0*%
G04 Aperture macros list end*
%TA.AperFunction,SMDPad,CuDef*%
%ADD10RoundRect,0.250000X0.475000X-0.250000X0.475000X0.250000X-0.475000X0.250000X-0.475000X-0.250000X0*%
%TD*%
%TA.AperFunction,SMDPad,CuDef*%
%ADD11R,2.100000X5.000000*%
%TD*%
%TA.AperFunction,SMDPad,CuDef*%
%ADD12RoundRect,0.243750X-0.243750X-0.456250X0.243750X-0.456250X0.243750X0.456250X-0.243750X0.456250X0*%
%TD*%
%TA.AperFunction,SMDPad,CuDef*%
%ADD13RoundRect,0.250000X0.450000X-0.262500X0.450000X0.262500X-0.450000X0.262500X-0.450000X-0.262500X0*%
%TD*%
%TA.AperFunction,ComponentPad*%
%ADD14RoundRect,0.250000X0.350000X0.625000X-0.350000X0.625000X-0.350000X-0.625000X0.350000X-0.625000X0*%
%TD*%
%TA.AperFunction,ComponentPad*%
%ADD15O,1.200000X1.750000*%
%TD*%
%TA.AperFunction,SMDPad,CuDef*%
%ADD16RoundRect,0.250000X-0.450000X0.262500X-0.450000X-0.262500X0.450000X-0.262500X0.450000X0.262500X0*%
%TD*%
%TA.AperFunction,SMDPad,CuDef*%
%ADD17RoundRect,0.250000X-0.475000X0.250000X-0.475000X-0.250000X0.475000X-0.250000X0.475000X0.250000X0*%
%TD*%
%TA.AperFunction,SMDPad,CuDef*%
%ADD18RoundRect,0.250000X-1.100000X0.325000X-1.100000X-0.325000X1.100000X-0.325000X1.100000X0.325000X0*%
%TD*%
%TA.AperFunction,ComponentPad*%
%ADD19R,1.700000X1.700000*%
%TD*%
%TA.AperFunction,ComponentPad*%
%ADD20O,1.700000X1.700000*%
%TD*%
%TA.AperFunction,SMDPad,CuDef*%
%ADD21RoundRect,0.087500X0.325000X0.087500X-0.325000X0.087500X-0.325000X-0.087500X0.325000X-0.087500X0*%
%TD*%
%TA.AperFunction,SMDPad,CuDef*%
%ADD22RoundRect,0.087500X0.087500X0.325000X-0.087500X0.325000X-0.087500X-0.325000X0.087500X-0.325000X0*%
%TD*%
%TA.AperFunction,SMDPad,CuDef*%
%ADD23R,2.700000X2.700000*%
%TD*%
%TA.AperFunction,ComponentPad*%
%ADD24C,0.500000*%
%TD*%
%TA.AperFunction,SMDPad,CuDef*%
%ADD25RoundRect,0.250000X0.262500X0.450000X-0.262500X0.450000X-0.262500X-0.450000X0.262500X-0.450000X0*%
%TD*%
%TA.AperFunction,ComponentPad*%
%ADD26R,1.524000X1.524000*%
%TD*%
%TA.AperFunction,ComponentPad*%
%ADD27C,1.524000*%
%TD*%
%TA.AperFunction,ComponentPad*%
%ADD28C,3.500000*%
%TD*%
%TA.AperFunction,SMDPad,CuDef*%
%ADD29RoundRect,0.243750X0.456250X-0.243750X0.456250X0.243750X-0.456250X0.243750X-0.456250X-0.243750X0*%
%TD*%
%TA.AperFunction,ComponentPad*%
%ADD30C,5.000000*%
%TD*%
%TA.AperFunction,SMDPad,CuDef*%
%ADD31RoundRect,0.243750X0.243750X0.456250X-0.243750X0.456250X-0.243750X-0.456250X0.243750X-0.456250X0*%
%TD*%
%TA.AperFunction,SMDPad,CuDef*%
%ADD32RoundRect,0.150000X0.150000X-0.587500X0.150000X0.587500X-0.150000X0.587500X-0.150000X-0.587500X0*%
%TD*%
%TA.AperFunction,SMDPad,CuDef*%
%ADD33RoundRect,0.062500X-0.062500X0.350000X-0.062500X-0.350000X0.062500X-0.350000X0.062500X0.350000X0*%
%TD*%
%TA.AperFunction,SMDPad,CuDef*%
%ADD34RoundRect,0.062500X-0.350000X0.062500X-0.350000X-0.062500X0.350000X-0.062500X0.350000X0.062500X0*%
%TD*%
%TA.AperFunction,ComponentPad*%
%ADD35O,0.600000X0.600000*%
%TD*%
%TA.AperFunction,SMDPad,CuDef*%
%ADD36R,2.500000X2.500000*%
%TD*%
%TA.AperFunction,SMDPad,CuDef*%
%ADD37R,1.300000X0.450000*%
%TD*%
%TA.AperFunction,ComponentPad*%
%ADD38O,2.000000X1.450000*%
%TD*%
%TA.AperFunction,ComponentPad*%
%ADD39O,1.800000X1.150000*%
%TD*%
%TA.AperFunction,ComponentPad*%
%ADD40RoundRect,0.250000X-0.625000X0.350000X-0.625000X-0.350000X0.625000X-0.350000X0.625000X0.350000X0*%
%TD*%
%TA.AperFunction,ComponentPad*%
%ADD41O,1.750000X1.200000*%
%TD*%
%TA.AperFunction,ViaPad*%
%ADD42C,0.800000*%
%TD*%
%TA.AperFunction,Conductor*%
%ADD43C,0.500000*%
%TD*%
%TA.AperFunction,Conductor*%
%ADD44C,0.250000*%
%TD*%
%TA.AperFunction,Conductor*%
%ADD45C,0.400000*%
%TD*%
G04 APERTURE END LIST*
D10*
%TO.P,C4,1*%
%TO.N,/+V_BAT*%
X119000000Y-84700000D03*
%TO.P,C4,2*%
%TO.N,GND*%
X119000000Y-82800000D03*
%TD*%
D11*
%TO.P,L1,1,1*%
%TO.N,/+V_BAT*%
X121950000Y-80650000D03*
%TO.P,L1,2,2*%
%TO.N,Net-(L1-Pad2)*%
X125150000Y-80650000D03*
%TD*%
D12*
%TO.P,D2,1,K*%
%TO.N,Net-(D2-Pad1)*%
X105862500Y-98900000D03*
%TO.P,D2,2,A*%
%TO.N,+5V*%
X107737500Y-98900000D03*
%TD*%
D13*
%TO.P,R2,1*%
%TO.N,Net-(D2-Pad1)*%
X106400000Y-96312500D03*
%TO.P,R2,2*%
%TO.N,Net-(R2-Pad2)*%
X106400000Y-94487500D03*
%TD*%
%TO.P,R1,1*%
%TO.N,Net-(D1-Pad1)*%
X108400000Y-96312500D03*
%TO.P,R1,2*%
%TO.N,Net-(R1-Pad2)*%
X108400000Y-94487500D03*
%TD*%
D14*
%TO.P,BT1,1,+*%
%TO.N,/+V_LIPO*%
X111700000Y-83600000D03*
D15*
%TO.P,BT1,2,-*%
%TO.N,GND*%
X109700000Y-83600000D03*
%TD*%
D13*
%TO.P,R15,1*%
%TO.N,/+5V_OUT*%
X128850000Y-85015625D03*
%TO.P,R15,2*%
%TO.N,Net-(J4-Pad3)*%
X128850000Y-83190625D03*
%TD*%
D16*
%TO.P,R12,1*%
%TO.N,Net-(R11-Pad2)*%
X126450000Y-93587500D03*
%TO.P,R12,2*%
%TO.N,GND*%
X126450000Y-95412500D03*
%TD*%
%TO.P,R8,1*%
%TO.N,/+V_BAT*%
X119000000Y-86587500D03*
%TO.P,R8,2*%
%TO.N,Net-(R8-Pad2)*%
X119000000Y-88412500D03*
%TD*%
%TO.P,R18,1*%
%TO.N,GND*%
X128850000Y-86656250D03*
%TO.P,R18,2*%
%TO.N,Net-(J4-Pad2)*%
X128850000Y-88481250D03*
%TD*%
D17*
%TO.P,C3,1*%
%TO.N,/+V_BAT*%
X116750000Y-86550000D03*
%TO.P,C3,2*%
%TO.N,GND*%
X116750000Y-88450000D03*
%TD*%
D16*
%TO.P,R16,1*%
%TO.N,GND*%
X128850000Y-79725000D03*
%TO.P,R16,2*%
%TO.N,Net-(J4-Pad3)*%
X128850000Y-81550000D03*
%TD*%
D13*
%TO.P,R3,1*%
%TO.N,Net-(R3-Pad1)*%
X115150000Y-84662500D03*
%TO.P,R3,2*%
%TO.N,+5V*%
X115150000Y-82837500D03*
%TD*%
%TO.P,R10,1*%
%TO.N,/+V_BAT*%
X121150000Y-93362500D03*
%TO.P,R10,2*%
%TO.N,/ENABLE*%
X121150000Y-91537500D03*
%TD*%
%TO.P,R4,1*%
%TO.N,Net-(R3-Pad1)*%
X117050000Y-84662500D03*
%TO.P,R4,2*%
%TO.N,GND*%
X117050000Y-82837500D03*
%TD*%
%TO.P,R17,1*%
%TO.N,/+5V_OUT*%
X128850000Y-91946875D03*
%TO.P,R17,2*%
%TO.N,Net-(J4-Pad2)*%
X128850000Y-90121875D03*
%TD*%
D16*
%TO.P,R13,1*%
%TO.N,Net-(Q1-Pad3)*%
X115300000Y-78387500D03*
%TO.P,R13,2*%
%TO.N,Net-(D3-Pad2)*%
X115300000Y-80212500D03*
%TD*%
D18*
%TO.P,C6,1*%
%TO.N,/+5V_OUT*%
X123950000Y-91595000D03*
%TO.P,C6,2*%
%TO.N,GND*%
X123950000Y-94545000D03*
%TD*%
D19*
%TO.P,J2,1,Pin_1*%
%TO.N,+5V*%
X112875000Y-98700000D03*
D20*
%TO.P,J2,2,Pin_2*%
%TO.N,/+V_BAT*%
X115415000Y-98700000D03*
%TO.P,J2,3,Pin_3*%
%TO.N,/+V_LIPO*%
X117955000Y-98700000D03*
%TO.P,J2,4,Pin_4*%
%TO.N,/ENABLE*%
X120495000Y-98700000D03*
%TO.P,J2,5,Pin_5*%
%TO.N,GND*%
X123035000Y-98700000D03*
%TO.P,J2,6,Pin_6*%
%TO.N,/LBO*%
X125575000Y-98700000D03*
%TO.P,J2,7,Pin_7*%
%TO.N,GND*%
X128115000Y-98700000D03*
%TO.P,J2,8,Pin_8*%
%TO.N,/+5V_OUT*%
X130655000Y-98700000D03*
%TD*%
D21*
%TO.P,U2,1,VOUT*%
%TO.N,/+5V_OUT*%
X125012500Y-88675000D03*
%TO.P,U2,2,NC*%
%TO.N,unconnected-(U2-Pad2)*%
X125012500Y-88025000D03*
%TO.P,U2,3,SW*%
%TO.N,Net-(L1-Pad2)*%
X125012500Y-87375000D03*
%TO.P,U2,4,SW*%
X125012500Y-86725000D03*
D22*
%TO.P,U2,5,PGND*%
%TO.N,GND*%
X124025000Y-85737500D03*
%TO.P,U2,6,PGND*%
X123375000Y-85737500D03*
%TO.P,U2,7,PGND*%
X122725000Y-85737500D03*
%TO.P,U2,8,VBAT*%
%TO.N,/+V_BAT*%
X122075000Y-85737500D03*
D21*
%TO.P,U2,9,LBI*%
%TO.N,Net-(R8-Pad2)*%
X121087500Y-86725000D03*
%TO.P,U2,10,SYNC*%
%TO.N,GND*%
X121087500Y-87375000D03*
%TO.P,U2,11,EN*%
%TO.N,/ENABLE*%
X121087500Y-88025000D03*
%TO.P,U2,12,LBO*%
%TO.N,/LBO*%
X121087500Y-88675000D03*
D22*
%TO.P,U2,13,GND*%
%TO.N,GND*%
X122075000Y-89662500D03*
%TO.P,U2,14,FB*%
%TO.N,Net-(R11-Pad2)*%
X122725000Y-89662500D03*
%TO.P,U2,15,VOUT*%
%TO.N,/+5V_OUT*%
X123375000Y-89662500D03*
%TO.P,U2,16,VOUT*%
X124025000Y-89662500D03*
D23*
%TO.P,U2,17,PAD*%
%TO.N,GND*%
X123050000Y-87700000D03*
D24*
X124150000Y-87700000D03*
X123050000Y-88800000D03*
X124150000Y-86600000D03*
X124150000Y-88800000D03*
X121950000Y-88800000D03*
X123050000Y-87700000D03*
X123050000Y-86600000D03*
X121950000Y-87700000D03*
X121950000Y-86600000D03*
%TD*%
D25*
%TO.P,R9,1*%
%TO.N,Net-(R8-Pad2)*%
X118762500Y-90300000D03*
%TO.P,R9,2*%
%TO.N,GND*%
X116937500Y-90300000D03*
%TD*%
D26*
%TO.P,J4,1,VBUS*%
%TO.N,/+5V_OUT*%
X131372500Y-92050000D03*
D27*
%TO.P,J4,2,D-*%
%TO.N,Net-(J4-Pad2)*%
X131372500Y-89550000D03*
%TO.P,J4,3,D+*%
%TO.N,Net-(J4-Pad3)*%
X131372500Y-87550000D03*
%TO.P,J4,4,GND*%
%TO.N,GND*%
X131372500Y-85050000D03*
D28*
%TO.P,J4,5,Shield*%
X134082500Y-95120000D03*
X134082500Y-81980000D03*
%TD*%
D10*
%TO.P,C1,1*%
%TO.N,+5V*%
X108100000Y-88200000D03*
%TO.P,C1,2*%
%TO.N,GND*%
X108100000Y-86300000D03*
%TD*%
D17*
%TO.P,C2,1*%
%TO.N,/+V_LIPO*%
X115200000Y-92670000D03*
%TO.P,C2,2*%
%TO.N,GND*%
X115200000Y-94570000D03*
%TD*%
D16*
%TO.P,R6,1*%
%TO.N,Net-(R6-Pad1)*%
X111200000Y-92687500D03*
%TO.P,R6,2*%
%TO.N,GND*%
X111200000Y-94512500D03*
%TD*%
D10*
%TO.P,C5,1*%
%TO.N,/+5V_OUT*%
X126750000Y-88500000D03*
%TO.P,C5,2*%
%TO.N,GND*%
X126750000Y-86600000D03*
%TD*%
D29*
%TO.P,D3,1,K*%
%TO.N,GND*%
X106250000Y-80237500D03*
%TO.P,D3,2,A*%
%TO.N,Net-(D3-Pad2)*%
X106250000Y-78362500D03*
%TD*%
D16*
%TO.P,R7,1*%
%TO.N,Net-(R7-Pad1)*%
X108050000Y-89837500D03*
%TO.P,R7,2*%
%TO.N,GND*%
X108050000Y-91662500D03*
%TD*%
D30*
%TO.P,H2,1*%
%TO.N,N/C*%
X102550000Y-97450000D03*
%TD*%
D16*
%TO.P,R5,1*%
%TO.N,Net-(R5-Pad1)*%
X113100000Y-92687500D03*
%TO.P,R5,2*%
%TO.N,GND*%
X113100000Y-94512500D03*
%TD*%
D31*
%TO.P,D1,1,K*%
%TO.N,Net-(D1-Pad1)*%
X111037500Y-98900000D03*
%TO.P,D1,2,A*%
%TO.N,+5V*%
X109162500Y-98900000D03*
%TD*%
D32*
%TO.P,Q1,1,B*%
%TO.N,/LBO*%
X117250000Y-80487500D03*
%TO.P,Q1,2,E*%
%TO.N,/+V_BAT*%
X119150000Y-80487500D03*
%TO.P,Q1,3,C*%
%TO.N,Net-(Q1-Pad3)*%
X118200000Y-78612500D03*
%TD*%
D31*
%TO.P,D4,1,K*%
%TO.N,GND*%
X134587500Y-98200000D03*
%TO.P,D4,2,A*%
%TO.N,Net-(D4-Pad2)*%
X132712500Y-98200000D03*
%TD*%
D33*
%TO.P,U1,1,OUT*%
%TO.N,/+V_BAT*%
X113850000Y-87062500D03*
%TO.P,U1,2,VPCC*%
%TO.N,Net-(R3-Pad1)*%
X113350000Y-87062500D03*
%TO.P,U1,3,SEL*%
%TO.N,+5V*%
X112850000Y-87062500D03*
%TO.P,U1,4,PROG2*%
X112350000Y-87062500D03*
%TO.P,U1,5,THERM*%
%TO.N,Net-(R7-Pad1)*%
X111850000Y-87062500D03*
D34*
%TO.P,U1,6,~PG~*%
%TO.N,unconnected-(U1-Pad6)*%
X110912500Y-88000000D03*
%TO.P,U1,7,STAT2*%
%TO.N,Net-(R2-Pad2)*%
X110912500Y-88500000D03*
%TO.P,U1,8,STAT1/~LBO~*%
%TO.N,Net-(R1-Pad2)*%
X110912500Y-89000000D03*
%TO.P,U1,9,~TE*%
%TO.N,+5V*%
X110912500Y-89500000D03*
%TO.P,U1,10,VSS*%
%TO.N,GND*%
X110912500Y-90000000D03*
D33*
%TO.P,U1,11,VSS*%
X111850000Y-90937500D03*
%TO.P,U1,12,PROG3*%
%TO.N,Net-(R6-Pad1)*%
X112350000Y-90937500D03*
%TO.P,U1,13,PROG1*%
%TO.N,Net-(R5-Pad1)*%
X112850000Y-90937500D03*
%TO.P,U1,14,VBAT*%
%TO.N,/+V_LIPO*%
X113350000Y-90937500D03*
%TO.P,U1,15,VBAT*%
X113850000Y-90937500D03*
D34*
%TO.P,U1,16,Vbat_SENSE*%
X114787500Y-90000000D03*
%TO.P,U1,17,CE*%
%TO.N,+5V*%
X114787500Y-89500000D03*
%TO.P,U1,18,IN*%
X114787500Y-89000000D03*
%TO.P,U1,19,IN*%
X114787500Y-88500000D03*
%TO.P,U1,20,OUT*%
%TO.N,/+V_BAT*%
X114787500Y-88000000D03*
D35*
%TO.P,U1,21,VSS*%
%TO.N,GND*%
X113600000Y-89750000D03*
X112850000Y-88250000D03*
X112100000Y-89000000D03*
X113600000Y-89000000D03*
X112100000Y-88250000D03*
D36*
X112850000Y-89000000D03*
D35*
X112900000Y-89750000D03*
X113600000Y-88250000D03*
X112100000Y-89750000D03*
X112850000Y-89000000D03*
%TD*%
D16*
%TO.P,R11,1*%
%TO.N,/+5V_OUT*%
X126720000Y-90087500D03*
%TO.P,R11,2*%
%TO.N,Net-(R11-Pad2)*%
X126720000Y-91912500D03*
%TD*%
D37*
%TO.P,J1,1,VBUS*%
%TO.N,+5V*%
X105650000Y-87250000D03*
%TO.P,J1,2,D-*%
%TO.N,unconnected-(J1-Pad2)*%
X105650000Y-87900000D03*
%TO.P,J1,3,D+*%
%TO.N,unconnected-(J1-Pad3)*%
X105650000Y-88550000D03*
%TO.P,J1,4,ID*%
%TO.N,unconnected-(J1-Pad4)*%
X105650000Y-89200000D03*
%TO.P,J1,5,GND*%
%TO.N,GND*%
X105650000Y-89850000D03*
D38*
%TO.P,J1,6,Shield*%
X105600000Y-84825000D03*
D39*
X101800000Y-84675000D03*
X101800000Y-92425000D03*
D38*
X105600000Y-92275000D03*
%TD*%
D30*
%TO.P,H1,1*%
%TO.N,N/C*%
X102550000Y-79650000D03*
%TD*%
D16*
%TO.P,R14,1*%
%TO.N,/+5V_OUT*%
X128850000Y-93587500D03*
%TO.P,R14,2*%
%TO.N,Net-(D4-Pad2)*%
X128850000Y-95412500D03*
%TD*%
D40*
%TO.P,J3,1,Pin_1*%
%TO.N,GND*%
X134650000Y-87550000D03*
D41*
%TO.P,J3,2,Pin_2*%
%TO.N,/+5V_OUT*%
X134650000Y-89550000D03*
%TD*%
D42*
%TO.N,/+V_LIPO*%
X117050000Y-92900000D03*
%TO.N,GND*%
X119700000Y-81750000D03*
X111200000Y-96200000D03*
X118650000Y-93550000D03*
%TO.N,+5V*%
X110600000Y-90900000D03*
X108400000Y-97550000D03*
X115851622Y-89634495D03*
X112600000Y-86150000D03*
%TO.N,/+V_BAT*%
X120850000Y-94900000D03*
%TO.N,/LBO*%
X121100000Y-89900000D03*
X116100000Y-81400000D03*
%TD*%
D43*
%TO.N,/+V_LIPO*%
X114162500Y-90937500D02*
X114475000Y-90625000D01*
X115200000Y-92670000D02*
X117955000Y-95425000D01*
X117955000Y-95425000D02*
X117955000Y-98700000D01*
X115200000Y-91350000D02*
X114475000Y-90625000D01*
X116820000Y-92670000D02*
X117050000Y-92900000D01*
X113850000Y-90937500D02*
X114162500Y-90937500D01*
X114787500Y-90312500D02*
X114787500Y-90074520D01*
D44*
X113350000Y-90937500D02*
X113850000Y-90937500D01*
D43*
X114475000Y-90625000D02*
X114787500Y-90312500D01*
X115200000Y-92670000D02*
X115200000Y-91350000D01*
X115200000Y-92670000D02*
X116820000Y-92670000D01*
D44*
%TO.N,GND*%
X111850000Y-90937500D02*
X111850000Y-90000000D01*
X134587500Y-98200000D02*
X134587500Y-95625000D01*
X122725000Y-86275000D02*
X123050000Y-86600000D01*
X121625000Y-87375000D02*
X121950000Y-87700000D01*
D43*
X108050000Y-91662500D02*
X106212500Y-91662500D01*
D44*
X122725000Y-85737500D02*
X122725000Y-86275000D01*
X123375000Y-86275000D02*
X123050000Y-86600000D01*
X126806250Y-86656250D02*
X126750000Y-86600000D01*
X122075000Y-88925000D02*
X121950000Y-88800000D01*
D43*
X111200000Y-94512500D02*
X111200000Y-96200000D01*
D44*
X134587500Y-95625000D02*
X134082500Y-95120000D01*
X111850000Y-90000000D02*
X112100000Y-89750000D01*
X110912500Y-90000000D02*
X111850000Y-90000000D01*
X119000000Y-82800000D02*
X119000000Y-82450000D01*
X128850000Y-86656250D02*
X126806250Y-86656250D01*
D43*
X106212500Y-91662500D02*
X105600000Y-92275000D01*
D44*
X119000000Y-82450000D02*
X119700000Y-81750000D01*
X123375000Y-85737500D02*
X123375000Y-86275000D01*
X124025000Y-85737500D02*
X124025000Y-86475000D01*
X121087500Y-87375000D02*
X121625000Y-87375000D01*
X124025000Y-86475000D02*
X124150000Y-86600000D01*
X122075000Y-89662500D02*
X122075000Y-88925000D01*
%TO.N,+5V*%
X112537500Y-86212500D02*
X112600000Y-86150000D01*
X108450000Y-98900000D02*
X108450000Y-97600000D01*
D43*
X115350000Y-89000000D02*
X115450000Y-89100000D01*
D44*
X114787500Y-88500000D02*
X114787500Y-89000000D01*
X112537500Y-87062500D02*
X112850000Y-87062500D01*
X110100000Y-90400000D02*
X110600000Y-90900000D01*
D43*
X106600000Y-87250000D02*
X107150000Y-87250000D01*
D44*
X110445598Y-89500000D02*
X110100000Y-89845598D01*
X107737500Y-98900000D02*
X108450000Y-98900000D01*
X112537500Y-87062500D02*
X112537500Y-86212500D01*
X112350000Y-87062500D02*
X112537500Y-87062500D01*
D43*
X108100000Y-88200000D02*
X110150000Y-86150000D01*
D45*
X105650000Y-87250000D02*
X106600000Y-87250000D01*
D44*
X108450000Y-98900000D02*
X109162500Y-98900000D01*
D43*
X115851622Y-89501622D02*
X115851622Y-89634495D01*
D44*
X108450000Y-97600000D02*
X108400000Y-97550000D01*
X110100000Y-89845598D02*
X110100000Y-90400000D01*
D43*
X110150000Y-86150000D02*
X112600000Y-86150000D01*
X114787500Y-89000000D02*
X115350000Y-89000000D01*
X107150000Y-87250000D02*
X108100000Y-88200000D01*
D44*
X112600000Y-85387500D02*
X115150000Y-82837500D01*
X110912500Y-89500000D02*
X110445598Y-89500000D01*
X112600000Y-86150000D02*
X112600000Y-85387500D01*
D43*
X115450000Y-89100000D02*
X115851622Y-89501622D01*
D44*
X114787500Y-89500000D02*
X114787500Y-89000000D01*
D43*
%TO.N,/+V_BAT*%
X119000000Y-84700000D02*
X121900000Y-84700000D01*
X114562500Y-87287500D02*
X115300000Y-86550000D01*
X114337500Y-87062500D02*
X113924520Y-87062500D01*
D44*
X119150000Y-80487500D02*
X121787500Y-80487500D01*
D43*
X121950000Y-84750000D02*
X121950000Y-85612500D01*
X119000000Y-86587500D02*
X119000000Y-84700000D01*
D44*
X113850000Y-87062500D02*
X114337500Y-87062500D01*
X117900000Y-90969566D02*
X117900000Y-86550000D01*
X114787500Y-87512500D02*
X114562500Y-87287500D01*
D45*
X114787500Y-87512500D02*
X114787500Y-87975480D01*
D44*
X120292934Y-93362500D02*
X117900000Y-90969566D01*
D43*
X116750000Y-86550000D02*
X117900000Y-86550000D01*
D44*
X121787500Y-80487500D02*
X121950000Y-80650000D01*
D43*
X121950000Y-81750000D02*
X121950000Y-80650000D01*
D44*
X120850000Y-93662500D02*
X121150000Y-93362500D01*
D43*
X118962500Y-86550000D02*
X119000000Y-86587500D01*
X121900000Y-84700000D02*
X121950000Y-84750000D01*
D44*
X114562500Y-87287500D02*
X114337500Y-87062500D01*
D43*
X117900000Y-86550000D02*
X118962500Y-86550000D01*
D44*
X121150000Y-93362500D02*
X120292934Y-93362500D01*
X120850000Y-94900000D02*
X120850000Y-93662500D01*
D43*
X121950000Y-85612500D02*
X122075000Y-85737500D01*
X121950000Y-80650000D02*
X121950000Y-84750000D01*
D44*
X114787500Y-88000000D02*
X114787500Y-87512500D01*
D43*
X115300000Y-86550000D02*
X116750000Y-86550000D01*
D44*
%TO.N,/+5V_OUT*%
X127700000Y-87550000D02*
X126750000Y-88500000D01*
D43*
X128850000Y-93587500D02*
X128850000Y-93600000D01*
X125012500Y-88675000D02*
X125012500Y-89637500D01*
D44*
X128850000Y-85015625D02*
X128890625Y-85015625D01*
D43*
X126990625Y-90087500D02*
X128850000Y-91946875D01*
X123950000Y-89737500D02*
X124025000Y-89662500D01*
D44*
X129750000Y-87550000D02*
X127700000Y-87550000D01*
D43*
X126295000Y-89662500D02*
X126720000Y-90087500D01*
D44*
X128890625Y-85015625D02*
X130050000Y-86175000D01*
D43*
X123375000Y-89662500D02*
X124987500Y-89662500D01*
X130428658Y-98700000D02*
X130655000Y-98700000D01*
D44*
X130050000Y-86175000D02*
X130050000Y-87250000D01*
D43*
X126720000Y-90087500D02*
X126990625Y-90087500D01*
X127600000Y-94850000D02*
X127600000Y-95871342D01*
X128850000Y-93600000D02*
X127600000Y-94850000D01*
X126750000Y-90057500D02*
X126720000Y-90087500D01*
X128850000Y-93587500D02*
X128850000Y-91946875D01*
D44*
X130050000Y-87250000D02*
X129750000Y-87550000D01*
D43*
X131372500Y-92050000D02*
X128953125Y-92050000D01*
X125012500Y-89637500D02*
X124987500Y-89662500D01*
X134650000Y-89550000D02*
X133872500Y-89550000D01*
X124987500Y-89662500D02*
X126295000Y-89662500D01*
X127600000Y-95871342D02*
X130428658Y-98700000D01*
X128953125Y-92050000D02*
X128850000Y-91946875D01*
X126750000Y-88500000D02*
X126750000Y-90057500D01*
X123950000Y-91595000D02*
X123950000Y-89737500D01*
X133872500Y-89550000D02*
X131372500Y-92050000D01*
D44*
%TO.N,Net-(D1-Pad1)*%
X108400000Y-96312500D02*
X108450000Y-96312500D01*
X108450000Y-96312500D02*
X111037500Y-98900000D01*
%TO.N,Net-(D2-Pad1)*%
X106400000Y-96312500D02*
X106400000Y-98362500D01*
X106400000Y-98362500D02*
X105862500Y-98900000D01*
%TO.N,Net-(D3-Pad2)*%
X106250000Y-78362500D02*
X111762500Y-78362500D01*
X111762500Y-78362500D02*
X113612500Y-80212500D01*
X113612500Y-80212500D02*
X115300000Y-80212500D01*
%TO.N,Net-(D4-Pad2)*%
X129925000Y-95412500D02*
X128850000Y-95412500D01*
X132712500Y-98200000D02*
X129925000Y-95412500D01*
%TO.N,/ENABLE*%
X120675000Y-88025000D02*
X120350480Y-88349520D01*
X120350480Y-90737980D02*
X121150000Y-91537500D01*
X122174520Y-92810224D02*
X121150000Y-91785704D01*
X120350480Y-88349520D02*
X120350480Y-90737980D01*
X120495000Y-98700000D02*
X122174520Y-97020480D01*
X121087500Y-88025000D02*
X120675000Y-88025000D01*
X121150000Y-91785704D02*
X121150000Y-91537500D01*
X122174520Y-97020480D02*
X122174520Y-92810224D01*
%TO.N,/LBO*%
X117012500Y-80487500D02*
X116100000Y-81400000D01*
X121100000Y-88687500D02*
X121087500Y-88675000D01*
X117250000Y-80487500D02*
X117012500Y-80487500D01*
X121100000Y-89900000D02*
X121100000Y-88687500D01*
%TO.N,Net-(J4-Pad2)*%
X128850000Y-88481250D02*
X128850000Y-90121875D01*
X130800625Y-90121875D02*
X128850000Y-90121875D01*
X131372500Y-89550000D02*
X130800625Y-90121875D01*
%TO.N,Net-(J4-Pad3)*%
X128850000Y-83190625D02*
X130249510Y-84590135D01*
X131372500Y-86736796D02*
X131372500Y-87550000D01*
X130249510Y-85613806D02*
X131372500Y-86736796D01*
X128850000Y-81550000D02*
X128850000Y-83190625D01*
X130249510Y-84590135D02*
X130249510Y-85613806D01*
D43*
%TO.N,Net-(L1-Pad2)*%
X125012500Y-86725000D02*
X125012500Y-80787500D01*
X125012500Y-80787500D02*
X125150000Y-80650000D01*
X125012500Y-87375000D02*
X125012500Y-86725000D01*
D44*
%TO.N,Net-(Q1-Pad3)*%
X115300000Y-78387500D02*
X117975000Y-78387500D01*
X117975000Y-78387500D02*
X118200000Y-78612500D01*
%TO.N,Net-(R1-Pad2)*%
X110150000Y-89000000D02*
X109550000Y-89600000D01*
X110912500Y-89000000D02*
X110150000Y-89000000D01*
X109550000Y-89600000D02*
X109550000Y-92450000D01*
X109550000Y-92450000D02*
X108400000Y-93600000D01*
X108400000Y-93600000D02*
X108400000Y-94487500D01*
%TO.N,Net-(R2-Pad2)*%
X109100000Y-92144566D02*
X106757066Y-94487500D01*
X110912500Y-88500000D02*
X110014296Y-88500000D01*
X106757066Y-94487500D02*
X106400000Y-94487500D01*
X109100000Y-89414296D02*
X109100000Y-92144566D01*
X110014296Y-88500000D02*
X109100000Y-89414296D01*
%TO.N,Net-(R3-Pad1)*%
X113350000Y-86000000D02*
X113350000Y-87062500D01*
X117050000Y-84662500D02*
X115150000Y-84662500D01*
X115150000Y-84662500D02*
X114687500Y-84662500D01*
X114687500Y-84662500D02*
X113350000Y-86000000D01*
%TO.N,Net-(R5-Pad1)*%
X112850000Y-92437500D02*
X113100000Y-92687500D01*
X112850000Y-90937500D02*
X112850000Y-92437500D01*
%TO.N,Net-(R6-Pad1)*%
X112350000Y-90937500D02*
X112350000Y-91537500D01*
X112350000Y-91537500D02*
X111200000Y-92687500D01*
%TO.N,Net-(R7-Pad1)*%
X108050000Y-89837500D02*
X108050000Y-89828592D01*
X108050000Y-89828592D02*
X110816092Y-87062500D01*
X110816092Y-87062500D02*
X111850000Y-87062500D01*
%TO.N,Net-(R8-Pad2)*%
X121087500Y-86725000D02*
X120394566Y-86725000D01*
X119000000Y-88412500D02*
X119000000Y-90062500D01*
X119000000Y-90062500D02*
X118762500Y-90300000D01*
X119000000Y-88119566D02*
X119000000Y-88412500D01*
X120394566Y-86725000D02*
X119000000Y-88119566D01*
%TO.N,Net-(R11-Pad2)*%
X122725000Y-89662500D02*
X122725000Y-90575434D01*
X122250000Y-91050434D02*
X122250000Y-92250000D01*
X122725000Y-90575434D02*
X122250000Y-91050434D01*
X126720000Y-91912500D02*
X126720000Y-93317500D01*
X126720000Y-93317500D02*
X126450000Y-93587500D01*
X122250000Y-92250000D02*
X123587500Y-93587500D01*
X123587500Y-93587500D02*
X126450000Y-93587500D01*
%TD*%
%TA.AperFunction,Conductor*%
%TO.N,GND*%
G36*
X124146121Y-94311002D02*
G01*
X124192614Y-94364658D01*
X124204000Y-94417000D01*
X124204000Y-95609885D01*
X124208475Y-95625124D01*
X124209865Y-95626329D01*
X124217548Y-95628000D01*
X125089223Y-95628000D01*
X125096515Y-95627576D01*
X125104512Y-95626644D01*
X125174491Y-95638625D01*
X125226883Y-95686536D01*
X125244253Y-95737206D01*
X125256617Y-95843254D01*
X125259963Y-95857410D01*
X125315263Y-96009761D01*
X125321773Y-96022760D01*
X125410641Y-96158306D01*
X125419965Y-96169458D01*
X125537629Y-96280922D01*
X125549276Y-96289635D01*
X125689429Y-96371043D01*
X125702754Y-96376837D01*
X125858700Y-96424068D01*
X125871323Y-96426516D01*
X125941184Y-96432751D01*
X125946779Y-96433000D01*
X126177885Y-96433000D01*
X126193124Y-96428525D01*
X126194329Y-96427135D01*
X126196000Y-96419452D01*
X126196000Y-95284500D01*
X126216002Y-95216379D01*
X126269658Y-95169886D01*
X126322000Y-95158500D01*
X126578000Y-95158500D01*
X126646121Y-95178502D01*
X126692614Y-95232158D01*
X126704000Y-95284500D01*
X126704000Y-96414885D01*
X126708475Y-96430124D01*
X126709865Y-96431329D01*
X126717548Y-96433000D01*
X126939222Y-96433000D01*
X126946524Y-96432576D01*
X127013154Y-96424807D01*
X127083133Y-96436785D01*
X127116841Y-96460864D01*
X127829122Y-97173145D01*
X127863148Y-97235457D01*
X127858083Y-97306272D01*
X127815536Y-97363108D01*
X127765902Y-97385555D01*
X127728553Y-97393392D01*
X127718358Y-97396451D01*
X127513932Y-97477182D01*
X127504396Y-97481916D01*
X127316486Y-97595942D01*
X127307896Y-97602206D01*
X127141884Y-97746264D01*
X127134464Y-97753895D01*
X126995100Y-97923860D01*
X126989079Y-97932622D01*
X126955427Y-97991739D01*
X126904344Y-98041045D01*
X126834714Y-98054906D01*
X126768643Y-98028922D01*
X126741405Y-97999773D01*
X126640607Y-97850053D01*
X126637627Y-97845626D01*
X126478482Y-97678799D01*
X126471011Y-97673240D01*
X126308067Y-97552006D01*
X126293504Y-97541171D01*
X126288753Y-97538755D01*
X126288749Y-97538753D01*
X126092740Y-97439097D01*
X126092739Y-97439097D01*
X126087982Y-97436678D01*
X125976906Y-97402188D01*
X125872895Y-97369891D01*
X125872889Y-97369890D01*
X125867792Y-97368307D01*
X125758261Y-97353790D01*
X125644515Y-97338714D01*
X125644510Y-97338714D01*
X125639230Y-97338014D01*
X125633900Y-97338214D01*
X125633899Y-97338214D01*
X125540320Y-97341727D01*
X125408831Y-97346663D01*
X125350301Y-97358944D01*
X125188411Y-97392912D01*
X125188408Y-97392913D01*
X125183184Y-97394009D01*
X124968740Y-97478697D01*
X124771631Y-97598306D01*
X124767601Y-97601803D01*
X124632349Y-97719168D01*
X124597492Y-97749415D01*
X124594109Y-97753541D01*
X124594105Y-97753545D01*
X124559545Y-97795695D01*
X124451304Y-97927705D01*
X124415116Y-97991278D01*
X124414842Y-97991760D01*
X124363760Y-98041066D01*
X124294130Y-98054928D01*
X124228059Y-98028945D01*
X124200820Y-97999795D01*
X124100218Y-97850366D01*
X124093557Y-97842080D01*
X123941830Y-97683030D01*
X123933873Y-97675990D01*
X123757523Y-97544782D01*
X123748486Y-97539178D01*
X123552550Y-97439559D01*
X123542699Y-97435559D01*
X123332778Y-97370378D01*
X123322396Y-97368095D01*
X123306959Y-97366049D01*
X123292792Y-97368246D01*
X123289000Y-97381430D01*
X123289000Y-98828000D01*
X123268998Y-98896121D01*
X123215342Y-98942614D01*
X123163000Y-98954000D01*
X122907000Y-98954000D01*
X122838879Y-98933998D01*
X122792386Y-98880342D01*
X122781000Y-98828000D01*
X122781000Y-97383717D01*
X122766392Y-97333968D01*
X122765392Y-97332413D01*
X122765354Y-97261416D01*
X122766036Y-97259432D01*
X122768182Y-97255528D01*
X122770389Y-97246933D01*
X122773219Y-97235912D01*
X122779623Y-97217208D01*
X122784519Y-97205895D01*
X122784521Y-97205888D01*
X122787668Y-97198616D01*
X122789408Y-97187635D01*
X122794585Y-97154945D01*
X122796992Y-97143324D01*
X122806507Y-97106262D01*
X122806507Y-97106261D01*
X122807985Y-97100505D01*
X122808020Y-97099949D01*
X122808020Y-97080028D01*
X122809571Y-97060318D01*
X122811464Y-97048366D01*
X122811464Y-97048365D01*
X122812704Y-97040536D01*
X122808579Y-96996897D01*
X122808020Y-96985040D01*
X122808020Y-95754000D01*
X122828022Y-95685879D01*
X122881678Y-95639386D01*
X122934020Y-95628000D01*
X123677885Y-95628000D01*
X123693124Y-95623525D01*
X123694329Y-95622135D01*
X123696000Y-95614452D01*
X123696000Y-94417000D01*
X123716002Y-94348879D01*
X123769658Y-94302386D01*
X123822000Y-94291000D01*
X124078000Y-94291000D01*
X124146121Y-94311002D01*
G37*
%TD.AperFunction*%
%TA.AperFunction,Conductor*%
G36*
X109937077Y-93062993D02*
G01*
X109993913Y-93105540D01*
X110011484Y-93138058D01*
X110059941Y-93271554D01*
X110067313Y-93291864D01*
X110164269Y-93439747D01*
X110169580Y-93444778D01*
X110169584Y-93444783D01*
X110235840Y-93507547D01*
X110271539Y-93568916D01*
X110268392Y-93639842D01*
X110240661Y-93685673D01*
X110144078Y-93787629D01*
X110135365Y-93799276D01*
X110053957Y-93939429D01*
X110048163Y-93952754D01*
X110000932Y-94108700D01*
X109998484Y-94121323D01*
X109992249Y-94191184D01*
X109992000Y-94196779D01*
X109992000Y-94240385D01*
X109996475Y-94255624D01*
X109997865Y-94256829D01*
X110005548Y-94258500D01*
X114242439Y-94258500D01*
X114310560Y-94278502D01*
X114324951Y-94289275D01*
X114353865Y-94314329D01*
X114361548Y-94316000D01*
X115328000Y-94316000D01*
X115396121Y-94336002D01*
X115442614Y-94389658D01*
X115454000Y-94442000D01*
X115454000Y-95559885D01*
X115458475Y-95575124D01*
X115459865Y-95576329D01*
X115467548Y-95578000D01*
X115714223Y-95578000D01*
X115721524Y-95577576D01*
X115843255Y-95563383D01*
X115857410Y-95560037D01*
X116009761Y-95504737D01*
X116022760Y-95498227D01*
X116158306Y-95409359D01*
X116169458Y-95400035D01*
X116280922Y-95282371D01*
X116289635Y-95270724D01*
X116368467Y-95135006D01*
X116419978Y-95086148D01*
X116489727Y-95072894D01*
X116555568Y-95099454D01*
X116566516Y-95109197D01*
X117159595Y-95702276D01*
X117193621Y-95764588D01*
X117196500Y-95791371D01*
X117196500Y-97502083D01*
X117176498Y-97570204D01*
X117150853Y-97597409D01*
X117151631Y-97598306D01*
X117012349Y-97719168D01*
X116977492Y-97749415D01*
X116974109Y-97753541D01*
X116974105Y-97753545D01*
X116939545Y-97795695D01*
X116831304Y-97927705D01*
X116828667Y-97932338D01*
X116828666Y-97932339D01*
X116795116Y-97991278D01*
X116744033Y-98040584D01*
X116674402Y-98054445D01*
X116608332Y-98028461D01*
X116581094Y-97999312D01*
X116580866Y-97998972D01*
X116480818Y-97850366D01*
X116480607Y-97850052D01*
X116480605Y-97850050D01*
X116477627Y-97845626D01*
X116318482Y-97678799D01*
X116311011Y-97673240D01*
X116148067Y-97552006D01*
X116133504Y-97541171D01*
X116128753Y-97538755D01*
X116128749Y-97538753D01*
X115932740Y-97439097D01*
X115932739Y-97439097D01*
X115927982Y-97436678D01*
X115816906Y-97402188D01*
X115712895Y-97369891D01*
X115712889Y-97369890D01*
X115707792Y-97368307D01*
X115598261Y-97353790D01*
X115484515Y-97338714D01*
X115484510Y-97338714D01*
X115479230Y-97338014D01*
X115473900Y-97338214D01*
X115473899Y-97338214D01*
X115380320Y-97341727D01*
X115248831Y-97346663D01*
X115190301Y-97358944D01*
X115028411Y-97392912D01*
X115028408Y-97392913D01*
X115023184Y-97394009D01*
X114808740Y-97478697D01*
X114611631Y-97598306D01*
X114607601Y-97601803D01*
X114472349Y-97719168D01*
X114437492Y-97749415D01*
X114432339Y-97755700D01*
X114431364Y-97756365D01*
X114430390Y-97757366D01*
X114430186Y-97757168D01*
X114373681Y-97795695D01*
X114302710Y-97797628D01*
X114241961Y-97760885D01*
X114214008Y-97711309D01*
X114197355Y-97654595D01*
X114192096Y-97636684D01*
X114149934Y-97571079D01*
X114117949Y-97521309D01*
X114117947Y-97521306D01*
X114113077Y-97513729D01*
X114070384Y-97476735D01*
X114009431Y-97423918D01*
X114009428Y-97423916D01*
X114002619Y-97418016D01*
X113973317Y-97404634D01*
X113877864Y-97361042D01*
X113877863Y-97361042D01*
X113869670Y-97357300D01*
X113860755Y-97356018D01*
X113860754Y-97356018D01*
X113729448Y-97337139D01*
X113729441Y-97337138D01*
X113725000Y-97336500D01*
X112025000Y-97336500D01*
X111951921Y-97341727D01*
X111873835Y-97364655D01*
X111820330Y-97380365D01*
X111820328Y-97380366D01*
X111811684Y-97382904D01*
X111777872Y-97404634D01*
X111696309Y-97457051D01*
X111696306Y-97457053D01*
X111688729Y-97461923D01*
X111682828Y-97468733D01*
X111598918Y-97565569D01*
X111598916Y-97565572D01*
X111593016Y-97572381D01*
X111567599Y-97628038D01*
X111566588Y-97630251D01*
X111520095Y-97683907D01*
X111451975Y-97703909D01*
X111428119Y-97700355D01*
X111427883Y-97701573D01*
X111421534Y-97700342D01*
X111415347Y-97698468D01*
X111408907Y-97697893D01*
X111408906Y-97697893D01*
X111340066Y-97691749D01*
X111340060Y-97691749D01*
X111337273Y-97691500D01*
X110777095Y-97691500D01*
X110708974Y-97671498D01*
X110688000Y-97654595D01*
X109645405Y-96612001D01*
X109611380Y-96549689D01*
X109608500Y-96522906D01*
X109608500Y-96007114D01*
X109593022Y-95874357D01*
X109569054Y-95808324D01*
X109535184Y-95715015D01*
X109532687Y-95708136D01*
X109447932Y-95578863D01*
X109439743Y-95566372D01*
X109439742Y-95566371D01*
X109435731Y-95560253D01*
X109406699Y-95532751D01*
X109364520Y-95492794D01*
X109328822Y-95431424D01*
X109331970Y-95360498D01*
X109359700Y-95314668D01*
X109436470Y-95233628D01*
X109461358Y-95207355D01*
X109550175Y-95054445D01*
X109596952Y-94900000D01*
X109599558Y-94891395D01*
X109599558Y-94891394D01*
X109601433Y-94885204D01*
X109602008Y-94878763D01*
X109608251Y-94808815D01*
X109608251Y-94808809D01*
X109608500Y-94806022D01*
X109608500Y-94780048D01*
X109992000Y-94780048D01*
X109992000Y-94814223D01*
X109992424Y-94821524D01*
X110006617Y-94943255D01*
X110009963Y-94957410D01*
X110065263Y-95109761D01*
X110071773Y-95122760D01*
X110160641Y-95258306D01*
X110169965Y-95269458D01*
X110287629Y-95380922D01*
X110299276Y-95389635D01*
X110439429Y-95471043D01*
X110452754Y-95476837D01*
X110608700Y-95524068D01*
X110621323Y-95526516D01*
X110691184Y-95532751D01*
X110696779Y-95533000D01*
X110927885Y-95533000D01*
X110943124Y-95528525D01*
X110944329Y-95527135D01*
X110946000Y-95519452D01*
X110946000Y-94784615D01*
X110944659Y-94780048D01*
X111454000Y-94780048D01*
X111454000Y-95514885D01*
X111458475Y-95530124D01*
X111459865Y-95531329D01*
X111467548Y-95533000D01*
X111689223Y-95533000D01*
X111696524Y-95532576D01*
X111818255Y-95518383D01*
X111832410Y-95515037D01*
X111984761Y-95459737D01*
X111997760Y-95453227D01*
X112078775Y-95400112D01*
X112146711Y-95379489D01*
X112211146Y-95396530D01*
X112339429Y-95471043D01*
X112352754Y-95476837D01*
X112508700Y-95524068D01*
X112521323Y-95526516D01*
X112591184Y-95532751D01*
X112596779Y-95533000D01*
X112827885Y-95533000D01*
X112843124Y-95528525D01*
X112844329Y-95527135D01*
X112846000Y-95519452D01*
X112846000Y-94784615D01*
X112844659Y-94780048D01*
X113354000Y-94780048D01*
X113354000Y-95514885D01*
X113358475Y-95530124D01*
X113359865Y-95531329D01*
X113367548Y-95533000D01*
X113589223Y-95533000D01*
X113596524Y-95532576D01*
X113718255Y-95518383D01*
X113732410Y-95515037D01*
X113884761Y-95459737D01*
X113897760Y-95453227D01*
X114033302Y-95364362D01*
X114034547Y-95363321D01*
X114035569Y-95362876D01*
X114039426Y-95360347D01*
X114039859Y-95361007D01*
X114099637Y-95334969D01*
X114169722Y-95346308D01*
X114202024Y-95368511D01*
X114262624Y-95425919D01*
X114274276Y-95434635D01*
X114414429Y-95516043D01*
X114427754Y-95521837D01*
X114583700Y-95569068D01*
X114596323Y-95571516D01*
X114666184Y-95577751D01*
X114671779Y-95578000D01*
X114927885Y-95578000D01*
X114943124Y-95573525D01*
X114944329Y-95572135D01*
X114946000Y-95564452D01*
X114946000Y-94842115D01*
X114941525Y-94826876D01*
X114940135Y-94825671D01*
X114932452Y-94824000D01*
X114032561Y-94824000D01*
X113964440Y-94803998D01*
X113950049Y-94793225D01*
X113921135Y-94768171D01*
X113913452Y-94766500D01*
X113372115Y-94766500D01*
X113356876Y-94770975D01*
X113355671Y-94772365D01*
X113354000Y-94780048D01*
X112844659Y-94780048D01*
X112841525Y-94769376D01*
X112840135Y-94768171D01*
X112832452Y-94766500D01*
X111472115Y-94766500D01*
X111456876Y-94770975D01*
X111455671Y-94772365D01*
X111454000Y-94780048D01*
X110944659Y-94780048D01*
X110941525Y-94769376D01*
X110940135Y-94768171D01*
X110932452Y-94766500D01*
X110010115Y-94766500D01*
X109994876Y-94770975D01*
X109993671Y-94772365D01*
X109992000Y-94780048D01*
X109608500Y-94780048D01*
X109608500Y-94182114D01*
X109593022Y-94049357D01*
X109590247Y-94041710D01*
X109535184Y-93890015D01*
X109532687Y-93883136D01*
X109435731Y-93735253D01*
X109430420Y-93730222D01*
X109430416Y-93730217D01*
X109388451Y-93690464D01*
X109352752Y-93629096D01*
X109355899Y-93558169D01*
X109386008Y-93509896D01*
X109803950Y-93091954D01*
X109866262Y-93057928D01*
X109937077Y-93062993D01*
G37*
%TD.AperFunction*%
%TA.AperFunction,Conductor*%
G36*
X116946121Y-88216002D02*
G01*
X116992614Y-88269658D01*
X117004000Y-88322000D01*
X117004000Y-89033885D01*
X117008475Y-89049124D01*
X117009865Y-89050329D01*
X117017548Y-89052000D01*
X117065500Y-89052000D01*
X117133621Y-89072002D01*
X117180114Y-89125658D01*
X117191500Y-89178000D01*
X117191500Y-91489885D01*
X117195975Y-91505124D01*
X117197365Y-91506329D01*
X117205048Y-91508000D01*
X117239223Y-91508000D01*
X117246524Y-91507576D01*
X117368255Y-91493383D01*
X117382407Y-91490038D01*
X117411327Y-91479540D01*
X117482185Y-91475099D01*
X117543414Y-91508884D01*
X119789543Y-93755013D01*
X119796903Y-93763101D01*
X119800961Y-93769495D01*
X119806738Y-93774920D01*
X119849812Y-93815369D01*
X119852654Y-93818124D01*
X119872968Y-93838438D01*
X119876379Y-93841083D01*
X119885399Y-93848787D01*
X119917633Y-93879057D01*
X119924577Y-93882874D01*
X119924579Y-93882876D01*
X119935387Y-93888818D01*
X119951911Y-93899672D01*
X119961645Y-93907223D01*
X119961647Y-93907224D01*
X119967911Y-93912083D01*
X119969582Y-93912806D01*
X120015607Y-93962164D01*
X120017313Y-93966864D01*
X120021326Y-93972984D01*
X120021326Y-93972985D01*
X120074467Y-94054038D01*
X120114269Y-94114747D01*
X120143960Y-94142873D01*
X120179658Y-94204241D01*
X120176511Y-94275168D01*
X120150945Y-94318653D01*
X120110963Y-94363058D01*
X120081166Y-94414668D01*
X120031741Y-94500275D01*
X120015476Y-94528446D01*
X119994568Y-94592794D01*
X119960160Y-94698693D01*
X119956462Y-94710073D01*
X119955772Y-94716636D01*
X119955772Y-94716637D01*
X119949214Y-94779035D01*
X119936500Y-94900000D01*
X119937190Y-94906565D01*
X119940638Y-94939366D01*
X119956462Y-95089927D01*
X119958502Y-95096205D01*
X119958502Y-95096206D01*
X119965866Y-95118869D01*
X120015476Y-95271554D01*
X120018779Y-95277276D01*
X120018780Y-95277277D01*
X120022950Y-95284500D01*
X120110963Y-95436942D01*
X120115381Y-95441849D01*
X120115382Y-95441850D01*
X120232134Y-95571516D01*
X120238749Y-95578863D01*
X120244091Y-95582744D01*
X120244093Y-95582746D01*
X120386949Y-95686536D01*
X120393250Y-95691114D01*
X120399278Y-95693798D01*
X120399280Y-95693799D01*
X120515526Y-95745555D01*
X120567713Y-95768790D01*
X120653609Y-95787048D01*
X120748056Y-95807124D01*
X120748061Y-95807124D01*
X120754513Y-95808496D01*
X120945487Y-95808496D01*
X120951939Y-95807124D01*
X120951944Y-95807124D01*
X121046391Y-95787048D01*
X121132287Y-95768790D01*
X121184474Y-95745555D01*
X121300720Y-95693799D01*
X121300722Y-95693798D01*
X121306750Y-95691114D01*
X121340960Y-95666259D01*
X121407828Y-95642401D01*
X121476979Y-95658482D01*
X121526459Y-95709397D01*
X121541020Y-95768196D01*
X121541020Y-96705886D01*
X121521018Y-96774007D01*
X121504115Y-96794981D01*
X120950707Y-97348389D01*
X120888395Y-97382415D01*
X120824247Y-97379626D01*
X120792893Y-97369890D01*
X120792883Y-97369888D01*
X120787792Y-97368307D01*
X120782506Y-97367606D01*
X120782504Y-97367606D01*
X120564515Y-97338714D01*
X120564510Y-97338714D01*
X120559230Y-97338014D01*
X120553900Y-97338214D01*
X120553899Y-97338214D01*
X120460320Y-97341727D01*
X120328831Y-97346663D01*
X120270301Y-97358944D01*
X120108411Y-97392912D01*
X120108408Y-97392913D01*
X120103184Y-97394009D01*
X119888740Y-97478697D01*
X119691631Y-97598306D01*
X119687601Y-97601803D01*
X119552349Y-97719168D01*
X119517492Y-97749415D01*
X119514109Y-97753541D01*
X119514105Y-97753545D01*
X119479545Y-97795695D01*
X119371304Y-97927705D01*
X119368667Y-97932338D01*
X119368666Y-97932339D01*
X119335116Y-97991278D01*
X119284033Y-98040584D01*
X119214402Y-98054445D01*
X119148332Y-98028461D01*
X119121094Y-97999312D01*
X119120866Y-97998972D01*
X119020818Y-97850366D01*
X119020607Y-97850052D01*
X119020605Y-97850050D01*
X119017627Y-97845626D01*
X118858482Y-97678799D01*
X118851011Y-97673240D01*
X118804617Y-97638722D01*
X118764287Y-97608715D01*
X118721574Y-97552006D01*
X118713500Y-97507627D01*
X118713500Y-95490987D01*
X118714933Y-95472036D01*
X118716935Y-95458879D01*
X118716935Y-95458876D01*
X118718035Y-95451646D01*
X118717239Y-95441850D01*
X118713915Y-95400993D01*
X118713500Y-95390778D01*
X118713500Y-95382114D01*
X118710046Y-95352485D01*
X118709616Y-95348139D01*
X118704293Y-95282692D01*
X118704292Y-95282688D01*
X118703699Y-95275395D01*
X118701444Y-95268434D01*
X118700259Y-95262503D01*
X118698870Y-95256627D01*
X118698022Y-95249357D01*
X118673109Y-95180722D01*
X118671697Y-95176608D01*
X118669520Y-95169886D01*
X118654253Y-95122760D01*
X118651459Y-95114134D01*
X118651457Y-95114129D01*
X118649202Y-95107169D01*
X118645404Y-95100911D01*
X118642898Y-95095437D01*
X118640186Y-95090020D01*
X118637687Y-95083136D01*
X118630973Y-95072894D01*
X118597664Y-95022089D01*
X118595319Y-95018372D01*
X118560375Y-94960788D01*
X118560374Y-94960786D01*
X118557465Y-94955993D01*
X118549249Y-94946690D01*
X118547031Y-94944108D01*
X118544741Y-94941369D01*
X118540731Y-94935253D01*
X118488868Y-94886123D01*
X118486426Y-94883745D01*
X117487348Y-93884667D01*
X117453322Y-93822355D01*
X117458387Y-93751540D01*
X117500934Y-93694704D01*
X117505599Y-93691626D01*
X117506750Y-93691114D01*
X117644659Y-93590918D01*
X117655907Y-93582746D01*
X117655909Y-93582744D01*
X117661251Y-93578863D01*
X117704025Y-93531358D01*
X117784618Y-93441850D01*
X117784619Y-93441849D01*
X117789037Y-93436942D01*
X117884524Y-93271554D01*
X117925041Y-93146856D01*
X117941498Y-93096206D01*
X117941498Y-93096205D01*
X117943538Y-93089927D01*
X117959089Y-92941973D01*
X117962810Y-92906565D01*
X117963500Y-92900000D01*
X117960583Y-92872246D01*
X117944228Y-92716637D01*
X117944228Y-92716636D01*
X117943538Y-92710073D01*
X117935348Y-92684865D01*
X117904232Y-92589101D01*
X117884524Y-92528446D01*
X117871410Y-92505731D01*
X117816923Y-92411358D01*
X117789037Y-92363058D01*
X117661251Y-92221137D01*
X117655909Y-92217256D01*
X117655907Y-92217254D01*
X117512092Y-92112767D01*
X117512091Y-92112766D01*
X117506750Y-92108886D01*
X117500722Y-92106202D01*
X117500720Y-92106201D01*
X117338318Y-92033895D01*
X117338317Y-92033895D01*
X117332287Y-92031210D01*
X117185020Y-91999907D01*
X117157869Y-91990808D01*
X117155081Y-91989505D01*
X117151155Y-91987586D01*
X117092651Y-91957712D01*
X117092649Y-91957711D01*
X117086135Y-91954385D01*
X117079030Y-91952646D01*
X117073377Y-91950544D01*
X117067627Y-91948631D01*
X117060998Y-91945533D01*
X117053838Y-91944044D01*
X117053827Y-91944040D01*
X116989507Y-91930661D01*
X116985220Y-91929691D01*
X116919828Y-91913690D01*
X116919822Y-91913689D01*
X116914370Y-91912355D01*
X116908766Y-91912007D01*
X116908764Y-91912007D01*
X116901976Y-91911586D01*
X116898579Y-91911329D01*
X116895039Y-91911013D01*
X116887871Y-91909522D01*
X116880554Y-91909720D01*
X116832461Y-91911022D01*
X116821103Y-91911329D01*
X116816484Y-91911454D01*
X116813075Y-91911500D01*
X116291140Y-91911500D01*
X116223019Y-91891498D01*
X116204487Y-91876973D01*
X116137669Y-91813676D01*
X116132355Y-91808642D01*
X116021215Y-91744087D01*
X115972356Y-91692576D01*
X115958500Y-91635133D01*
X115958500Y-91415994D01*
X115959933Y-91397045D01*
X115960982Y-91390149D01*
X115991001Y-91325811D01*
X116051038Y-91287916D01*
X116122033Y-91288496D01*
X116172202Y-91317625D01*
X116212629Y-91355922D01*
X116224276Y-91364635D01*
X116364429Y-91446043D01*
X116377754Y-91451837D01*
X116533700Y-91499068D01*
X116546323Y-91501516D01*
X116616184Y-91507751D01*
X116621779Y-91508000D01*
X116665385Y-91508000D01*
X116680624Y-91503525D01*
X116681829Y-91502135D01*
X116683500Y-91494452D01*
X116683500Y-90034148D01*
X116689667Y-89995212D01*
X116698095Y-89969275D01*
X116722087Y-89895435D01*
X116743120Y-89830701D01*
X116743120Y-89830700D01*
X116745160Y-89824422D01*
X116757179Y-89710073D01*
X116764432Y-89641060D01*
X116765122Y-89634495D01*
X116745160Y-89444568D01*
X116740907Y-89431477D01*
X116688188Y-89269226D01*
X116686146Y-89262941D01*
X116678675Y-89250000D01*
X116639386Y-89181950D01*
X116590659Y-89097553D01*
X116567653Y-89072002D01*
X116528364Y-89028367D01*
X116497646Y-88964360D01*
X116496000Y-88944057D01*
X116496000Y-88322000D01*
X116516002Y-88253879D01*
X116569658Y-88207386D01*
X116622000Y-88196000D01*
X116878000Y-88196000D01*
X116946121Y-88216002D01*
G37*
%TD.AperFunction*%
%TA.AperFunction,Conductor*%
G36*
X135643927Y-90509425D02*
G01*
X135685086Y-90567273D01*
X135692000Y-90608437D01*
X135692000Y-93251629D01*
X135671998Y-93319750D01*
X135618342Y-93366243D01*
X135548068Y-93376347D01*
X135484003Y-93347297D01*
X135441262Y-93310664D01*
X135434588Y-93305671D01*
X135190036Y-93146856D01*
X135182746Y-93142782D01*
X134919348Y-93017712D01*
X134911580Y-93014636D01*
X134633949Y-92925499D01*
X134625860Y-92923482D01*
X134338860Y-92871842D01*
X134330582Y-92870914D01*
X134039277Y-92857685D01*
X134030955Y-92857859D01*
X133740454Y-92883275D01*
X133732216Y-92884550D01*
X133447640Y-92948160D01*
X133439636Y-92950516D01*
X133165975Y-93051205D01*
X133158359Y-93054595D01*
X132900424Y-93190589D01*
X132893308Y-93194967D01*
X132687909Y-93340937D01*
X132679513Y-93351592D01*
X132686517Y-93364806D01*
X134352615Y-95030905D01*
X134386641Y-95093217D01*
X134381576Y-95164033D01*
X134352615Y-95209095D01*
X134082500Y-95479210D01*
X132688358Y-96873353D01*
X132665956Y-96914378D01*
X132663455Y-96925878D01*
X132613256Y-96976083D01*
X132552863Y-96991500D01*
X132452094Y-96991500D01*
X132383973Y-96971498D01*
X132362999Y-96954595D01*
X130618980Y-95210576D01*
X131821587Y-95210576D01*
X131821937Y-95218928D01*
X131853428Y-95508809D01*
X131854877Y-95517026D01*
X131924431Y-95800197D01*
X131926958Y-95808162D01*
X132033349Y-96079642D01*
X132036905Y-96087199D01*
X132178275Y-96342236D01*
X132182784Y-96349234D01*
X132304637Y-96513308D01*
X132315829Y-96521752D01*
X132328335Y-96514954D01*
X133710480Y-95132810D01*
X133718092Y-95118869D01*
X133717961Y-95117034D01*
X133713710Y-95110420D01*
X132328996Y-93725707D01*
X132315796Y-93718499D01*
X132305602Y-93725778D01*
X132245107Y-93799425D01*
X132240252Y-93806206D01*
X132086590Y-94054038D01*
X132082677Y-94061398D01*
X131963147Y-94327364D01*
X131960237Y-94335187D01*
X131876929Y-94614637D01*
X131875084Y-94622758D01*
X131829468Y-94910770D01*
X131828712Y-94919081D01*
X131821587Y-95210576D01*
X130618980Y-95210576D01*
X130428391Y-95019987D01*
X130421031Y-95011899D01*
X130416973Y-95005505D01*
X130368121Y-94959630D01*
X130365280Y-94956876D01*
X130344966Y-94936562D01*
X130341555Y-94933917D01*
X130332533Y-94926211D01*
X130324941Y-94919081D01*
X130300301Y-94895943D01*
X130293357Y-94892126D01*
X130293355Y-94892124D01*
X130282547Y-94886182D01*
X130266023Y-94875328D01*
X130256286Y-94867775D01*
X130256285Y-94867775D01*
X130250023Y-94862917D01*
X130239061Y-94858173D01*
X130209449Y-94845359D01*
X130198790Y-94840137D01*
X130160048Y-94818838D01*
X130152365Y-94816866D01*
X130152364Y-94816865D01*
X130140432Y-94813801D01*
X130121728Y-94807397D01*
X130110415Y-94802501D01*
X130110408Y-94802499D01*
X130103136Y-94799352D01*
X130095312Y-94798113D01*
X130095309Y-94798112D01*
X130059465Y-94792435D01*
X130047844Y-94790028D01*
X130005026Y-94779035D01*
X130005567Y-94776928D01*
X129950156Y-94750662D01*
X129928644Y-94725706D01*
X129889746Y-94666376D01*
X129889743Y-94666373D01*
X129885731Y-94660253D01*
X129872999Y-94648192D01*
X129814520Y-94592794D01*
X129778822Y-94531424D01*
X129781970Y-94460498D01*
X129809700Y-94414668D01*
X129904752Y-94314329D01*
X129911358Y-94307355D01*
X130000175Y-94154445D01*
X130051433Y-93985204D01*
X130054329Y-93952754D01*
X130058251Y-93908815D01*
X130058251Y-93908809D01*
X130058500Y-93906022D01*
X130058500Y-93282133D01*
X130078502Y-93214012D01*
X130132158Y-93167519D01*
X130202432Y-93157415D01*
X130267012Y-93186909D01*
X130326065Y-93238079D01*
X130326070Y-93238082D01*
X130332881Y-93243984D01*
X130341079Y-93247728D01*
X130393251Y-93271554D01*
X130465830Y-93304700D01*
X130474745Y-93305982D01*
X130474746Y-93305982D01*
X130606052Y-93324861D01*
X130606059Y-93324862D01*
X130610500Y-93325500D01*
X132134500Y-93325500D01*
X132207579Y-93320273D01*
X132304332Y-93291864D01*
X132339170Y-93281635D01*
X132339172Y-93281634D01*
X132347816Y-93279096D01*
X132411487Y-93238177D01*
X132463191Y-93204949D01*
X132463194Y-93204947D01*
X132470771Y-93200077D01*
X132476672Y-93193267D01*
X132560582Y-93096431D01*
X132560584Y-93096428D01*
X132566484Y-93089619D01*
X132578644Y-93062993D01*
X132623458Y-92964864D01*
X132623458Y-92964863D01*
X132627200Y-92956670D01*
X132637569Y-92884550D01*
X132647361Y-92816448D01*
X132647362Y-92816441D01*
X132648000Y-92812000D01*
X132648000Y-91899371D01*
X132668002Y-91831250D01*
X132684905Y-91810276D01*
X133870673Y-90624508D01*
X133932985Y-90590482D01*
X134006866Y-90596737D01*
X134053182Y-90615403D01*
X134053188Y-90615405D01*
X134058749Y-90617646D01*
X134064630Y-90618794D01*
X134064635Y-90618796D01*
X134161316Y-90637676D01*
X134266341Y-90658186D01*
X134270873Y-90658408D01*
X134270876Y-90658408D01*
X134271220Y-90658425D01*
X134271237Y-90658425D01*
X134272762Y-90658500D01*
X134977406Y-90658500D01*
X135135558Y-90643411D01*
X135198455Y-90624959D01*
X135332765Y-90585557D01*
X135332767Y-90585556D01*
X135338518Y-90583869D01*
X135344334Y-90580874D01*
X135417264Y-90543312D01*
X135508309Y-90496421D01*
X135578027Y-90483012D01*
X135643927Y-90509425D01*
G37*
%TD.AperFunction*%
%TA.AperFunction,Conductor*%
G36*
X111516027Y-79016002D02*
G01*
X111537001Y-79032905D01*
X113109109Y-80605013D01*
X113116469Y-80613101D01*
X113120527Y-80619495D01*
X113126304Y-80624920D01*
X113169378Y-80665369D01*
X113172220Y-80668124D01*
X113192534Y-80688438D01*
X113195945Y-80691083D01*
X113204965Y-80698787D01*
X113237199Y-80729057D01*
X113244143Y-80732874D01*
X113244145Y-80732876D01*
X113254953Y-80738818D01*
X113271477Y-80749672D01*
X113287477Y-80762083D01*
X113319626Y-80775995D01*
X113328051Y-80779641D01*
X113338707Y-80784862D01*
X113377452Y-80806162D01*
X113385135Y-80808134D01*
X113385136Y-80808135D01*
X113397068Y-80811199D01*
X113415772Y-80817603D01*
X113427085Y-80822499D01*
X113427092Y-80822501D01*
X113434364Y-80825648D01*
X113442188Y-80826887D01*
X113442191Y-80826888D01*
X113478035Y-80832565D01*
X113489656Y-80834972D01*
X113526718Y-80844487D01*
X113532475Y-80845965D01*
X113533031Y-80846000D01*
X113552952Y-80846000D01*
X113572662Y-80847551D01*
X113584614Y-80849444D01*
X113584615Y-80849444D01*
X113592444Y-80850684D01*
X113600336Y-80849938D01*
X113636082Y-80846559D01*
X113647940Y-80846000D01*
X114118358Y-80846000D01*
X114186479Y-80866002D01*
X114223730Y-80902915D01*
X114264269Y-80964747D01*
X114392645Y-81086358D01*
X114545555Y-81175175D01*
X114677727Y-81215206D01*
X114707308Y-81224165D01*
X114714796Y-81226433D01*
X114721236Y-81227008D01*
X114721237Y-81227008D01*
X114791185Y-81233251D01*
X114791191Y-81233251D01*
X114793978Y-81233500D01*
X115064062Y-81233500D01*
X115132183Y-81253502D01*
X115178676Y-81307158D01*
X115189372Y-81372669D01*
X115187837Y-81387275D01*
X115186500Y-81400000D01*
X115187190Y-81406565D01*
X115204254Y-81568915D01*
X115206462Y-81589927D01*
X115208502Y-81596205D01*
X115208502Y-81596206D01*
X115226489Y-81651564D01*
X115228516Y-81722532D01*
X115191854Y-81783329D01*
X115128142Y-81814655D01*
X115106656Y-81816500D01*
X114657114Y-81816500D01*
X114563512Y-81827413D01*
X114531629Y-81831130D01*
X114531628Y-81831130D01*
X114524357Y-81831978D01*
X114517479Y-81834474D01*
X114517477Y-81834475D01*
X114410902Y-81873160D01*
X114358136Y-81892313D01*
X114271372Y-81949198D01*
X114226116Y-81978869D01*
X114210253Y-81989269D01*
X114088642Y-82117645D01*
X113999825Y-82270555D01*
X113948567Y-82439796D01*
X113947992Y-82446236D01*
X113947992Y-82446237D01*
X113943562Y-82495878D01*
X113941500Y-82518978D01*
X113941500Y-83097906D01*
X113921498Y-83166027D01*
X113904595Y-83187001D01*
X113023595Y-84068001D01*
X112961283Y-84102027D01*
X112890468Y-84096962D01*
X112833632Y-84054415D01*
X112808821Y-83987895D01*
X112808500Y-83978906D01*
X112808500Y-82932114D01*
X112793022Y-82799357D01*
X112776008Y-82752482D01*
X112735184Y-82640015D01*
X112732687Y-82633136D01*
X112635731Y-82485253D01*
X112507355Y-82363642D01*
X112354445Y-82274825D01*
X112185204Y-82223567D01*
X112178764Y-82222992D01*
X112178763Y-82222992D01*
X112108815Y-82216749D01*
X112108809Y-82216749D01*
X112106022Y-82216500D01*
X111307114Y-82216500D01*
X111211894Y-82227602D01*
X111181629Y-82231130D01*
X111181628Y-82231130D01*
X111174357Y-82231978D01*
X111167479Y-82234474D01*
X111167477Y-82234475D01*
X111046185Y-82278502D01*
X111008136Y-82292313D01*
X110860253Y-82389269D01*
X110738642Y-82517645D01*
X110734967Y-82523972D01*
X110734964Y-82523976D01*
X110719750Y-82550170D01*
X110668239Y-82599029D01*
X110598491Y-82612283D01*
X110532649Y-82585723D01*
X110511712Y-82564720D01*
X110509712Y-82562174D01*
X110501472Y-82553521D01*
X110350853Y-82422821D01*
X110341127Y-82415884D01*
X110168517Y-82316026D01*
X110157653Y-82311052D01*
X109969264Y-82245632D01*
X109968284Y-82245394D01*
X109957992Y-82246861D01*
X109954000Y-82260428D01*
X109954000Y-84935361D01*
X109957973Y-84948892D01*
X109967399Y-84950247D01*
X110056524Y-84928768D01*
X110067819Y-84924879D01*
X110249362Y-84842336D01*
X110259704Y-84836389D01*
X110422371Y-84721001D01*
X110431399Y-84713208D01*
X110518825Y-84621882D01*
X110580380Y-84586506D01*
X110651290Y-84590025D01*
X110709040Y-84631322D01*
X110715215Y-84639928D01*
X110728319Y-84659914D01*
X110764269Y-84714747D01*
X110892645Y-84836358D01*
X111045555Y-84925175D01*
X111214796Y-84976433D01*
X111221236Y-84977008D01*
X111221237Y-84977008D01*
X111291185Y-84983251D01*
X111291191Y-84983251D01*
X111293978Y-84983500D01*
X111888896Y-84983500D01*
X111957017Y-85003502D01*
X112003510Y-85057158D01*
X112013614Y-85127432D01*
X112007544Y-85150258D01*
X112006338Y-85152452D01*
X112004367Y-85160129D01*
X112004365Y-85160134D01*
X112001301Y-85172068D01*
X111994897Y-85190772D01*
X111990001Y-85202085D01*
X111989999Y-85202092D01*
X111986852Y-85209364D01*
X111985613Y-85217188D01*
X111985612Y-85217191D01*
X111979935Y-85253035D01*
X111977528Y-85264656D01*
X111969267Y-85296833D01*
X111932954Y-85357840D01*
X111869422Y-85389529D01*
X111847225Y-85391500D01*
X110215994Y-85391500D01*
X110197044Y-85390067D01*
X110183881Y-85388064D01*
X110183875Y-85388064D01*
X110176646Y-85386964D01*
X110169354Y-85387557D01*
X110169351Y-85387557D01*
X110125981Y-85391085D01*
X110115766Y-85391500D01*
X110107114Y-85391500D01*
X110093545Y-85393082D01*
X110077537Y-85394948D01*
X110073162Y-85395381D01*
X110007693Y-85400706D01*
X110007690Y-85400707D01*
X110000395Y-85401300D01*
X109993434Y-85403555D01*
X109987539Y-85404733D01*
X109981626Y-85406131D01*
X109974357Y-85406978D01*
X109905733Y-85431887D01*
X109901605Y-85433304D01*
X109839132Y-85453542D01*
X109839127Y-85453544D01*
X109832170Y-85455798D01*
X109825916Y-85459593D01*
X109820438Y-85462101D01*
X109815019Y-85464815D01*
X109808136Y-85467313D01*
X109747077Y-85507345D01*
X109743388Y-85509672D01*
X109741644Y-85510731D01*
X109685792Y-85544622D01*
X109685788Y-85544625D01*
X109680994Y-85547534D01*
X109672622Y-85554928D01*
X109671690Y-85555751D01*
X109669106Y-85557972D01*
X109666376Y-85560255D01*
X109660253Y-85564269D01*
X109655218Y-85569584D01*
X109611123Y-85616132D01*
X109608745Y-85618574D01*
X109466926Y-85760393D01*
X109404614Y-85794419D01*
X109333799Y-85789354D01*
X109276963Y-85746807D01*
X109263353Y-85721618D01*
X109263016Y-85721787D01*
X109253227Y-85702240D01*
X109164359Y-85566694D01*
X109155035Y-85555542D01*
X109037371Y-85444078D01*
X109025724Y-85435365D01*
X108885571Y-85353957D01*
X108872246Y-85348163D01*
X108716300Y-85300932D01*
X108703677Y-85298484D01*
X108633816Y-85292249D01*
X108628221Y-85292000D01*
X108372115Y-85292000D01*
X108356876Y-85296475D01*
X108355671Y-85297865D01*
X108354000Y-85305548D01*
X108354000Y-86428000D01*
X108333998Y-86496121D01*
X108280342Y-86542614D01*
X108228000Y-86554000D01*
X107484856Y-86554000D01*
X107427554Y-86540216D01*
X107422655Y-86537714D01*
X107422653Y-86537713D01*
X107416135Y-86534385D01*
X107409024Y-86532645D01*
X107403367Y-86530541D01*
X107397629Y-86528632D01*
X107390998Y-86525533D01*
X107383838Y-86524044D01*
X107383827Y-86524040D01*
X107319507Y-86510661D01*
X107315220Y-86509691D01*
X107249828Y-86493690D01*
X107249822Y-86493689D01*
X107244370Y-86492355D01*
X107238766Y-86492007D01*
X107238764Y-86492007D01*
X107231976Y-86491586D01*
X107228579Y-86491329D01*
X107225039Y-86491013D01*
X107217871Y-86489522D01*
X107210554Y-86489720D01*
X107162461Y-86491022D01*
X107151103Y-86491329D01*
X107146484Y-86491454D01*
X107143075Y-86491500D01*
X106557114Y-86491500D01*
X106461894Y-86502602D01*
X106431629Y-86506130D01*
X106431628Y-86506130D01*
X106424357Y-86506978D01*
X106417473Y-86509477D01*
X106417472Y-86509477D01*
X106409826Y-86512252D01*
X106348906Y-86518532D01*
X106300000Y-86511500D01*
X105528723Y-86511500D01*
X105460602Y-86491498D01*
X105414109Y-86437842D01*
X105404005Y-86367568D01*
X105408890Y-86346564D01*
X105441498Y-86246206D01*
X105441498Y-86246205D01*
X105443538Y-86239927D01*
X105444784Y-86228077D01*
X105462810Y-86056565D01*
X105463500Y-86050000D01*
X105461352Y-86029558D01*
X105444228Y-85866637D01*
X105444228Y-85866636D01*
X105443538Y-85860073D01*
X105426287Y-85806978D01*
X105396712Y-85715956D01*
X105384524Y-85678446D01*
X105362880Y-85640958D01*
X105346000Y-85577960D01*
X105346000Y-85097115D01*
X105344659Y-85092548D01*
X105854000Y-85092548D01*
X105854000Y-86039885D01*
X105858475Y-86055124D01*
X105859865Y-86056329D01*
X105867548Y-86058000D01*
X105928221Y-86058000D01*
X105933816Y-86057751D01*
X106088636Y-86043933D01*
X106099650Y-86041951D01*
X106301121Y-85986835D01*
X106311594Y-85982941D01*
X106500131Y-85893013D01*
X106509746Y-85887327D01*
X106683935Y-85762160D01*
X106685465Y-85764289D01*
X106740053Y-85739485D01*
X106810308Y-85749724D01*
X106863874Y-85796319D01*
X106883746Y-85864478D01*
X106878336Y-85900762D01*
X106875932Y-85908697D01*
X106873484Y-85921323D01*
X106867249Y-85991184D01*
X106867000Y-85996779D01*
X106867000Y-86027885D01*
X106871475Y-86043124D01*
X106872865Y-86044329D01*
X106880548Y-86046000D01*
X107827885Y-86046000D01*
X107843124Y-86041525D01*
X107844329Y-86040135D01*
X107846000Y-86032452D01*
X107846000Y-85310115D01*
X107841525Y-85294876D01*
X107840135Y-85293671D01*
X107832452Y-85292000D01*
X107585777Y-85292000D01*
X107578476Y-85292424D01*
X107456745Y-85306617D01*
X107442590Y-85309963D01*
X107290239Y-85365263D01*
X107277240Y-85371773D01*
X107217373Y-85411023D01*
X107149438Y-85431646D01*
X107081137Y-85412266D01*
X107034157Y-85359037D01*
X107023412Y-85288858D01*
X107032915Y-85255005D01*
X107046080Y-85225014D01*
X107049647Y-85214417D01*
X107077928Y-85096616D01*
X107077223Y-85082530D01*
X107068344Y-85079000D01*
X105872115Y-85079000D01*
X105856876Y-85083475D01*
X105855671Y-85084865D01*
X105854000Y-85092548D01*
X105344659Y-85092548D01*
X105341525Y-85081876D01*
X105340135Y-85080671D01*
X105332452Y-85079000D01*
X104131757Y-85079000D01*
X104117777Y-85083105D01*
X104116601Y-85090679D01*
X104128154Y-85128231D01*
X104129066Y-85199222D01*
X104091453Y-85259436D01*
X104081785Y-85267216D01*
X103944093Y-85367254D01*
X103944091Y-85367256D01*
X103938749Y-85371137D01*
X103934328Y-85376047D01*
X103934327Y-85376048D01*
X103848539Y-85471326D01*
X103810963Y-85513058D01*
X103788271Y-85552362D01*
X103719881Y-85670817D01*
X103715476Y-85678446D01*
X103703288Y-85715956D01*
X103673714Y-85806978D01*
X103656462Y-85860073D01*
X103655772Y-85866636D01*
X103655772Y-85866637D01*
X103638649Y-86029558D01*
X103636500Y-86050000D01*
X103637190Y-86056565D01*
X103655217Y-86228077D01*
X103656462Y-86239927D01*
X103658502Y-86246205D01*
X103658502Y-86246206D01*
X103677291Y-86304031D01*
X103715476Y-86421554D01*
X103718779Y-86427276D01*
X103718780Y-86427277D01*
X103735102Y-86455548D01*
X103810963Y-86586942D01*
X103815381Y-86591849D01*
X103815382Y-86591850D01*
X103924155Y-86712655D01*
X103938749Y-86728863D01*
X103944091Y-86732744D01*
X103944093Y-86732746D01*
X104087908Y-86837233D01*
X104093250Y-86841114D01*
X104099278Y-86843798D01*
X104099280Y-86843799D01*
X104261682Y-86916105D01*
X104267713Y-86918790D01*
X104386697Y-86944081D01*
X104449170Y-86977810D01*
X104483492Y-87039959D01*
X104486500Y-87067328D01*
X104486500Y-87475000D01*
X104491727Y-87548079D01*
X104493631Y-87554562D01*
X104494829Y-87561204D01*
X104493452Y-87561452D01*
X104496567Y-87604978D01*
X104487140Y-87670541D01*
X104487139Y-87670556D01*
X104486500Y-87675000D01*
X104486500Y-88125000D01*
X104491727Y-88198079D01*
X104493631Y-88204562D01*
X104494829Y-88211204D01*
X104493452Y-88211452D01*
X104496567Y-88254978D01*
X104487140Y-88320541D01*
X104487139Y-88320556D01*
X104486500Y-88325000D01*
X104486500Y-88775000D01*
X104491727Y-88848079D01*
X104493631Y-88854562D01*
X104494829Y-88861204D01*
X104493452Y-88861452D01*
X104496567Y-88904978D01*
X104487140Y-88970541D01*
X104487139Y-88970556D01*
X104486500Y-88975000D01*
X104486500Y-89425000D01*
X104491727Y-89498079D01*
X104493630Y-89504559D01*
X104494829Y-89511206D01*
X104493705Y-89511409D01*
X104496903Y-89556124D01*
X104489578Y-89607066D01*
X104491839Y-89622791D01*
X104494072Y-89625368D01*
X104543454Y-89657104D01*
X104554227Y-89671495D01*
X104607051Y-89753691D01*
X104607053Y-89753694D01*
X104611923Y-89761271D01*
X104677228Y-89817858D01*
X104718679Y-89853776D01*
X104757062Y-89913502D01*
X104757062Y-89984499D01*
X104718678Y-90044225D01*
X104654097Y-90073718D01*
X104636166Y-90075000D01*
X104505115Y-90075000D01*
X104489876Y-90079475D01*
X104470360Y-90101998D01*
X104463197Y-90116306D01*
X104397178Y-90153691D01*
X104267713Y-90181210D01*
X104261683Y-90183895D01*
X104261682Y-90183895D01*
X104099280Y-90256201D01*
X104099278Y-90256202D01*
X104093250Y-90258886D01*
X104087909Y-90262766D01*
X104087908Y-90262767D01*
X103944093Y-90367254D01*
X103944091Y-90367256D01*
X103938749Y-90371137D01*
X103934328Y-90376047D01*
X103934327Y-90376048D01*
X103819763Y-90503285D01*
X103810963Y-90513058D01*
X103766262Y-90590482D01*
X103735704Y-90643411D01*
X103715476Y-90678446D01*
X103656462Y-90860073D01*
X103655772Y-90866636D01*
X103655772Y-90866637D01*
X103651269Y-90909477D01*
X103636500Y-91050000D01*
X103637190Y-91056565D01*
X103653370Y-91210504D01*
X103656462Y-91239927D01*
X103658502Y-91246205D01*
X103658502Y-91246206D01*
X103688893Y-91339741D01*
X103715476Y-91421554D01*
X103718779Y-91427276D01*
X103718780Y-91427277D01*
X103724360Y-91436942D01*
X103810963Y-91586942D01*
X103815381Y-91591849D01*
X103815382Y-91591850D01*
X103852790Y-91633396D01*
X103938749Y-91728863D01*
X103944091Y-91732744D01*
X103944093Y-91732746D01*
X104082851Y-91833559D01*
X104126205Y-91889781D01*
X104131309Y-91964909D01*
X104122072Y-92003384D01*
X104122777Y-92017470D01*
X104131656Y-92021000D01*
X105327885Y-92021000D01*
X105343124Y-92016525D01*
X105344329Y-92015135D01*
X105346000Y-92007452D01*
X105346000Y-91522040D01*
X105362880Y-91459042D01*
X105384524Y-91421554D01*
X105411107Y-91339741D01*
X105441498Y-91246206D01*
X105441498Y-91246205D01*
X105443538Y-91239927D01*
X105446631Y-91210504D01*
X105462810Y-91056565D01*
X105463500Y-91050000D01*
X105448731Y-90909477D01*
X105444228Y-90866637D01*
X105444228Y-90866636D01*
X105443538Y-90860073D01*
X105410224Y-90757541D01*
X105394336Y-90708644D01*
X105392309Y-90637676D01*
X105418943Y-90587197D01*
X105423329Y-90582136D01*
X105425000Y-90574452D01*
X105425000Y-90075000D01*
X105427021Y-90075000D01*
X105427021Y-90029001D01*
X105465405Y-89969275D01*
X105529986Y-89939782D01*
X105547917Y-89938500D01*
X105749000Y-89938500D01*
X105817121Y-89958502D01*
X105863614Y-90012158D01*
X105875000Y-90064500D01*
X105875000Y-90569885D01*
X105879475Y-90585124D01*
X105880865Y-90586329D01*
X105888548Y-90588000D01*
X106297743Y-90588000D01*
X106302250Y-90587839D01*
X106366269Y-90583260D01*
X106379491Y-90580874D01*
X106504458Y-90544181D01*
X106520692Y-90536767D01*
X106628360Y-90467574D01*
X106641851Y-90455884D01*
X106699102Y-90389813D01*
X106758828Y-90351429D01*
X106829824Y-90351429D01*
X106889550Y-90389813D01*
X106912765Y-90429335D01*
X106917313Y-90441864D01*
X106978199Y-90534731D01*
X107008452Y-90580874D01*
X107014269Y-90589747D01*
X107019580Y-90594778D01*
X107019584Y-90594783D01*
X107085840Y-90657547D01*
X107121539Y-90718916D01*
X107118392Y-90789842D01*
X107090661Y-90835673D01*
X106994078Y-90937629D01*
X106985365Y-90949276D01*
X106903957Y-91089429D01*
X106898163Y-91102754D01*
X106852455Y-91253673D01*
X106813566Y-91313071D01*
X106748737Y-91342015D01*
X106678551Y-91331315D01*
X106647065Y-91310344D01*
X106627646Y-91292674D01*
X106618736Y-91285912D01*
X106441799Y-91174920D01*
X106431829Y-91169839D01*
X106238027Y-91091931D01*
X106227328Y-91088700D01*
X106021818Y-91046142D01*
X106012679Y-91044939D01*
X105963533Y-91042105D01*
X105959887Y-91042000D01*
X105872115Y-91042000D01*
X105856876Y-91046475D01*
X105855671Y-91047865D01*
X105854000Y-91055548D01*
X105854000Y-92403000D01*
X105833998Y-92471121D01*
X105780342Y-92517614D01*
X105728000Y-92529000D01*
X104131757Y-92529000D01*
X104117777Y-92533105D01*
X104116601Y-92540679D01*
X104177123Y-92737405D01*
X104181344Y-92747751D01*
X104277151Y-92933373D01*
X104283136Y-92942804D01*
X104410296Y-93108521D01*
X104417860Y-93116747D01*
X104572353Y-93257325D01*
X104581264Y-93264088D01*
X104758201Y-93375080D01*
X104768171Y-93380161D01*
X104961973Y-93458069D01*
X104972672Y-93461300D01*
X105178182Y-93503858D01*
X105187321Y-93505061D01*
X105236467Y-93507895D01*
X105240113Y-93508000D01*
X105291685Y-93508000D01*
X105359806Y-93528002D01*
X105406299Y-93581658D01*
X105416403Y-93651932D01*
X105383158Y-93720652D01*
X105338642Y-93767645D01*
X105249825Y-93920555D01*
X105198567Y-94089796D01*
X105197992Y-94096236D01*
X105197992Y-94096237D01*
X105193423Y-94147437D01*
X105191500Y-94168978D01*
X105191500Y-94792886D01*
X105206978Y-94925643D01*
X105209474Y-94932521D01*
X105209475Y-94932523D01*
X105253731Y-95054445D01*
X105267313Y-95091864D01*
X105324115Y-95178502D01*
X105350620Y-95218928D01*
X105364269Y-95239747D01*
X105369581Y-95244779D01*
X105435480Y-95307206D01*
X105471178Y-95368576D01*
X105468030Y-95439502D01*
X105440300Y-95485332D01*
X105338642Y-95592645D01*
X105249825Y-95745555D01*
X105246944Y-95743881D01*
X105210934Y-95787048D01*
X105143201Y-95808324D01*
X105074717Y-95789603D01*
X105039291Y-95756940D01*
X104923254Y-95598976D01*
X104871942Y-95529123D01*
X104865172Y-95521837D01*
X104638245Y-95277636D01*
X104638243Y-95277635D01*
X104635773Y-95274976D01*
X104633019Y-95272624D01*
X104633015Y-95272620D01*
X104499397Y-95158500D01*
X104371959Y-95049657D01*
X104368956Y-95047639D01*
X104368948Y-95047633D01*
X104165273Y-94910770D01*
X104083996Y-94856154D01*
X104080787Y-94854498D01*
X104080779Y-94854493D01*
X103778921Y-94698693D01*
X103775701Y-94697031D01*
X103451159Y-94574397D01*
X103447647Y-94573515D01*
X103447638Y-94573512D01*
X103245438Y-94522723D01*
X103114674Y-94489877D01*
X102970188Y-94470855D01*
X102774307Y-94445067D01*
X102774299Y-94445066D01*
X102770703Y-94444593D01*
X102625739Y-94442316D01*
X102427450Y-94439200D01*
X102427446Y-94439200D01*
X102423808Y-94439143D01*
X102420194Y-94439504D01*
X102420188Y-94439504D01*
X102201243Y-94461358D01*
X102078585Y-94473601D01*
X101956248Y-94500275D01*
X101813387Y-94531424D01*
X101739610Y-94547510D01*
X101736183Y-94548683D01*
X101736177Y-94548685D01*
X101414808Y-94658714D01*
X101414803Y-94658716D01*
X101411377Y-94659889D01*
X101408109Y-94661448D01*
X101408101Y-94661451D01*
X101319328Y-94703794D01*
X101098235Y-94809250D01*
X101095156Y-94811181D01*
X101095155Y-94811182D01*
X101076861Y-94822658D01*
X100804336Y-94993612D01*
X100712780Y-95066962D01*
X100647111Y-95093944D01*
X100577279Y-95081139D01*
X100525455Y-95032613D01*
X100508000Y-94968628D01*
X100508000Y-93293703D01*
X100528002Y-93225582D01*
X100581658Y-93179089D01*
X100651932Y-93168985D01*
X100721131Y-93202685D01*
X100796347Y-93274689D01*
X100805722Y-93282093D01*
X100969258Y-93387686D01*
X100979872Y-93393187D01*
X101160432Y-93465956D01*
X101171873Y-93469345D01*
X101364382Y-93506938D01*
X101372817Y-93507963D01*
X101374328Y-93508000D01*
X101527885Y-93508000D01*
X101543124Y-93503525D01*
X101544329Y-93502135D01*
X101546000Y-93494452D01*
X101546000Y-92692548D01*
X102054000Y-92692548D01*
X102054000Y-93489885D01*
X102058475Y-93505124D01*
X102059865Y-93506329D01*
X102067548Y-93508000D01*
X102174413Y-93508000D01*
X102180390Y-93507715D01*
X102324759Y-93493941D01*
X102336493Y-93491682D01*
X102523300Y-93436879D01*
X102534375Y-93432449D01*
X102707450Y-93343310D01*
X102717496Y-93336860D01*
X102870589Y-93216605D01*
X102879238Y-93208368D01*
X103006826Y-93061336D01*
X103013762Y-93051612D01*
X103111243Y-92883110D01*
X103116217Y-92872246D01*
X103179140Y-92691047D01*
X103177993Y-92682995D01*
X103164421Y-92679000D01*
X102072115Y-92679000D01*
X102056876Y-92683475D01*
X102055671Y-92684865D01*
X102054000Y-92692548D01*
X101546000Y-92692548D01*
X101546000Y-91360115D01*
X101544659Y-91355548D01*
X102054000Y-91355548D01*
X102054000Y-92152885D01*
X102058475Y-92168124D01*
X102059865Y-92169329D01*
X102067548Y-92171000D01*
X103159762Y-92171000D01*
X103173293Y-92167027D01*
X103174648Y-92157602D01*
X103155130Y-92076615D01*
X103151241Y-92065320D01*
X103070664Y-91888100D01*
X103064717Y-91877758D01*
X102952077Y-91718964D01*
X102944284Y-91709936D01*
X102803653Y-91575311D01*
X102794278Y-91567907D01*
X102630742Y-91462314D01*
X102620128Y-91456813D01*
X102439568Y-91384044D01*
X102428127Y-91380655D01*
X102235618Y-91343062D01*
X102227183Y-91342037D01*
X102225672Y-91342000D01*
X102072115Y-91342000D01*
X102056876Y-91346475D01*
X102055671Y-91347865D01*
X102054000Y-91355548D01*
X101544659Y-91355548D01*
X101541525Y-91344876D01*
X101540135Y-91343671D01*
X101532452Y-91342000D01*
X101425587Y-91342000D01*
X101419610Y-91342285D01*
X101275241Y-91356059D01*
X101263507Y-91358318D01*
X101076700Y-91413121D01*
X101065625Y-91417551D01*
X100892550Y-91506690D01*
X100882504Y-91513140D01*
X100729411Y-91633396D01*
X100720891Y-91641509D01*
X100657765Y-91674000D01*
X100587095Y-91667206D01*
X100531316Y-91623282D01*
X100508000Y-91550262D01*
X100508000Y-85543703D01*
X100528002Y-85475582D01*
X100581658Y-85429089D01*
X100651932Y-85418985D01*
X100721131Y-85452685D01*
X100796347Y-85524689D01*
X100805722Y-85532093D01*
X100969258Y-85637686D01*
X100979872Y-85643187D01*
X101160432Y-85715956D01*
X101171873Y-85719345D01*
X101364382Y-85756938D01*
X101372817Y-85757963D01*
X101374328Y-85758000D01*
X101527885Y-85758000D01*
X101543124Y-85753525D01*
X101544329Y-85752135D01*
X101546000Y-85744452D01*
X101546000Y-84942548D01*
X102054000Y-84942548D01*
X102054000Y-85739885D01*
X102058475Y-85755124D01*
X102059865Y-85756329D01*
X102067548Y-85758000D01*
X102174413Y-85758000D01*
X102180390Y-85757715D01*
X102324759Y-85743941D01*
X102336493Y-85741682D01*
X102523300Y-85686879D01*
X102534375Y-85682449D01*
X102707450Y-85593310D01*
X102717496Y-85586860D01*
X102870589Y-85466605D01*
X102879238Y-85458368D01*
X103006826Y-85311336D01*
X103013762Y-85301612D01*
X103111243Y-85133110D01*
X103116217Y-85122246D01*
X103179140Y-84941047D01*
X103177993Y-84932995D01*
X103164421Y-84929000D01*
X102072115Y-84929000D01*
X102056876Y-84933475D01*
X102055671Y-84934865D01*
X102054000Y-84942548D01*
X101546000Y-84942548D01*
X101546000Y-84553384D01*
X104122072Y-84553384D01*
X104122777Y-84567470D01*
X104131656Y-84571000D01*
X105327885Y-84571000D01*
X105343124Y-84566525D01*
X105344329Y-84565135D01*
X105346000Y-84557452D01*
X105346000Y-83610115D01*
X105344659Y-83605548D01*
X105854000Y-83605548D01*
X105854000Y-84552885D01*
X105858475Y-84568124D01*
X105859865Y-84569329D01*
X105867548Y-84571000D01*
X107068243Y-84571000D01*
X107082223Y-84566895D01*
X107083399Y-84559321D01*
X107022877Y-84362595D01*
X107018656Y-84352249D01*
X106922849Y-84166627D01*
X106916864Y-84157196D01*
X106789704Y-83991479D01*
X106782140Y-83983253D01*
X106654982Y-83867548D01*
X108592000Y-83867548D01*
X108592000Y-83924413D01*
X108592285Y-83930390D01*
X108606510Y-84079486D01*
X108608769Y-84091220D01*
X108664909Y-84282584D01*
X108669339Y-84293660D01*
X108760652Y-84470956D01*
X108767102Y-84481002D01*
X108890291Y-84637829D01*
X108898528Y-84646479D01*
X109049147Y-84777179D01*
X109058873Y-84784116D01*
X109231483Y-84883974D01*
X109242347Y-84888948D01*
X109430736Y-84954368D01*
X109431716Y-84954606D01*
X109442008Y-84953139D01*
X109446000Y-84939572D01*
X109446000Y-83872115D01*
X109441525Y-83856876D01*
X109440135Y-83855671D01*
X109432452Y-83854000D01*
X108610115Y-83854000D01*
X108594876Y-83858475D01*
X108593671Y-83859865D01*
X108592000Y-83867548D01*
X106654982Y-83867548D01*
X106627647Y-83842675D01*
X106618736Y-83835912D01*
X106441799Y-83724920D01*
X106431829Y-83719839D01*
X106238027Y-83641931D01*
X106227328Y-83638700D01*
X106021818Y-83596142D01*
X106012679Y-83594939D01*
X105963533Y-83592105D01*
X105959887Y-83592000D01*
X105872115Y-83592000D01*
X105856876Y-83596475D01*
X105855671Y-83597865D01*
X105854000Y-83605548D01*
X105344659Y-83605548D01*
X105341525Y-83594876D01*
X105340135Y-83593671D01*
X105332452Y-83592000D01*
X105271779Y-83592000D01*
X105266184Y-83592249D01*
X105111364Y-83606067D01*
X105100350Y-83608049D01*
X104898879Y-83663165D01*
X104888406Y-83667059D01*
X104699869Y-83756987D01*
X104690254Y-83762673D01*
X104520624Y-83884564D01*
X104512158Y-83891872D01*
X104366796Y-84041873D01*
X104359766Y-84050555D01*
X104243258Y-84223937D01*
X104237879Y-84233722D01*
X104153918Y-84424991D01*
X104150353Y-84435583D01*
X104122072Y-84553384D01*
X101546000Y-84553384D01*
X101546000Y-83610115D01*
X101544659Y-83605548D01*
X102054000Y-83605548D01*
X102054000Y-84402885D01*
X102058475Y-84418124D01*
X102059865Y-84419329D01*
X102067548Y-84421000D01*
X103159762Y-84421000D01*
X103173293Y-84417027D01*
X103174648Y-84407602D01*
X103155130Y-84326615D01*
X103151241Y-84315320D01*
X103070664Y-84138100D01*
X103064717Y-84127758D01*
X102952077Y-83968964D01*
X102944284Y-83959936D01*
X102803653Y-83825311D01*
X102794278Y-83817907D01*
X102630742Y-83712314D01*
X102620128Y-83706813D01*
X102439568Y-83634044D01*
X102428127Y-83630655D01*
X102235618Y-83593062D01*
X102227183Y-83592037D01*
X102225672Y-83592000D01*
X102072115Y-83592000D01*
X102056876Y-83596475D01*
X102055671Y-83597865D01*
X102054000Y-83605548D01*
X101544659Y-83605548D01*
X101541525Y-83594876D01*
X101540135Y-83593671D01*
X101532452Y-83592000D01*
X101425587Y-83592000D01*
X101419610Y-83592285D01*
X101275241Y-83606059D01*
X101263507Y-83608318D01*
X101076700Y-83663121D01*
X101065625Y-83667551D01*
X100892550Y-83756690D01*
X100882504Y-83763140D01*
X100729411Y-83883396D01*
X100720891Y-83891509D01*
X100657765Y-83924000D01*
X100587095Y-83917206D01*
X100531316Y-83873282D01*
X100508000Y-83800262D01*
X100508000Y-83224321D01*
X108592000Y-83224321D01*
X108592000Y-83327885D01*
X108596475Y-83343124D01*
X108597865Y-83344329D01*
X108605548Y-83346000D01*
X109427885Y-83346000D01*
X109443124Y-83341525D01*
X109444329Y-83340135D01*
X109446000Y-83332452D01*
X109446000Y-82264639D01*
X109442027Y-82251108D01*
X109432601Y-82249753D01*
X109343476Y-82271232D01*
X109332181Y-82275121D01*
X109150638Y-82357664D01*
X109140296Y-82363611D01*
X108977629Y-82478999D01*
X108968600Y-82486792D01*
X108830689Y-82630856D01*
X108823293Y-82640221D01*
X108715114Y-82807760D01*
X108709618Y-82818364D01*
X108635078Y-83003322D01*
X108631684Y-83014781D01*
X108593180Y-83211944D01*
X108592091Y-83220912D01*
X108592075Y-83221228D01*
X108592000Y-83224321D01*
X100508000Y-83224321D01*
X100508000Y-82133043D01*
X100528002Y-82064922D01*
X100581658Y-82018429D01*
X100651932Y-82008325D01*
X100707527Y-82030720D01*
X100935286Y-82194382D01*
X101238431Y-82363111D01*
X101558960Y-82495878D01*
X101562454Y-82496873D01*
X101562456Y-82496874D01*
X101889124Y-82589928D01*
X101889129Y-82589929D01*
X101892625Y-82590925D01*
X101896206Y-82591511D01*
X101896213Y-82591513D01*
X102231423Y-82646406D01*
X102231427Y-82646406D01*
X102235003Y-82646992D01*
X102238629Y-82647163D01*
X102577930Y-82663164D01*
X102577931Y-82663164D01*
X102581557Y-82663335D01*
X102592226Y-82662608D01*
X102924061Y-82639986D01*
X102924069Y-82639985D01*
X102927692Y-82639738D01*
X102931267Y-82639075D01*
X102931270Y-82639075D01*
X103265256Y-82577174D01*
X103265260Y-82577173D01*
X103268821Y-82576513D01*
X103600422Y-82474499D01*
X103918100Y-82335048D01*
X104217645Y-82160008D01*
X104266569Y-82123275D01*
X104492180Y-81953882D01*
X104492184Y-81953879D01*
X104495087Y-81951699D01*
X104746747Y-81712883D01*
X104969290Y-81446724D01*
X104979934Y-81430521D01*
X105157781Y-81159775D01*
X105157781Y-81159774D01*
X105159768Y-81156750D01*
X105162009Y-81152296D01*
X105167555Y-81141268D01*
X105216032Y-81089397D01*
X105284856Y-81071970D01*
X105343405Y-81088927D01*
X105485664Y-81171557D01*
X105499005Y-81177358D01*
X105653551Y-81224165D01*
X105666182Y-81226615D01*
X105734933Y-81232751D01*
X105740528Y-81233000D01*
X105977885Y-81233000D01*
X105993124Y-81228525D01*
X105994329Y-81227135D01*
X105996000Y-81219452D01*
X105996000Y-80505048D01*
X106504000Y-80505048D01*
X106504000Y-81214885D01*
X106508475Y-81230124D01*
X106509865Y-81231329D01*
X106517548Y-81233000D01*
X106745473Y-81233000D01*
X106752777Y-81232575D01*
X106873068Y-81218551D01*
X106887220Y-81215206D01*
X107038213Y-81160398D01*
X107051212Y-81153888D01*
X107185547Y-81065814D01*
X107196699Y-81056490D01*
X107307167Y-80939877D01*
X107315880Y-80928230D01*
X107396559Y-80789332D01*
X107402358Y-80775995D01*
X107449165Y-80621449D01*
X107451615Y-80608818D01*
X107457751Y-80540067D01*
X107458000Y-80534472D01*
X107458000Y-80509615D01*
X107453525Y-80494376D01*
X107452135Y-80493171D01*
X107444452Y-80491500D01*
X106522115Y-80491500D01*
X106506876Y-80495975D01*
X106505671Y-80497365D01*
X106504000Y-80505048D01*
X105996000Y-80505048D01*
X105996000Y-80109500D01*
X106016002Y-80041379D01*
X106069658Y-79994886D01*
X106122000Y-79983500D01*
X107439885Y-79983500D01*
X107455124Y-79979025D01*
X107456329Y-79977635D01*
X107458000Y-79969952D01*
X107458000Y-79954527D01*
X107457575Y-79947223D01*
X107443551Y-79826932D01*
X107440206Y-79812780D01*
X107385398Y-79661787D01*
X107378888Y-79648788D01*
X107290814Y-79514453D01*
X107281490Y-79503301D01*
X107163289Y-79391329D01*
X107127591Y-79329960D01*
X107130738Y-79259033D01*
X107171732Y-79201067D01*
X107180856Y-79194485D01*
X107185866Y-79191200D01*
X107185867Y-79191199D01*
X107191988Y-79187186D01*
X107312604Y-79059861D01*
X107316281Y-79053530D01*
X107320665Y-79047670D01*
X107323037Y-79049444D01*
X107364806Y-79009843D01*
X107422224Y-78996000D01*
X111447906Y-78996000D01*
X111516027Y-79016002D01*
G37*
%TD.AperFunction*%
%TA.AperFunction,Conductor*%
G36*
X112138420Y-87968873D02*
G01*
X112146610Y-87969951D01*
X112146613Y-87969952D01*
X112245435Y-87982962D01*
X112245436Y-87982962D01*
X112249522Y-87983500D01*
X112450478Y-87983500D01*
X112454564Y-87982962D01*
X112454565Y-87982962D01*
X112553387Y-87969952D01*
X112553390Y-87969951D01*
X112561580Y-87968873D01*
X112568033Y-87966200D01*
X112631967Y-87966200D01*
X112638420Y-87968873D01*
X112646610Y-87969951D01*
X112646613Y-87969952D01*
X112745435Y-87982962D01*
X112745436Y-87982962D01*
X112749522Y-87983500D01*
X112950478Y-87983500D01*
X112954564Y-87982962D01*
X112954565Y-87982962D01*
X113053387Y-87969952D01*
X113053390Y-87969951D01*
X113061580Y-87968873D01*
X113068033Y-87966200D01*
X113131967Y-87966200D01*
X113138420Y-87968873D01*
X113146610Y-87969951D01*
X113146613Y-87969952D01*
X113245435Y-87982962D01*
X113245436Y-87982962D01*
X113249522Y-87983500D01*
X113450478Y-87983500D01*
X113454564Y-87982962D01*
X113454565Y-87982962D01*
X113553387Y-87969952D01*
X113553390Y-87969951D01*
X113561580Y-87968873D01*
X113568033Y-87966200D01*
X113631967Y-87966200D01*
X113638420Y-87968873D01*
X113646610Y-87969951D01*
X113646613Y-87969952D01*
X113745435Y-87982962D01*
X113745436Y-87982962D01*
X113749522Y-87983500D01*
X113750074Y-87983500D01*
X113815963Y-88007630D01*
X113858847Y-88064211D01*
X113866500Y-88099394D01*
X113866500Y-88100478D01*
X113867038Y-88104564D01*
X113867038Y-88104565D01*
X113879350Y-88198079D01*
X113881127Y-88211580D01*
X113883800Y-88218033D01*
X113883800Y-88281967D01*
X113881127Y-88288420D01*
X113880049Y-88296610D01*
X113880048Y-88296613D01*
X113871071Y-88364803D01*
X113866500Y-88399522D01*
X113866500Y-88600478D01*
X113867038Y-88604564D01*
X113867038Y-88604565D01*
X113876463Y-88676152D01*
X113881127Y-88711580D01*
X113883800Y-88718033D01*
X113883800Y-88781967D01*
X113881127Y-88788420D01*
X113880049Y-88796610D01*
X113880048Y-88796613D01*
X113867709Y-88890341D01*
X113866500Y-88899522D01*
X113866500Y-89100478D01*
X113867038Y-89104564D01*
X113867038Y-89104565D01*
X113877146Y-89181340D01*
X113881127Y-89211580D01*
X113883800Y-89218033D01*
X113883800Y-89281967D01*
X113881127Y-89288420D01*
X113880049Y-89296610D01*
X113880048Y-89296613D01*
X113870436Y-89369627D01*
X113866500Y-89399522D01*
X113866500Y-89600478D01*
X113867038Y-89604564D01*
X113867038Y-89604565D01*
X113875850Y-89671495D01*
X113881127Y-89711580D01*
X113883800Y-89718033D01*
X113883800Y-89781967D01*
X113881127Y-89788420D01*
X113880049Y-89796610D01*
X113880048Y-89796613D01*
X113872100Y-89856984D01*
X113866500Y-89899522D01*
X113866500Y-89900074D01*
X113842370Y-89965963D01*
X113785789Y-90008847D01*
X113750606Y-90016500D01*
X113749522Y-90016500D01*
X113745436Y-90017038D01*
X113745435Y-90017038D01*
X113646613Y-90030048D01*
X113646610Y-90030049D01*
X113638420Y-90031127D01*
X113631967Y-90033800D01*
X113568033Y-90033800D01*
X113561580Y-90031127D01*
X113553390Y-90030049D01*
X113553387Y-90030048D01*
X113454565Y-90017038D01*
X113454564Y-90017038D01*
X113450478Y-90016500D01*
X113249522Y-90016500D01*
X113245436Y-90017038D01*
X113245435Y-90017038D01*
X113146613Y-90030048D01*
X113146610Y-90030049D01*
X113138420Y-90031127D01*
X113131967Y-90033800D01*
X113068033Y-90033800D01*
X113061580Y-90031127D01*
X113053390Y-90030049D01*
X113053387Y-90030048D01*
X112954565Y-90017038D01*
X112954564Y-90017038D01*
X112950478Y-90016500D01*
X112749522Y-90016500D01*
X112745436Y-90017038D01*
X112745435Y-90017038D01*
X112646613Y-90030048D01*
X112646610Y-90030049D01*
X112638420Y-90031127D01*
X112631967Y-90033800D01*
X112568033Y-90033800D01*
X112561580Y-90031127D01*
X112553390Y-90030049D01*
X112553387Y-90030048D01*
X112454565Y-90017038D01*
X112454564Y-90017038D01*
X112450478Y-90016500D01*
X112249522Y-90016500D01*
X112245436Y-90017038D01*
X112245435Y-90017038D01*
X112207933Y-90021975D01*
X112138420Y-90031127D01*
X112130793Y-90034286D01*
X112130790Y-90034287D01*
X112077637Y-90056304D01*
X111999500Y-90088669D01*
X111880206Y-90180206D01*
X111788669Y-90299500D01*
X111785509Y-90307130D01*
X111738343Y-90421000D01*
X111731127Y-90438420D01*
X111716500Y-90549522D01*
X111716500Y-90600747D01*
X111696498Y-90668868D01*
X111642842Y-90715361D01*
X111572568Y-90725465D01*
X111507988Y-90695971D01*
X111470667Y-90639683D01*
X111440044Y-90545435D01*
X111434524Y-90528446D01*
X111428821Y-90518567D01*
X111342338Y-90368776D01*
X111339037Y-90363058D01*
X111310406Y-90331260D01*
X111279690Y-90267254D01*
X111288455Y-90196801D01*
X111333918Y-90142270D01*
X111387598Y-90122030D01*
X111411580Y-90118873D01*
X111419207Y-90115714D01*
X111419210Y-90115713D01*
X111484500Y-90088669D01*
X111550500Y-90061331D01*
X111669794Y-89969794D01*
X111761331Y-89850500D01*
X111818873Y-89711580D01*
X111833500Y-89600478D01*
X111833500Y-89399522D01*
X111829564Y-89369627D01*
X111819952Y-89296613D01*
X111819951Y-89296610D01*
X111818873Y-89288420D01*
X111816200Y-89281967D01*
X111816200Y-89218033D01*
X111818873Y-89211580D01*
X111822855Y-89181340D01*
X111832962Y-89104565D01*
X111832962Y-89104564D01*
X111833500Y-89100478D01*
X111833500Y-88899522D01*
X111832291Y-88890341D01*
X111819952Y-88796613D01*
X111819951Y-88796610D01*
X111818873Y-88788420D01*
X111816200Y-88781967D01*
X111816200Y-88718033D01*
X111818873Y-88711580D01*
X111823538Y-88676152D01*
X111832962Y-88604565D01*
X111832962Y-88604564D01*
X111833500Y-88600478D01*
X111833500Y-88399522D01*
X111828929Y-88364803D01*
X111819952Y-88296613D01*
X111819951Y-88296610D01*
X111818873Y-88288420D01*
X111816200Y-88281967D01*
X111816200Y-88218033D01*
X111818873Y-88211580D01*
X111820651Y-88198079D01*
X111832962Y-88104565D01*
X111832962Y-88104564D01*
X111833500Y-88100478D01*
X111833500Y-88099926D01*
X111857630Y-88034037D01*
X111914211Y-87991153D01*
X111949394Y-87983500D01*
X111950478Y-87983500D01*
X111954564Y-87982962D01*
X111954565Y-87982962D01*
X112053387Y-87969952D01*
X112053390Y-87969951D01*
X112061580Y-87968873D01*
X112068033Y-87966200D01*
X112131967Y-87966200D01*
X112138420Y-87968873D01*
G37*
%TD.AperFunction*%
%TA.AperFunction,Conductor*%
G36*
X133589156Y-77609783D02*
G01*
X133599840Y-77611600D01*
X133599844Y-77611600D01*
X133604634Y-77612415D01*
X133735757Y-77614251D01*
X133741572Y-77614467D01*
X133789268Y-77617353D01*
X133796819Y-77618039D01*
X133993728Y-77641948D01*
X134001224Y-77643089D01*
X134012743Y-77645200D01*
X134033252Y-77648959D01*
X134040688Y-77650555D01*
X134160417Y-77680065D01*
X134233253Y-77698017D01*
X134240550Y-77700051D01*
X134271462Y-77709684D01*
X134271655Y-77709744D01*
X134278846Y-77712226D01*
X134464278Y-77782551D01*
X134471302Y-77785460D01*
X134501002Y-77798827D01*
X134507838Y-77802155D01*
X134683446Y-77894321D01*
X134690076Y-77898061D01*
X134717929Y-77914899D01*
X134724320Y-77919031D01*
X134887531Y-78031688D01*
X134893660Y-78036198D01*
X134919273Y-78056264D01*
X134925121Y-78061138D01*
X135073589Y-78192669D01*
X135079131Y-78197886D01*
X135102114Y-78220869D01*
X135107331Y-78226410D01*
X135238875Y-78374893D01*
X135243723Y-78380710D01*
X135252512Y-78391928D01*
X135263806Y-78406345D01*
X135268310Y-78412466D01*
X135380986Y-78575704D01*
X135385091Y-78582055D01*
X135401943Y-78609930D01*
X135405682Y-78616559D01*
X135497843Y-78792158D01*
X135501174Y-78799000D01*
X135514544Y-78828706D01*
X135517450Y-78835722D01*
X135551628Y-78925841D01*
X135587768Y-79021137D01*
X135590251Y-79028331D01*
X135599939Y-79059420D01*
X135601983Y-79066752D01*
X135611216Y-79104211D01*
X135648961Y-79257345D01*
X135649448Y-79259321D01*
X135651039Y-79266730D01*
X135656081Y-79294245D01*
X135656911Y-79298773D01*
X135658055Y-79306295D01*
X135661106Y-79331424D01*
X135681825Y-79502054D01*
X135681959Y-79503160D01*
X135682648Y-79510740D01*
X135685532Y-79558416D01*
X135685750Y-79564250D01*
X135687539Y-79692089D01*
X135688238Y-79696526D01*
X135690465Y-79710664D01*
X135692000Y-79730270D01*
X135692000Y-80111629D01*
X135671998Y-80179750D01*
X135618342Y-80226243D01*
X135548068Y-80236347D01*
X135484003Y-80207297D01*
X135441262Y-80170664D01*
X135434588Y-80165671D01*
X135190036Y-80006856D01*
X135182746Y-80002782D01*
X134919348Y-79877712D01*
X134911580Y-79874636D01*
X134633949Y-79785499D01*
X134625860Y-79783482D01*
X134338860Y-79731842D01*
X134330582Y-79730914D01*
X134039277Y-79717685D01*
X134030955Y-79717859D01*
X133740454Y-79743275D01*
X133732216Y-79744550D01*
X133447640Y-79808160D01*
X133439636Y-79810516D01*
X133165975Y-79911205D01*
X133158359Y-79914595D01*
X132900424Y-80050589D01*
X132893308Y-80054967D01*
X132687909Y-80200937D01*
X132679513Y-80211592D01*
X132686517Y-80224806D01*
X134352615Y-81890905D01*
X134386641Y-81953217D01*
X134381576Y-82024033D01*
X134352615Y-82069095D01*
X134082500Y-82339210D01*
X132688358Y-83733353D01*
X132681355Y-83746177D01*
X132689175Y-83756890D01*
X132800687Y-83844641D01*
X132807588Y-83849366D01*
X133058563Y-83997792D01*
X133066010Y-84001554D01*
X133334433Y-84115493D01*
X133342301Y-84118233D01*
X133623428Y-84195668D01*
X133631607Y-84197347D01*
X133920498Y-84236919D01*
X133928823Y-84237502D01*
X134220409Y-84238519D01*
X134228742Y-84237995D01*
X134517916Y-84200439D01*
X134526081Y-84198822D01*
X134807758Y-84123347D01*
X134815637Y-84120665D01*
X135084851Y-84008602D01*
X135092323Y-84004893D01*
X135344342Y-83858214D01*
X135351250Y-83853555D01*
X135488774Y-83746880D01*
X135554859Y-83720933D01*
X135624482Y-83734834D01*
X135675537Y-83784169D01*
X135692000Y-83846440D01*
X135692000Y-86364619D01*
X135671998Y-86432740D01*
X135618342Y-86479233D01*
X135548068Y-86489337D01*
X135529477Y-86485209D01*
X135416309Y-86450934D01*
X135403677Y-86448484D01*
X135333816Y-86442249D01*
X135328221Y-86442000D01*
X134922115Y-86442000D01*
X134906876Y-86446475D01*
X134905671Y-86447865D01*
X134904000Y-86455548D01*
X134904000Y-87678000D01*
X134883998Y-87746121D01*
X134830342Y-87792614D01*
X134778000Y-87804000D01*
X133285115Y-87804000D01*
X133269876Y-87808475D01*
X133268671Y-87809865D01*
X133267000Y-87817548D01*
X133267000Y-87939223D01*
X133267424Y-87946524D01*
X133281617Y-88068255D01*
X133284963Y-88082410D01*
X133340263Y-88234761D01*
X133346773Y-88247760D01*
X133435641Y-88383306D01*
X133444965Y-88394458D01*
X133562629Y-88505922D01*
X133574279Y-88514638D01*
X133600129Y-88529653D01*
X133648987Y-88581164D01*
X133662239Y-88650913D01*
X133635679Y-88716754D01*
X133614676Y-88737691D01*
X133607109Y-88743635D01*
X133603178Y-88748165D01*
X133603177Y-88748166D01*
X133592786Y-88760141D01*
X133472776Y-88898439D01*
X133442977Y-88923575D01*
X133408297Y-88944619D01*
X133408293Y-88944622D01*
X133403494Y-88947534D01*
X133399288Y-88951249D01*
X133394190Y-88955751D01*
X133391606Y-88957972D01*
X133388876Y-88960255D01*
X133382753Y-88964269D01*
X133377718Y-88969584D01*
X133333623Y-89016132D01*
X133331245Y-89018574D01*
X132851070Y-89498749D01*
X132788758Y-89532775D01*
X132717943Y-89527710D01*
X132661107Y-89485163D01*
X132636474Y-89420855D01*
X132634188Y-89395243D01*
X132627841Y-89324128D01*
X132568003Y-89105396D01*
X132470376Y-88900718D01*
X132338047Y-88716562D01*
X132261073Y-88641969D01*
X132226073Y-88580199D01*
X132230025Y-88509312D01*
X132265929Y-88456536D01*
X132288875Y-88436519D01*
X132293105Y-88432829D01*
X132319789Y-88399522D01*
X132431385Y-88260228D01*
X132431388Y-88260223D01*
X132434891Y-88255851D01*
X132543096Y-88056562D01*
X132614300Y-87841262D01*
X132641592Y-87649500D01*
X132645741Y-87620346D01*
X132645741Y-87620345D01*
X132646252Y-87616755D01*
X132647707Y-87561204D01*
X132647905Y-87553631D01*
X132647905Y-87553630D01*
X132648000Y-87550000D01*
X132646234Y-87530206D01*
X132640455Y-87465464D01*
X132627841Y-87324128D01*
X132579324Y-87146779D01*
X133267000Y-87146779D01*
X133267000Y-87277885D01*
X133271475Y-87293124D01*
X133272865Y-87294329D01*
X133280548Y-87296000D01*
X134377885Y-87296000D01*
X134393124Y-87291525D01*
X134394329Y-87290135D01*
X134396000Y-87282452D01*
X134396000Y-86460115D01*
X134391525Y-86444876D01*
X134390135Y-86443671D01*
X134382452Y-86442000D01*
X133985777Y-86442000D01*
X133978476Y-86442424D01*
X133856745Y-86456617D01*
X133842590Y-86459963D01*
X133690239Y-86515263D01*
X133677240Y-86521773D01*
X133541694Y-86610641D01*
X133530542Y-86619965D01*
X133419078Y-86737629D01*
X133410365Y-86749276D01*
X133328957Y-86889429D01*
X133323163Y-86902754D01*
X133275932Y-87058700D01*
X133273484Y-87071323D01*
X133267249Y-87141184D01*
X133267000Y-87146779D01*
X132579324Y-87146779D01*
X132569485Y-87110812D01*
X132569484Y-87110808D01*
X132568003Y-87105396D01*
X132470376Y-86900718D01*
X132338047Y-86716562D01*
X132218184Y-86600406D01*
X132179226Y-86562653D01*
X132179223Y-86562651D01*
X132175198Y-86558750D01*
X132081996Y-86496121D01*
X131991630Y-86435397D01*
X131991624Y-86435394D01*
X131986977Y-86432271D01*
X131950248Y-86416148D01*
X131895913Y-86370452D01*
X131874908Y-86302634D01*
X131893903Y-86234225D01*
X131936187Y-86192659D01*
X132058123Y-86119681D01*
X132067693Y-86109323D01*
X132064150Y-86100860D01*
X131102385Y-85139095D01*
X131068359Y-85076783D01*
X131070194Y-85051132D01*
X131736908Y-85051132D01*
X131737039Y-85052965D01*
X131741290Y-85059580D01*
X132422651Y-85740941D01*
X132435031Y-85747701D01*
X132441295Y-85743012D01*
X132539963Y-85561290D01*
X132544396Y-85551044D01*
X132612053Y-85346469D01*
X132614603Y-85335596D01*
X132645242Y-85120319D01*
X132645848Y-85113103D01*
X132647405Y-85053632D01*
X132647177Y-85046377D01*
X132627848Y-84829812D01*
X132625866Y-84818798D01*
X132569017Y-84610987D01*
X132565119Y-84600506D01*
X132472361Y-84406034D01*
X132466671Y-84396415D01*
X132443217Y-84363775D01*
X132432427Y-84355365D01*
X132419390Y-84362320D01*
X131744522Y-85037188D01*
X131736908Y-85051132D01*
X131070194Y-85051132D01*
X131073424Y-85005968D01*
X131102385Y-84960905D01*
X132059957Y-84003333D01*
X132066181Y-83991935D01*
X132056370Y-83979501D01*
X131991396Y-83935841D01*
X131981596Y-83930453D01*
X131784315Y-83843852D01*
X131773716Y-83840285D01*
X131564213Y-83789988D01*
X131553151Y-83788355D01*
X131338058Y-83775952D01*
X131326874Y-83776304D01*
X131112985Y-83802188D01*
X131102051Y-83804512D01*
X130896114Y-83867866D01*
X130885769Y-83872087D01*
X130694302Y-83970911D01*
X130680134Y-83979903D01*
X130679288Y-83978569D01*
X130619937Y-84001525D01*
X130550386Y-83987272D01*
X130520338Y-83965059D01*
X130095405Y-83540126D01*
X130061379Y-83477814D01*
X130058500Y-83451031D01*
X130058500Y-82885239D01*
X130043022Y-82752482D01*
X130027421Y-82709500D01*
X129985184Y-82593140D01*
X129982687Y-82586261D01*
X129885731Y-82438378D01*
X129888473Y-82436580D01*
X129865919Y-82384890D01*
X129877214Y-82314798D01*
X129899451Y-82282424D01*
X129903167Y-82278502D01*
X129911358Y-82269855D01*
X130000175Y-82116945D01*
X130014219Y-82070576D01*
X131821587Y-82070576D01*
X131821937Y-82078928D01*
X131853428Y-82368809D01*
X131854877Y-82377026D01*
X131924431Y-82660197D01*
X131926958Y-82668162D01*
X132033349Y-82939642D01*
X132036905Y-82947199D01*
X132178275Y-83202236D01*
X132182784Y-83209234D01*
X132304637Y-83373308D01*
X132315829Y-83381752D01*
X132328335Y-83374954D01*
X133710480Y-81992810D01*
X133718092Y-81978869D01*
X133717961Y-81977034D01*
X133713710Y-81970420D01*
X132328996Y-80585707D01*
X132315796Y-80578499D01*
X132305602Y-80585778D01*
X132245107Y-80659425D01*
X132240252Y-80666206D01*
X132086590Y-80914038D01*
X132082677Y-80921398D01*
X131963147Y-81187364D01*
X131960237Y-81195187D01*
X131876929Y-81474637D01*
X131875084Y-81482758D01*
X131829468Y-81770770D01*
X131828712Y-81779081D01*
X131821587Y-82070576D01*
X130014219Y-82070576D01*
X130051433Y-81947704D01*
X130052534Y-81935365D01*
X130058251Y-81871315D01*
X130058251Y-81871309D01*
X130058500Y-81868522D01*
X130058500Y-81244614D01*
X130043022Y-81111857D01*
X130034870Y-81089397D01*
X129985184Y-80952515D01*
X129982687Y-80945636D01*
X129885731Y-80797753D01*
X129880420Y-80792722D01*
X129880416Y-80792717D01*
X129814160Y-80729953D01*
X129778461Y-80668584D01*
X129781608Y-80597658D01*
X129809339Y-80551827D01*
X129905922Y-80449871D01*
X129914635Y-80438224D01*
X129996043Y-80298071D01*
X130001837Y-80284746D01*
X130049068Y-80128800D01*
X130051516Y-80116177D01*
X130057751Y-80046316D01*
X130058000Y-80040721D01*
X130058000Y-79997115D01*
X130053525Y-79981876D01*
X130052135Y-79980671D01*
X130044452Y-79979000D01*
X127660115Y-79979000D01*
X127644876Y-79983475D01*
X127643671Y-79984865D01*
X127642000Y-79992548D01*
X127642000Y-80026723D01*
X127642424Y-80034024D01*
X127656617Y-80155755D01*
X127659963Y-80169910D01*
X127715263Y-80322261D01*
X127721773Y-80335260D01*
X127810641Y-80470806D01*
X127819965Y-80481958D01*
X127885822Y-80544345D01*
X127921520Y-80605714D01*
X127918372Y-80676641D01*
X127890642Y-80722471D01*
X127788642Y-80830145D01*
X127699825Y-80983055D01*
X127648567Y-81152296D01*
X127647992Y-81158736D01*
X127647992Y-81158737D01*
X127641764Y-81228525D01*
X127641500Y-81231478D01*
X127641500Y-81855386D01*
X127656978Y-81988143D01*
X127659474Y-81995021D01*
X127659475Y-81995023D01*
X127689931Y-82078928D01*
X127717313Y-82154364D01*
X127796516Y-82275169D01*
X127814269Y-82302247D01*
X127811527Y-82304045D01*
X127834081Y-82355735D01*
X127822786Y-82425827D01*
X127800550Y-82458200D01*
X127788642Y-82470770D01*
X127699825Y-82623680D01*
X127648567Y-82792921D01*
X127641500Y-82872103D01*
X127641500Y-83496011D01*
X127656978Y-83628768D01*
X127659474Y-83635646D01*
X127659475Y-83635648D01*
X127714816Y-83788110D01*
X127717313Y-83794989D01*
X127776041Y-83884564D01*
X127805905Y-83930114D01*
X127814269Y-83942872D01*
X127819581Y-83947904D01*
X127885480Y-84010331D01*
X127921178Y-84071701D01*
X127918030Y-84142627D01*
X127890300Y-84188457D01*
X127788642Y-84295770D01*
X127699825Y-84448680D01*
X127648567Y-84617921D01*
X127641500Y-84697103D01*
X127641500Y-85321011D01*
X127656978Y-85453768D01*
X127659475Y-85460646D01*
X127659476Y-85460652D01*
X127667045Y-85481504D01*
X127671486Y-85552362D01*
X127636913Y-85614371D01*
X127574303Y-85647846D01*
X127512083Y-85645084D01*
X127366309Y-85600934D01*
X127353677Y-85598484D01*
X127283816Y-85592249D01*
X127278221Y-85592000D01*
X127022115Y-85592000D01*
X127006876Y-85596475D01*
X127005671Y-85597865D01*
X127004000Y-85605548D01*
X127004000Y-86327885D01*
X127008475Y-86343124D01*
X127009865Y-86344329D01*
X127017548Y-86346000D01*
X127918882Y-86346000D01*
X127987003Y-86366002D01*
X128001394Y-86376775D01*
X128028865Y-86400579D01*
X128036548Y-86402250D01*
X128978000Y-86402250D01*
X129046121Y-86422252D01*
X129092614Y-86475908D01*
X129104000Y-86528250D01*
X129104000Y-86784250D01*
X129083998Y-86852371D01*
X129030342Y-86898864D01*
X128978000Y-86910250D01*
X127706118Y-86910250D01*
X127637997Y-86890248D01*
X127623606Y-86879475D01*
X127596135Y-86855671D01*
X127588452Y-86854000D01*
X126622000Y-86854000D01*
X126553879Y-86833998D01*
X126507386Y-86780342D01*
X126496000Y-86728000D01*
X126496000Y-85610115D01*
X126491525Y-85594876D01*
X126490135Y-85593671D01*
X126482452Y-85592000D01*
X126235777Y-85592000D01*
X126228476Y-85592424D01*
X126106745Y-85606617D01*
X126092590Y-85609963D01*
X125939991Y-85665353D01*
X125869133Y-85669794D01*
X125807123Y-85635221D01*
X125773648Y-85572611D01*
X125771000Y-85546914D01*
X125771000Y-83789500D01*
X125791002Y-83721379D01*
X125844658Y-83674886D01*
X125897000Y-83663500D01*
X126200000Y-83663500D01*
X126273079Y-83658273D01*
X126367138Y-83630655D01*
X126404670Y-83619635D01*
X126404672Y-83619634D01*
X126413316Y-83617096D01*
X126477135Y-83576082D01*
X126528691Y-83542949D01*
X126528694Y-83542947D01*
X126536271Y-83538077D01*
X126576048Y-83492172D01*
X126626082Y-83434431D01*
X126626084Y-83434428D01*
X126631984Y-83427619D01*
X126671937Y-83340135D01*
X126688958Y-83302864D01*
X126688958Y-83302863D01*
X126692700Y-83294670D01*
X126696130Y-83270811D01*
X126712861Y-83154448D01*
X126712862Y-83154441D01*
X126713500Y-83150000D01*
X126713500Y-79409279D01*
X127642000Y-79409279D01*
X127642000Y-79452885D01*
X127646475Y-79468124D01*
X127647865Y-79469329D01*
X127655548Y-79471000D01*
X128577885Y-79471000D01*
X128593124Y-79466525D01*
X128594329Y-79465135D01*
X128596000Y-79457452D01*
X128596000Y-78722615D01*
X128594659Y-78718048D01*
X129104000Y-78718048D01*
X129104000Y-79452885D01*
X129108475Y-79468124D01*
X129109865Y-79469329D01*
X129117548Y-79471000D01*
X130039885Y-79471000D01*
X130055124Y-79466525D01*
X130056329Y-79465135D01*
X130058000Y-79457452D01*
X130058000Y-79423277D01*
X130057576Y-79415976D01*
X130043383Y-79294245D01*
X130040037Y-79280090D01*
X129984737Y-79127739D01*
X129978227Y-79114740D01*
X129889359Y-78979194D01*
X129880035Y-78968042D01*
X129762371Y-78856578D01*
X129750724Y-78847865D01*
X129610571Y-78766457D01*
X129597246Y-78760663D01*
X129441300Y-78713432D01*
X129428677Y-78710984D01*
X129358816Y-78704749D01*
X129353221Y-78704500D01*
X129122115Y-78704500D01*
X129106876Y-78708975D01*
X129105671Y-78710365D01*
X129104000Y-78718048D01*
X128594659Y-78718048D01*
X128591525Y-78707376D01*
X128590135Y-78706171D01*
X128582452Y-78704500D01*
X128360777Y-78704500D01*
X128353476Y-78704924D01*
X128231745Y-78719117D01*
X128217590Y-78722463D01*
X128065239Y-78777763D01*
X128052240Y-78784273D01*
X127916694Y-78873141D01*
X127905542Y-78882465D01*
X127794078Y-79000129D01*
X127785365Y-79011776D01*
X127703957Y-79151929D01*
X127698163Y-79165254D01*
X127650932Y-79321200D01*
X127648484Y-79333823D01*
X127642249Y-79403684D01*
X127642000Y-79409279D01*
X126713500Y-79409279D01*
X126713500Y-78150000D01*
X126708273Y-78076921D01*
X126674297Y-77961208D01*
X126669635Y-77945330D01*
X126669634Y-77945328D01*
X126667096Y-77936684D01*
X126633692Y-77884707D01*
X126592949Y-77821309D01*
X126592947Y-77821306D01*
X126588077Y-77813729D01*
X126587156Y-77812931D01*
X126559299Y-77751929D01*
X126569404Y-77681656D01*
X126615898Y-77628001D01*
X126684017Y-77608000D01*
X133568032Y-77608000D01*
X133589156Y-77609783D01*
G37*
%TD.AperFunction*%
%TA.AperFunction,Conductor*%
G36*
X123619491Y-83363508D02*
G01*
X123657370Y-83401386D01*
X123707051Y-83478691D01*
X123707053Y-83478694D01*
X123711923Y-83486271D01*
X123718733Y-83492172D01*
X123815569Y-83576082D01*
X123815572Y-83576084D01*
X123822381Y-83581984D01*
X123830579Y-83585728D01*
X123927598Y-83630035D01*
X123955330Y-83642700D01*
X123964245Y-83643982D01*
X123964246Y-83643982D01*
X124095552Y-83662861D01*
X124095559Y-83662862D01*
X124100000Y-83663500D01*
X124128000Y-83663500D01*
X124196121Y-83683502D01*
X124242614Y-83737158D01*
X124254000Y-83789500D01*
X124254000Y-86180872D01*
X124233998Y-86248993D01*
X124227963Y-86257576D01*
X124212348Y-86277926D01*
X124167019Y-86337000D01*
X124106979Y-86481950D01*
X124091500Y-86599522D01*
X124091500Y-86850478D01*
X124106979Y-86968050D01*
X124110140Y-86975681D01*
X124110141Y-86975684D01*
X124120951Y-87001783D01*
X124128540Y-87072372D01*
X124120951Y-87098217D01*
X124114828Y-87113000D01*
X124106979Y-87131950D01*
X124091500Y-87249522D01*
X124091500Y-87500478D01*
X124106979Y-87618050D01*
X124110141Y-87625683D01*
X124110141Y-87625684D01*
X124120951Y-87651783D01*
X124128540Y-87722372D01*
X124120951Y-87748217D01*
X124110141Y-87774316D01*
X124106979Y-87781950D01*
X124091500Y-87899522D01*
X124091500Y-88150478D01*
X124106979Y-88268050D01*
X124110141Y-88275683D01*
X124110141Y-88275684D01*
X124120951Y-88301783D01*
X124128540Y-88372372D01*
X124120951Y-88398217D01*
X124114627Y-88413485D01*
X124106979Y-88431950D01*
X124091500Y-88549522D01*
X124091500Y-88615500D01*
X124071498Y-88683621D01*
X124017842Y-88730114D01*
X123965500Y-88741500D01*
X123899522Y-88741500D01*
X123781950Y-88756979D01*
X123774317Y-88760141D01*
X123774316Y-88760141D01*
X123748217Y-88770951D01*
X123677628Y-88778540D01*
X123651783Y-88770951D01*
X123625684Y-88760141D01*
X123625683Y-88760141D01*
X123618050Y-88756979D01*
X123500478Y-88741500D01*
X123249522Y-88741500D01*
X123131950Y-88756979D01*
X123124317Y-88760141D01*
X123124316Y-88760141D01*
X123098217Y-88770951D01*
X123027628Y-88778540D01*
X123001783Y-88770951D01*
X122975684Y-88760141D01*
X122975683Y-88760141D01*
X122968050Y-88756979D01*
X122850478Y-88741500D01*
X122599522Y-88741500D01*
X122481950Y-88756979D01*
X122337000Y-88817019D01*
X122212529Y-88912529D01*
X122210867Y-88910363D01*
X122160342Y-88937953D01*
X122089527Y-88932888D01*
X122032691Y-88890341D01*
X122007880Y-88823821D01*
X122007829Y-88806590D01*
X122007962Y-88804568D01*
X122008500Y-88800478D01*
X122008500Y-88549522D01*
X121993021Y-88431950D01*
X121985373Y-88413485D01*
X121979049Y-88398217D01*
X121971460Y-88327628D01*
X121979049Y-88301783D01*
X121989859Y-88275684D01*
X121989859Y-88275683D01*
X121993021Y-88268050D01*
X122008500Y-88150478D01*
X122008500Y-87899522D01*
X121993021Y-87781950D01*
X121932981Y-87637000D01*
X121837471Y-87512529D01*
X121810066Y-87491500D01*
X121804169Y-87486975D01*
X121788514Y-87474963D01*
X121746647Y-87417625D01*
X121742425Y-87346754D01*
X121777189Y-87284851D01*
X121788514Y-87275037D01*
X121830925Y-87242494D01*
X121837471Y-87237471D01*
X121932981Y-87113000D01*
X121993021Y-86968050D01*
X122008500Y-86850478D01*
X122008500Y-86784500D01*
X122028502Y-86716379D01*
X122082158Y-86669886D01*
X122134500Y-86658500D01*
X122200478Y-86658500D01*
X122318050Y-86643021D01*
X122463000Y-86582981D01*
X122587471Y-86487471D01*
X122682981Y-86363000D01*
X122743021Y-86218050D01*
X122758500Y-86100478D01*
X122758500Y-86094762D01*
X122758658Y-86093948D01*
X122758770Y-86092237D01*
X122758987Y-86092251D01*
X122767634Y-86047663D01*
X122808703Y-85945759D01*
X122808704Y-85945757D01*
X122811440Y-85938967D01*
X122824398Y-85853794D01*
X122836936Y-85771379D01*
X122836936Y-85771376D01*
X122838036Y-85764146D01*
X122837401Y-85756329D01*
X122824294Y-85595196D01*
X122824294Y-85595194D01*
X122823700Y-85587896D01*
X122811206Y-85549328D01*
X122771457Y-85426630D01*
X122771456Y-85426628D01*
X122769202Y-85419670D01*
X122768671Y-85418795D01*
X122758500Y-85378530D01*
X122758500Y-85374522D01*
X122743021Y-85256950D01*
X122718091Y-85196763D01*
X122708500Y-85148546D01*
X122708500Y-84815994D01*
X122709933Y-84797044D01*
X122711936Y-84783881D01*
X122711936Y-84783875D01*
X122713036Y-84776646D01*
X122708915Y-84725981D01*
X122708500Y-84715766D01*
X122708500Y-83789500D01*
X122728502Y-83721379D01*
X122782158Y-83674886D01*
X122834500Y-83663500D01*
X123000000Y-83663500D01*
X123073079Y-83658273D01*
X123167138Y-83630655D01*
X123204670Y-83619635D01*
X123204672Y-83619634D01*
X123213316Y-83617096D01*
X123277135Y-83576082D01*
X123328691Y-83542949D01*
X123328694Y-83542947D01*
X123336271Y-83538077D01*
X123376048Y-83492172D01*
X123426082Y-83434431D01*
X123426084Y-83434428D01*
X123431984Y-83427619D01*
X123436758Y-83417166D01*
X123438381Y-83415293D01*
X123440600Y-83411840D01*
X123441096Y-83412159D01*
X123483250Y-83363510D01*
X123551370Y-83343507D01*
X123619491Y-83363508D01*
G37*
%TD.AperFunction*%
%TA.AperFunction,Conductor*%
G36*
X119196121Y-82566002D02*
G01*
X119242614Y-82619658D01*
X119254000Y-82672000D01*
X119254000Y-82928000D01*
X119233998Y-82996121D01*
X119180342Y-83042614D01*
X119128000Y-83054000D01*
X118316115Y-83054000D01*
X118287593Y-83062375D01*
X118250216Y-83086396D01*
X118214717Y-83091500D01*
X116922000Y-83091500D01*
X116853879Y-83071498D01*
X116807386Y-83017842D01*
X116796000Y-82965500D01*
X116796000Y-82709500D01*
X116816002Y-82641379D01*
X116869658Y-82594886D01*
X116922000Y-82583500D01*
X117708885Y-82583500D01*
X117737407Y-82575125D01*
X117774784Y-82551104D01*
X117810283Y-82546000D01*
X119128000Y-82546000D01*
X119196121Y-82566002D01*
G37*
%TD.AperFunction*%
%TA.AperFunction,Conductor*%
G36*
X120328621Y-81141002D02*
G01*
X120375114Y-81194658D01*
X120386500Y-81247000D01*
X120386500Y-82136054D01*
X120366498Y-82204175D01*
X120312842Y-82250668D01*
X120242568Y-82260772D01*
X120177988Y-82231278D01*
X120155128Y-82205139D01*
X120064359Y-82066694D01*
X120055035Y-82055542D01*
X119937371Y-81944078D01*
X119925724Y-81935365D01*
X119785571Y-81853957D01*
X119772244Y-81848162D01*
X119720950Y-81832627D01*
X119661551Y-81793738D01*
X119632607Y-81728909D01*
X119643306Y-81658723D01*
X119683411Y-81610100D01*
X119747783Y-81563331D01*
X119754197Y-81558671D01*
X119860212Y-81430521D01*
X119931026Y-81280033D01*
X119941832Y-81223389D01*
X119974243Y-81160224D01*
X120035660Y-81124609D01*
X120065599Y-81121000D01*
X120260500Y-81121000D01*
X120328621Y-81141002D01*
G37*
%TD.AperFunction*%
%TD*%
M02*
