%TF.GenerationSoftware,KiCad,Pcbnew,(5.99.0-10766-geeb405c196)*%
%TF.CreationDate,2021-06-19T10:41:35+04:00*%
%TF.ProjectId,Adafruit-PowerBoost-1000C,41646166-7275-4697-942d-506f77657242,rev?*%
%TF.SameCoordinates,Original*%
%TF.FileFunction,Paste,Top*%
%TF.FilePolarity,Positive*%
%FSLAX46Y46*%
G04 Gerber Fmt 4.6, Leading zero omitted, Abs format (unit mm)*
G04 Created by KiCad (PCBNEW (5.99.0-10766-geeb405c196)) date 2021-06-19 10:41:35*
%MOMM*%
%LPD*%
G01*
G04 APERTURE LIST*
G04 Aperture macros list*
%AMRoundRect*
0 Rectangle with rounded corners*
0 $1 Rounding radius*
0 $2 $3 $4 $5 $6 $7 $8 $9 X,Y pos of 4 corners*
0 Add a 4 corners polygon primitive as box body*
4,1,4,$2,$3,$4,$5,$6,$7,$8,$9,$2,$3,0*
0 Add four circle primitives for the rounded corners*
1,1,$1+$1,$2,$3*
1,1,$1+$1,$4,$5*
1,1,$1+$1,$6,$7*
1,1,$1+$1,$8,$9*
0 Add four rect primitives between the rounded corners*
20,1,$1+$1,$2,$3,$4,$5,0*
20,1,$1+$1,$4,$5,$6,$7,0*
20,1,$1+$1,$6,$7,$8,$9,0*
20,1,$1+$1,$8,$9,$2,$3,0*%
G04 Aperture macros list end*
%ADD10RoundRect,0.250000X0.475000X-0.250000X0.475000X0.250000X-0.475000X0.250000X-0.475000X-0.250000X0*%
%ADD11R,2.100000X5.000000*%
%ADD12RoundRect,0.243750X-0.243750X-0.456250X0.243750X-0.456250X0.243750X0.456250X-0.243750X0.456250X0*%
%ADD13RoundRect,0.250000X0.450000X-0.262500X0.450000X0.262500X-0.450000X0.262500X-0.450000X-0.262500X0*%
%ADD14RoundRect,0.250000X-0.450000X0.262500X-0.450000X-0.262500X0.450000X-0.262500X0.450000X0.262500X0*%
%ADD15RoundRect,0.250000X-0.475000X0.250000X-0.475000X-0.250000X0.475000X-0.250000X0.475000X0.250000X0*%
%ADD16RoundRect,0.250000X-1.100000X0.325000X-1.100000X-0.325000X1.100000X-0.325000X1.100000X0.325000X0*%
%ADD17RoundRect,0.238649X0.238648X0.238648X-0.238648X0.238648X-0.238648X-0.238648X0.238648X-0.238648X0*%
%ADD18RoundRect,0.087500X0.325000X0.087500X-0.325000X0.087500X-0.325000X-0.087500X0.325000X-0.087500X0*%
%ADD19RoundRect,0.087500X0.087500X0.325000X-0.087500X0.325000X-0.087500X-0.325000X0.087500X-0.325000X0*%
%ADD20RoundRect,0.250000X0.262500X0.450000X-0.262500X0.450000X-0.262500X-0.450000X0.262500X-0.450000X0*%
%ADD21RoundRect,0.243750X0.456250X-0.243750X0.456250X0.243750X-0.456250X0.243750X-0.456250X-0.243750X0*%
%ADD22RoundRect,0.243750X0.243750X0.456250X-0.243750X0.456250X-0.243750X-0.456250X0.243750X-0.456250X0*%
%ADD23RoundRect,0.150000X0.150000X-0.587500X0.150000X0.587500X-0.150000X0.587500X-0.150000X-0.587500X0*%
%ADD24RoundRect,0.250000X-0.255000X0.255000X-0.255000X-0.255000X0.255000X-0.255000X0.255000X0.255000X0*%
%ADD25RoundRect,0.062500X-0.062500X0.350000X-0.062500X-0.350000X0.062500X-0.350000X0.062500X0.350000X0*%
%ADD26RoundRect,0.062500X-0.350000X0.062500X-0.350000X-0.062500X0.350000X-0.062500X0.350000X0.062500X0*%
%ADD27R,1.300000X0.450000*%
G04 APERTURE END LIST*
D10*
%TO.C,C4*%
X119000000Y-84700000D03*
X119000000Y-82800000D03*
%TD*%
D11*
%TO.C,L1*%
X121950000Y-80650000D03*
X125150000Y-80650000D03*
%TD*%
D12*
%TO.C,D2*%
X105862500Y-98900000D03*
X107737500Y-98900000D03*
%TD*%
D13*
%TO.C,R2*%
X106400000Y-96312500D03*
X106400000Y-94487500D03*
%TD*%
%TO.C,R1*%
X108400000Y-96312500D03*
X108400000Y-94487500D03*
%TD*%
%TO.C,R15*%
X128850000Y-85015625D03*
X128850000Y-83190625D03*
%TD*%
D14*
%TO.C,R12*%
X126450000Y-93587500D03*
X126450000Y-95412500D03*
%TD*%
%TO.C,R8*%
X119000000Y-86587500D03*
X119000000Y-88412500D03*
%TD*%
%TO.C,R18*%
X128850000Y-86656250D03*
X128850000Y-88481250D03*
%TD*%
D15*
%TO.C,C3*%
X116750000Y-86550000D03*
X116750000Y-88450000D03*
%TD*%
D14*
%TO.C,R16*%
X128850000Y-79725000D03*
X128850000Y-81550000D03*
%TD*%
D13*
%TO.C,R3*%
X115150000Y-84662500D03*
X115150000Y-82837500D03*
%TD*%
%TO.C,R10*%
X121150000Y-93362500D03*
X121150000Y-91537500D03*
%TD*%
%TO.C,R4*%
X117050000Y-84662500D03*
X117050000Y-82837500D03*
%TD*%
%TO.C,R17*%
X128850000Y-91946875D03*
X128850000Y-90121875D03*
%TD*%
D14*
%TO.C,R13*%
X115300000Y-78387500D03*
X115300000Y-80212500D03*
%TD*%
D16*
%TO.C,C6*%
X123950000Y-91595000D03*
X123950000Y-94545000D03*
%TD*%
D17*
%TO.C,U2*%
X122500000Y-88250000D03*
X123600000Y-88250000D03*
X122500000Y-87150000D03*
X123600000Y-87150000D03*
D18*
X125012500Y-88675000D03*
X125012500Y-88025000D03*
X125012500Y-87375000D03*
X125012500Y-86725000D03*
D19*
X124025000Y-85737500D03*
X123375000Y-85737500D03*
X122725000Y-85737500D03*
X122075000Y-85737500D03*
D18*
X121087500Y-86725000D03*
X121087500Y-87375000D03*
X121087500Y-88025000D03*
X121087500Y-88675000D03*
D19*
X122075000Y-89662500D03*
X122725000Y-89662500D03*
X123375000Y-89662500D03*
X124025000Y-89662500D03*
%TD*%
D20*
%TO.C,R9*%
X118762500Y-90300000D03*
X116937500Y-90300000D03*
%TD*%
D10*
%TO.C,C1*%
X108100000Y-88200000D03*
X108100000Y-86300000D03*
%TD*%
D15*
%TO.C,C2*%
X115200000Y-92670000D03*
X115200000Y-94570000D03*
%TD*%
D14*
%TO.C,R6*%
X111200000Y-92687500D03*
X111200000Y-94512500D03*
%TD*%
D10*
%TO.C,C5*%
X126750000Y-88500000D03*
X126750000Y-86600000D03*
%TD*%
D21*
%TO.C,D3*%
X106250000Y-80237500D03*
X106250000Y-78362500D03*
%TD*%
D14*
%TO.C,R7*%
X108050000Y-89837500D03*
X108050000Y-91662500D03*
%TD*%
%TO.C,R5*%
X113100000Y-92687500D03*
X113100000Y-94512500D03*
%TD*%
D22*
%TO.C,D1*%
X111037500Y-98900000D03*
X109162500Y-98900000D03*
%TD*%
D23*
%TO.C,Q1*%
X117250000Y-80487500D03*
X119150000Y-80487500D03*
X118200000Y-78612500D03*
%TD*%
D22*
%TO.C,D4*%
X134587500Y-98200000D03*
X132712500Y-98200000D03*
%TD*%
D24*
%TO.C,U1*%
X113475000Y-89625000D03*
X113475000Y-88375000D03*
X112225000Y-88375000D03*
X112225000Y-89625000D03*
D25*
X113850000Y-87062500D03*
X113350000Y-87062500D03*
X112850000Y-87062500D03*
X112350000Y-87062500D03*
X111850000Y-87062500D03*
D26*
X110912500Y-88000000D03*
X110912500Y-88500000D03*
X110912500Y-89000000D03*
X110912500Y-89500000D03*
X110912500Y-90000000D03*
D25*
X111850000Y-90937500D03*
X112350000Y-90937500D03*
X112850000Y-90937500D03*
X113350000Y-90937500D03*
X113850000Y-90937500D03*
D26*
X114787500Y-90000000D03*
X114787500Y-89500000D03*
X114787500Y-89000000D03*
X114787500Y-88500000D03*
X114787500Y-88000000D03*
%TD*%
D14*
%TO.C,R11*%
X126720000Y-90087500D03*
X126720000Y-91912500D03*
%TD*%
D27*
%TO.C,J1*%
X105650000Y-87250000D03*
X105650000Y-87900000D03*
X105650000Y-88550000D03*
X105650000Y-89200000D03*
X105650000Y-89850000D03*
%TD*%
D14*
%TO.C,R14*%
X128850000Y-93587500D03*
X128850000Y-95412500D03*
%TD*%
M02*
