%TF.GenerationSoftware,KiCad,Pcbnew,(5.99.0-10766-geeb405c196)*%
%TF.CreationDate,2021-06-19T10:41:35+04:00*%
%TF.ProjectId,Adafruit-PowerBoost-1000C,41646166-7275-4697-942d-506f77657242,rev?*%
%TF.SameCoordinates,Original*%
%TF.FileFunction,Legend,Bot*%
%TF.FilePolarity,Positive*%
%FSLAX46Y46*%
G04 Gerber Fmt 4.6, Leading zero omitted, Abs format (unit mm)*
G04 Created by KiCad (PCBNEW (5.99.0-10766-geeb405c196)) date 2021-06-19 10:41:35*
%MOMM*%
%LPD*%
G01*
G04 APERTURE LIST*
%ADD10C,0.150000*%
%ADD11C,0.120000*%
G04 APERTURE END LIST*
D10*
X133976190Y-79152380D02*
X133976190Y-78152380D01*
X133595238Y-78152380D01*
X133500000Y-78200000D01*
X133452380Y-78247619D01*
X133404761Y-78342857D01*
X133404761Y-78485714D01*
X133452380Y-78580952D01*
X133500000Y-78628571D01*
X133595238Y-78676190D01*
X133976190Y-78676190D01*
X132833333Y-79152380D02*
X132928571Y-79104761D01*
X132976190Y-79057142D01*
X133023809Y-78961904D01*
X133023809Y-78676190D01*
X132976190Y-78580952D01*
X132928571Y-78533333D01*
X132833333Y-78485714D01*
X132690476Y-78485714D01*
X132595238Y-78533333D01*
X132547619Y-78580952D01*
X132500000Y-78676190D01*
X132500000Y-78961904D01*
X132547619Y-79057142D01*
X132595238Y-79104761D01*
X132690476Y-79152380D01*
X132833333Y-79152380D01*
X132166666Y-78485714D02*
X131976190Y-79152380D01*
X131785714Y-78676190D01*
X131595238Y-79152380D01*
X131404761Y-78485714D01*
X130642857Y-79104761D02*
X130738095Y-79152380D01*
X130928571Y-79152380D01*
X131023809Y-79104761D01*
X131071428Y-79009523D01*
X131071428Y-78628571D01*
X131023809Y-78533333D01*
X130928571Y-78485714D01*
X130738095Y-78485714D01*
X130642857Y-78533333D01*
X130595238Y-78628571D01*
X130595238Y-78723809D01*
X131071428Y-78819047D01*
X130166666Y-79152380D02*
X130166666Y-78485714D01*
X130166666Y-78676190D02*
X130119047Y-78580952D01*
X130071428Y-78533333D01*
X129976190Y-78485714D01*
X129880952Y-78485714D01*
X129214285Y-78628571D02*
X129071428Y-78676190D01*
X129023809Y-78723809D01*
X128976190Y-78819047D01*
X128976190Y-78961904D01*
X129023809Y-79057142D01*
X129071428Y-79104761D01*
X129166666Y-79152380D01*
X129547619Y-79152380D01*
X129547619Y-78152380D01*
X129214285Y-78152380D01*
X129119047Y-78200000D01*
X129071428Y-78247619D01*
X129023809Y-78342857D01*
X129023809Y-78438095D01*
X129071428Y-78533333D01*
X129119047Y-78580952D01*
X129214285Y-78628571D01*
X129547619Y-78628571D01*
X128404761Y-79152380D02*
X128500000Y-79104761D01*
X128547619Y-79057142D01*
X128595238Y-78961904D01*
X128595238Y-78676190D01*
X128547619Y-78580952D01*
X128500000Y-78533333D01*
X128404761Y-78485714D01*
X128261904Y-78485714D01*
X128166666Y-78533333D01*
X128119047Y-78580952D01*
X128071428Y-78676190D01*
X128071428Y-78961904D01*
X128119047Y-79057142D01*
X128166666Y-79104761D01*
X128261904Y-79152380D01*
X128404761Y-79152380D01*
X127500000Y-79152380D02*
X127595238Y-79104761D01*
X127642857Y-79057142D01*
X127690476Y-78961904D01*
X127690476Y-78676190D01*
X127642857Y-78580952D01*
X127595238Y-78533333D01*
X127500000Y-78485714D01*
X127357142Y-78485714D01*
X127261904Y-78533333D01*
X127214285Y-78580952D01*
X127166666Y-78676190D01*
X127166666Y-78961904D01*
X127214285Y-79057142D01*
X127261904Y-79104761D01*
X127357142Y-79152380D01*
X127500000Y-79152380D01*
X126785714Y-79104761D02*
X126690476Y-79152380D01*
X126500000Y-79152380D01*
X126404761Y-79104761D01*
X126357142Y-79009523D01*
X126357142Y-78961904D01*
X126404761Y-78866666D01*
X126500000Y-78819047D01*
X126642857Y-78819047D01*
X126738095Y-78771428D01*
X126785714Y-78676190D01*
X126785714Y-78628571D01*
X126738095Y-78533333D01*
X126642857Y-78485714D01*
X126500000Y-78485714D01*
X126404761Y-78533333D01*
X126071428Y-78485714D02*
X125690476Y-78485714D01*
X125928571Y-78152380D02*
X125928571Y-79009523D01*
X125880952Y-79104761D01*
X125785714Y-79152380D01*
X125690476Y-79152380D01*
X124833333Y-79152380D02*
X125404761Y-79152380D01*
X125119047Y-79152380D02*
X125119047Y-78152380D01*
X125214285Y-78295238D01*
X125309523Y-78390476D01*
X125404761Y-78438095D01*
X124214285Y-78152380D02*
X124119047Y-78152380D01*
X124023809Y-78200000D01*
X123976190Y-78247619D01*
X123928571Y-78342857D01*
X123880952Y-78533333D01*
X123880952Y-78771428D01*
X123928571Y-78961904D01*
X123976190Y-79057142D01*
X124023809Y-79104761D01*
X124119047Y-79152380D01*
X124214285Y-79152380D01*
X124309523Y-79104761D01*
X124357142Y-79057142D01*
X124404761Y-78961904D01*
X124452380Y-78771428D01*
X124452380Y-78533333D01*
X124404761Y-78342857D01*
X124357142Y-78247619D01*
X124309523Y-78200000D01*
X124214285Y-78152380D01*
X123261904Y-78152380D02*
X123166666Y-78152380D01*
X123071428Y-78200000D01*
X123023809Y-78247619D01*
X122976190Y-78342857D01*
X122928571Y-78533333D01*
X122928571Y-78771428D01*
X122976190Y-78961904D01*
X123023809Y-79057142D01*
X123071428Y-79104761D01*
X123166666Y-79152380D01*
X123261904Y-79152380D01*
X123357142Y-79104761D01*
X123404761Y-79057142D01*
X123452380Y-78961904D01*
X123500000Y-78771428D01*
X123500000Y-78533333D01*
X123452380Y-78342857D01*
X123404761Y-78247619D01*
X123357142Y-78200000D01*
X123261904Y-78152380D01*
X122309523Y-78152380D02*
X122214285Y-78152380D01*
X122119047Y-78200000D01*
X122071428Y-78247619D01*
X122023809Y-78342857D01*
X121976190Y-78533333D01*
X121976190Y-78771428D01*
X122023809Y-78961904D01*
X122071428Y-79057142D01*
X122119047Y-79104761D01*
X122214285Y-79152380D01*
X122309523Y-79152380D01*
X122404761Y-79104761D01*
X122452380Y-79057142D01*
X122500000Y-78961904D01*
X122547619Y-78771428D01*
X122547619Y-78533333D01*
X122500000Y-78342857D01*
X122452380Y-78247619D01*
X122404761Y-78200000D01*
X122309523Y-78152380D01*
X120976190Y-79057142D02*
X121023809Y-79104761D01*
X121166666Y-79152380D01*
X121261904Y-79152380D01*
X121404761Y-79104761D01*
X121500000Y-79009523D01*
X121547619Y-78914285D01*
X121595238Y-78723809D01*
X121595238Y-78580952D01*
X121547619Y-78390476D01*
X121500000Y-78295238D01*
X121404761Y-78200000D01*
X121261904Y-78152380D01*
X121166666Y-78152380D01*
X121023809Y-78200000D01*
X120976190Y-78247619D01*
D11*
%TO.C,J3*%
X133190000Y-91610000D02*
X133190000Y-90690000D01*
X134790000Y-91610000D02*
X134790000Y-90690000D01*
X141010000Y-85490000D02*
X141010000Y-91610000D01*
X133190000Y-85490000D02*
X141010000Y-85490000D01*
X138750000Y-90850000D02*
X138750000Y-89850000D01*
X138750000Y-87250000D02*
X141010000Y-87250000D01*
X136650000Y-88050000D02*
X136650000Y-89050000D01*
X141010000Y-91610000D02*
X133190000Y-91610000D01*
X133190000Y-86410000D02*
X133190000Y-85490000D01*
X137150000Y-90850000D02*
X138750000Y-90850000D01*
X134790000Y-90690000D02*
X134790000Y-90410000D01*
X138750000Y-89850000D02*
X137150000Y-89850000D01*
X134790000Y-86410000D02*
X133190000Y-86410000D01*
X138750000Y-86250000D02*
X138750000Y-87250000D01*
X137150000Y-89850000D02*
X137150000Y-90850000D01*
X134790000Y-85490000D02*
X134790000Y-86410000D01*
X138750000Y-87250000D02*
X137150000Y-87250000D01*
X141010000Y-88050000D02*
X136650000Y-88050000D01*
X133190000Y-90690000D02*
X134790000Y-90690000D01*
X136650000Y-89050000D02*
X141010000Y-89050000D01*
X134790000Y-86690000D02*
X133575000Y-86690000D01*
X134790000Y-86690000D02*
X134790000Y-86410000D01*
X137150000Y-87250000D02*
X137150000Y-86250000D01*
X138750000Y-86750000D02*
X141010000Y-86750000D01*
X137150000Y-86250000D02*
X138750000Y-86250000D01*
%TD*%
M02*
