M48
; DRILL file {KiCad (5.99.0-10766-geeb405c196)} date Sat Jun 19 10:41:38 2021
; FORMAT={-:-/ absolute / inch / decimal}
; #@! TF.CreationDate,2021-06-19T10:41:38+04:00
; #@! TF.GenerationSoftware,Kicad,Pcbnew,(5.99.0-10766-geeb405c196)
; #@! TF.FileFunction,Plated,1,2,PTH
FMAT,2
INCH
; #@! TA.AperFunction,Plated,PTH,ComponentDrill
T1C0.0079
; #@! TA.AperFunction,Plated,PTH,ComponentDrill
T2C0.0118
; #@! TA.AperFunction,Plated,PTH,ViaDrill
T3C0.0157
; #@! TA.AperFunction,Plated,PTH,ComponentDrill
T4C0.0217
; #@! TA.AperFunction,Plated,PTH,ComponentDrill
T5C0.0295
; #@! TA.AperFunction,Plated,PTH,ComponentDrill
T6C0.0335
; #@! TA.AperFunction,Plated,PTH,ComponentDrill
T7C0.0362
; #@! TA.AperFunction,Plated,PTH,ComponentDrill
T8C0.0394
; #@! TA.AperFunction,Plated,PTH,ComponentDrill
T9C0.0906
; #@! TA.AperFunction,Plated,PTH,ComponentDrill
T10C0.0984
%
G90
G05
T1
X4.8012Y-3.4094
X4.8012Y-3.4528
X4.8012Y-3.4961
X4.8445Y-3.4094
X4.8445Y-3.4528
X4.8445Y-3.4961
X4.8878Y-3.4094
X4.8878Y-3.4528
X4.8878Y-3.4961
T2
X4.4134Y-3.4744
X4.4134Y-3.5039
X4.4134Y-3.5335
X4.4429Y-3.4744
X4.4429Y-3.5039
X4.4449Y-3.5335
X4.4724Y-3.4744
X4.4724Y-3.5039
X4.4724Y-3.5335
T3
X4.2677Y-3.8406
X4.3543Y-3.5787
X4.378Y-3.7874
X4.4331Y-3.3917
X4.5611Y-3.5289
X4.5709Y-3.2047
X4.6083Y-3.6575
X4.6713Y-3.6831
X4.7126Y-3.2185
X4.7579Y-3.7362
X4.7677Y-3.5394
T5
X4.3189Y-3.2913
X4.3976Y-3.2913
X5.3012Y-3.4469
X5.3012Y-3.5256
T7
X5.1721Y-3.3484
X5.1721Y-3.4469
X5.1721Y-3.5256
X5.1721Y-3.624
T8
X4.4439Y-3.8858
X4.5439Y-3.8858
X4.6439Y-3.8858
X4.7439Y-3.8858
X4.8439Y-3.8858
X4.9439Y-3.8858
X5.0439Y-3.8858
X5.1439Y-3.8858
T9
X5.2788Y-3.2276
X5.2788Y-3.7449
T10
X4.0374Y-3.1358
X4.0374Y-3.8366
T4
G00X4.0207Y-3.3337
M15
G01X3.9951Y-3.3337
M16
G05
G00X4.0207Y-3.6388
M15
G01X3.9951Y-3.6388
M16
G05
T6
G00X4.1683Y-3.3396
M15
G01X4.1467Y-3.3396
M16
G05
G00X4.1683Y-3.6329
M15
G01X4.1467Y-3.6329
M16
G05
T0
M30
